<svg width="979" height="653" viewBox="0 0 979 653" fill="none" xmlns="http://www.w3.org/2000/svg">
<g id="Basement">
<rect width="979" height="653" fill="white"/>
<g id="AllWalls">
<path d="M244.5 230V310H393.5V230M244.5 230H393.5M244.5 230V186H198.5M393.5 230V186V158V114M198.5 186V114M198.5 186V274M198.5 114H393.5M198.5 114V42M393.5 114V42H217H198.5M198.5 42H73V158V186V274M198.5 274H73M198.5 274V320.5M73 274V360M73 360V612H198.5V360H73ZM615.5 612V484.5H678V612H615.5ZM615.5 612H527V548.25V484.5H571" stroke="black" stroke-width="5"/>
<path d="M244.5 230V310H393.5V230M244.5 230H393.5M244.5 230V186H198.5M393.5 230V186V158V114M198.5 186V114M198.5 186V274M198.5 114H393.5M198.5 114V42M393.5 114V42H217H198.5M198.5 42H73V158V186V274M198.5 274H73M198.5 274V320.5M73 274V360M73 360V612H198.5V360H73ZM615.5 612V484.5H678V612H615.5ZM615.5 612H527V548.25V484.5H571" stroke="black" stroke-width="5"/>
</g>
<g id="Room-basement">
<g id="Main">
<path d="M244.5 230V310H393.5H457.5H615.5H732.5H760.5H905.5V461V612H732.5H679V484H615.5V612H527H369H217H198.5V360H73V274H198.5V186H244.5V230Z" fill="#0F52BA" fill-opacity="0.25"/>
<path d="M244.5 230V310H393.5H457.5H615.5H732.5H760.5H905.5V461V612H732.5H679V484H615.5V612H527H369H217H198.5V360H73V274H198.5V186H244.5V230Z" stroke="black" stroke-width="5"/>
<path d="M244.5 230V310H393.5H457.5H615.5H732.5H760.5H905.5V461V612H732.5H679V484H615.5V612H527H369H217H198.5V360H73V274H198.5V186H244.5V230Z" stroke="black" stroke-width="5"/>
</g>
<path id="Main Basement" d="M447.918 404.545H451.114L456.67 418.114H456.875L462.432 404.545H465.628V422H463.122V409.369H462.96L457.812 421.974H455.733L450.585 409.361H450.423V422H447.918V404.545ZM473.062 422.29C472.232 422.29 471.482 422.136 470.812 421.83C470.141 421.517 469.61 421.065 469.218 420.474C468.832 419.884 468.638 419.159 468.638 418.301C468.638 417.562 468.781 416.955 469.065 416.477C469.349 416 469.732 415.622 470.215 415.344C470.698 415.065 471.238 414.855 471.835 414.713C472.431 414.571 473.039 414.463 473.658 414.389C474.442 414.298 475.079 414.224 475.567 414.168C476.056 414.105 476.411 414.006 476.633 413.869C476.854 413.733 476.965 413.511 476.965 413.205V413.145C476.965 412.401 476.755 411.824 476.335 411.415C475.92 411.006 475.3 410.801 474.477 410.801C473.619 410.801 472.942 410.991 472.448 411.372C471.96 411.747 471.621 412.165 471.434 412.625L469.039 412.08C469.323 411.284 469.738 410.642 470.283 410.153C470.835 409.659 471.468 409.301 472.184 409.08C472.9 408.852 473.653 408.739 474.442 408.739C474.965 408.739 475.519 408.801 476.104 408.926C476.695 409.045 477.246 409.267 477.758 409.591C478.275 409.915 478.698 410.378 479.028 410.98C479.357 411.577 479.522 412.352 479.522 413.307V422H477.033V420.21H476.931C476.766 420.54 476.519 420.864 476.19 421.182C475.86 421.5 475.437 421.764 474.92 421.974C474.403 422.185 473.783 422.29 473.062 422.29ZM473.616 420.244C474.32 420.244 474.923 420.105 475.423 419.827C475.928 419.548 476.312 419.185 476.573 418.736C476.84 418.281 476.974 417.795 476.974 417.278V415.591C476.883 415.682 476.707 415.767 476.445 415.847C476.19 415.92 475.897 415.986 475.567 416.043C475.238 416.094 474.917 416.142 474.604 416.188C474.292 416.227 474.031 416.261 473.82 416.29C473.326 416.352 472.874 416.457 472.465 416.605C472.062 416.753 471.738 416.966 471.494 417.244C471.255 417.517 471.136 417.881 471.136 418.335C471.136 418.966 471.369 419.443 471.835 419.767C472.3 420.085 472.894 420.244 473.616 420.244ZM482.916 422V408.909H485.464V422H482.916ZM484.203 406.889C483.76 406.889 483.379 406.741 483.061 406.446C482.749 406.145 482.592 405.787 482.592 405.372C482.592 404.952 482.749 404.594 483.061 404.298C483.379 403.997 483.76 403.847 484.203 403.847C484.646 403.847 485.024 403.997 485.337 404.298C485.655 404.594 485.814 404.952 485.814 405.372C485.814 405.787 485.655 406.145 485.337 406.446C485.024 406.741 484.646 406.889 484.203 406.889ZM491.441 414.227V422H488.893V408.909H491.339V411.04H491.501C491.802 410.347 492.273 409.79 492.915 409.369C493.563 408.949 494.379 408.739 495.362 408.739C496.254 408.739 497.035 408.926 497.705 409.301C498.376 409.67 498.896 410.222 499.265 410.955C499.634 411.687 499.819 412.594 499.819 413.673V422H497.271V413.98C497.271 413.031 497.023 412.29 496.529 411.756C496.035 411.216 495.356 410.946 494.492 410.946C493.901 410.946 493.376 411.074 492.915 411.33C492.461 411.585 492.1 411.96 491.833 412.455C491.572 412.943 491.441 413.534 491.441 414.227ZM509.793 422V404.545H516.185C517.423 404.545 518.449 404.75 519.261 405.159C520.074 405.562 520.682 406.111 521.085 406.804C521.489 407.491 521.69 408.267 521.69 409.131C521.69 409.858 521.557 410.472 521.29 410.972C521.023 411.466 520.665 411.864 520.216 412.165C519.773 412.46 519.284 412.676 518.75 412.812V412.983C519.33 413.011 519.895 413.199 520.446 413.545C521.003 413.886 521.463 414.372 521.827 415.003C522.19 415.634 522.372 416.401 522.372 417.304C522.372 418.196 522.162 418.997 521.741 419.707C521.327 420.412 520.685 420.972 519.815 421.386C518.946 421.795 517.835 422 516.483 422H509.793ZM512.426 419.741H516.227C517.489 419.741 518.392 419.497 518.938 419.009C519.483 418.52 519.756 417.909 519.756 417.176C519.756 416.625 519.616 416.119 519.338 415.659C519.06 415.199 518.662 414.832 518.145 414.56C517.634 414.287 517.026 414.151 516.321 414.151H512.426V419.741ZM512.426 412.097H515.955C516.545 412.097 517.077 411.983 517.548 411.756C518.026 411.528 518.403 411.21 518.682 410.801C518.966 410.386 519.108 409.898 519.108 409.335C519.108 408.614 518.855 408.009 518.349 407.52C517.844 407.031 517.068 406.787 516.023 406.787H512.426V412.097ZM529.101 422.29C528.271 422.29 527.521 422.136 526.851 421.83C526.18 421.517 525.649 421.065 525.257 420.474C524.871 419.884 524.678 419.159 524.678 418.301C524.678 417.562 524.82 416.955 525.104 416.477C525.388 416 525.771 415.622 526.254 415.344C526.737 415.065 527.277 414.855 527.874 414.713C528.47 414.571 529.078 414.463 529.697 414.389C530.482 414.298 531.118 414.224 531.607 414.168C532.095 414.105 532.45 414.006 532.672 413.869C532.893 413.733 533.004 413.511 533.004 413.205V413.145C533.004 412.401 532.794 411.824 532.374 411.415C531.959 411.006 531.339 410.801 530.516 410.801C529.658 410.801 528.982 410.991 528.487 411.372C527.999 411.747 527.661 412.165 527.473 412.625L525.078 412.08C525.362 411.284 525.777 410.642 526.322 410.153C526.874 409.659 527.507 409.301 528.223 409.08C528.939 408.852 529.692 408.739 530.482 408.739C531.004 408.739 531.558 408.801 532.143 408.926C532.734 409.045 533.286 409.267 533.797 409.591C534.314 409.915 534.737 410.378 535.067 410.98C535.396 411.577 535.561 412.352 535.561 413.307V422H533.072V420.21H532.97C532.805 420.54 532.558 420.864 532.229 421.182C531.899 421.5 531.476 421.764 530.959 421.974C530.442 422.185 529.822 422.29 529.101 422.29ZM529.655 420.244C530.359 420.244 530.962 420.105 531.462 419.827C531.967 419.548 532.351 419.185 532.612 418.736C532.879 418.281 533.013 417.795 533.013 417.278V415.591C532.922 415.682 532.746 415.767 532.484 415.847C532.229 415.92 531.936 415.986 531.607 416.043C531.277 416.094 530.956 416.142 530.643 416.188C530.331 416.227 530.07 416.261 529.859 416.29C529.365 416.352 528.913 416.457 528.504 416.605C528.101 416.753 527.777 416.966 527.533 417.244C527.294 417.517 527.175 417.881 527.175 418.335C527.175 418.966 527.408 419.443 527.874 419.767C528.339 420.085 528.933 420.244 529.655 420.244ZM548.765 412.105L546.455 412.514C546.359 412.219 546.205 411.937 545.995 411.67C545.79 411.403 545.512 411.185 545.16 411.014C544.808 410.844 544.367 410.759 543.839 410.759C543.117 410.759 542.515 410.92 542.032 411.244C541.549 411.562 541.308 411.974 541.308 412.48C541.308 412.918 541.469 413.27 541.793 413.537C542.117 413.804 542.64 414.023 543.362 414.193L545.441 414.67C546.646 414.949 547.543 415.378 548.134 415.957C548.725 416.537 549.021 417.29 549.021 418.216C549.021 419 548.793 419.699 548.339 420.312C547.89 420.92 547.262 421.398 546.455 421.744C545.654 422.091 544.725 422.264 543.668 422.264C542.202 422.264 541.006 421.952 540.08 421.327C539.154 420.696 538.586 419.801 538.376 418.642L540.839 418.267C540.992 418.909 541.308 419.395 541.785 419.724C542.262 420.048 542.884 420.21 543.651 420.21C544.487 420.21 545.154 420.037 545.654 419.69C546.154 419.338 546.404 418.909 546.404 418.403C546.404 417.994 546.251 417.651 545.944 417.372C545.643 417.094 545.18 416.884 544.555 416.741L542.339 416.256C541.117 415.977 540.214 415.534 539.629 414.926C539.049 414.318 538.759 413.548 538.759 412.616C538.759 411.844 538.975 411.168 539.407 410.588C539.839 410.009 540.435 409.557 541.197 409.233C541.958 408.903 542.83 408.739 543.813 408.739C545.228 408.739 546.342 409.045 547.154 409.659C547.967 410.267 548.504 411.082 548.765 412.105ZM557.464 422.264C556.175 422.264 555.064 421.989 554.132 421.438C553.206 420.881 552.49 420.099 551.984 419.094C551.484 418.082 551.234 416.898 551.234 415.54C551.234 414.199 551.484 413.017 551.984 411.994C552.49 410.972 553.195 410.173 554.098 409.599C555.007 409.026 556.07 408.739 557.286 408.739C558.024 408.739 558.74 408.861 559.433 409.105C560.126 409.349 560.749 409.733 561.3 410.256C561.851 410.778 562.286 411.457 562.604 412.293C562.922 413.122 563.081 414.131 563.081 415.318V416.222H552.675V414.312H560.584C560.584 413.642 560.447 413.048 560.175 412.531C559.902 412.009 559.518 411.597 559.024 411.295C558.536 410.994 557.962 410.844 557.303 410.844C556.587 410.844 555.962 411.02 555.428 411.372C554.899 411.719 554.49 412.173 554.2 412.736C553.916 413.293 553.774 413.898 553.774 414.551V416.043C553.774 416.918 553.928 417.662 554.234 418.276C554.547 418.889 554.982 419.358 555.538 419.682C556.095 420 556.746 420.159 557.49 420.159C557.973 420.159 558.413 420.091 558.811 419.955C559.209 419.812 559.553 419.602 559.842 419.324C560.132 419.045 560.354 418.702 560.507 418.293L562.919 418.727C562.726 419.437 562.379 420.06 561.879 420.594C561.385 421.122 560.763 421.534 560.013 421.83C559.268 422.119 558.419 422.264 557.464 422.264ZM565.908 422V408.909H568.354V411.04H568.516C568.789 410.318 569.235 409.756 569.854 409.352C570.474 408.943 571.215 408.739 572.079 408.739C572.954 408.739 573.687 408.943 574.278 409.352C574.874 409.761 575.315 410.324 575.599 411.04H575.735C576.048 410.341 576.545 409.784 577.227 409.369C577.908 408.949 578.721 408.739 579.664 408.739C580.852 408.739 581.82 409.111 582.57 409.855C583.326 410.599 583.704 411.722 583.704 413.222V422H581.156V413.46C581.156 412.574 580.914 411.932 580.431 411.534C579.948 411.136 579.371 410.938 578.701 410.938C577.871 410.938 577.227 411.193 576.766 411.705C576.306 412.21 576.076 412.861 576.076 413.656V422H573.536V413.298C573.536 412.588 573.315 412.017 572.871 411.585C572.428 411.153 571.852 410.938 571.141 410.938C570.658 410.938 570.212 411.065 569.803 411.321C569.4 411.571 569.073 411.92 568.823 412.369C568.579 412.818 568.457 413.338 568.457 413.929V422H565.908ZM592.761 422.264C591.472 422.264 590.361 421.989 589.429 421.438C588.503 420.881 587.787 420.099 587.281 419.094C586.781 418.082 586.531 416.898 586.531 415.54C586.531 414.199 586.781 413.017 587.281 411.994C587.787 410.972 588.491 410.173 589.395 409.599C590.304 409.026 591.366 408.739 592.582 408.739C593.321 408.739 594.037 408.861 594.73 409.105C595.423 409.349 596.045 409.733 596.597 410.256C597.148 410.778 597.582 411.457 597.901 412.293C598.219 413.122 598.378 414.131 598.378 415.318V416.222H587.972V414.312H595.881C595.881 413.642 595.744 413.048 595.472 412.531C595.199 412.009 594.815 411.597 594.321 411.295C593.832 410.994 593.259 410.844 592.599 410.844C591.884 410.844 591.259 411.02 590.724 411.372C590.196 411.719 589.787 412.173 589.497 412.736C589.213 413.293 589.071 413.898 589.071 414.551V416.043C589.071 416.918 589.224 417.662 589.531 418.276C589.844 418.889 590.278 419.358 590.835 419.682C591.392 420 592.043 420.159 592.787 420.159C593.27 420.159 593.71 420.091 594.108 419.955C594.506 419.812 594.849 419.602 595.139 419.324C595.429 419.045 595.651 418.702 595.804 418.293L598.216 418.727C598.023 419.437 597.676 420.06 597.176 420.594C596.682 421.122 596.06 421.534 595.31 421.83C594.565 422.119 593.716 422.264 592.761 422.264ZM603.754 414.227V422H601.205V408.909H603.651V411.04H603.813C604.114 410.347 604.586 409.79 605.228 409.369C605.876 408.949 606.691 408.739 607.674 408.739C608.566 408.739 609.347 408.926 610.018 409.301C610.688 409.67 611.208 410.222 611.577 410.955C611.947 411.687 612.131 412.594 612.131 413.673V422H609.583V413.98C609.583 413.031 609.336 412.29 608.842 411.756C608.347 411.216 607.668 410.946 606.805 410.946C606.214 410.946 605.688 411.074 605.228 411.33C604.773 411.585 604.413 411.96 604.146 412.455C603.884 412.943 603.754 413.534 603.754 414.227ZM621.66 408.909V410.955H614.509V408.909H621.66ZM616.427 405.773H618.975V418.156C618.975 418.651 619.049 419.023 619.197 419.273C619.344 419.517 619.535 419.685 619.768 419.776C620.006 419.861 620.265 419.903 620.543 419.903C620.748 419.903 620.927 419.889 621.08 419.861C621.234 419.832 621.353 419.81 621.438 419.793L621.898 421.898C621.751 421.955 621.54 422.011 621.268 422.068C620.995 422.131 620.654 422.165 620.245 422.17C619.575 422.182 618.95 422.062 618.37 421.812C617.79 421.562 617.322 421.176 616.964 420.653C616.606 420.131 616.427 419.474 616.427 418.685V405.773Z" fill="black"/>
</g>
<g id="Room-kitchen">
<g id="Kitchen">
<path fill-rule="evenodd" clip-rule="evenodd" d="M73 612V360H198.5V612H73Z" fill="#0F52BA" fill-opacity="0.25"/>
<path fill-rule="evenodd" clip-rule="evenodd" d="M73 612V360H198.5V612H73Z" stroke="black" stroke-width="5"/>
<path fill-rule="evenodd" clip-rule="evenodd" d="M73 612V360H198.5V612H73Z" stroke="black" stroke-width="5"/>
</g>
<path id="Kitchen_2" d="M140 530.082H122.545V527.449H130.881V527.236L122.545 519.915V516.599L130.403 523.639L140 516.574V519.744L132.202 525.386L134.571 527.449H140V530.082ZM140 513.529H126.909V510.981H140V513.529ZM124.889 512.242C124.889 512.685 124.741 513.066 124.446 513.384C124.145 513.697 123.787 513.853 123.372 513.853C122.952 513.853 122.594 513.697 122.298 513.384C121.997 513.066 121.847 512.685 121.847 512.242C121.847 511.799 121.997 511.421 122.298 511.109C122.594 510.79 122.952 510.631 123.372 510.631C123.787 510.631 124.145 510.79 124.446 511.109C124.741 511.421 124.889 511.799 124.889 512.242ZM126.909 501.442H128.955V508.592H126.909V501.442ZM123.773 506.675V504.126H136.156C136.651 504.126 137.023 504.053 137.273 503.905C137.517 503.757 137.685 503.567 137.776 503.334C137.861 503.095 137.903 502.837 137.903 502.558C137.903 502.354 137.889 502.175 137.861 502.021C137.832 501.868 137.81 501.749 137.793 501.663L139.898 501.203C139.955 501.351 140.011 501.561 140.068 501.834C140.131 502.107 140.165 502.447 140.17 502.857C140.182 503.527 140.062 504.152 139.812 504.732C139.562 505.311 139.176 505.78 138.653 506.138C138.131 506.496 137.474 506.675 136.685 506.675H123.773ZM140.264 493.249C140.264 494.516 139.977 495.607 139.403 496.522C138.824 497.431 138.026 498.13 137.009 498.619C135.991 499.107 134.827 499.352 133.514 499.352C132.185 499.352 131.011 499.102 129.994 498.602C128.972 498.102 128.173 497.397 127.599 496.488C127.026 495.579 126.739 494.508 126.739 493.275C126.739 492.281 126.923 491.394 127.293 490.616C127.656 489.837 128.168 489.21 128.827 488.732C129.486 488.249 130.256 487.962 131.136 487.871V490.352C130.523 490.488 129.994 490.8 129.551 491.289C129.108 491.772 128.886 492.42 128.886 493.232C128.886 493.942 129.074 494.565 129.449 495.099C129.818 495.627 130.347 496.039 131.034 496.335C131.716 496.63 132.523 496.778 133.455 496.778C134.409 496.778 135.233 496.633 135.926 496.343C136.619 496.053 137.156 495.644 137.537 495.116C137.918 494.582 138.108 493.954 138.108 493.232C138.108 492.749 138.02 492.312 137.844 491.92C137.662 491.522 137.403 491.19 137.068 490.923C136.733 490.65 136.33 490.46 135.858 490.352V487.871C136.705 487.962 137.46 488.238 138.125 488.698C138.79 489.158 139.312 489.775 139.693 490.548C140.074 491.315 140.264 492.215 140.264 493.249ZM132.227 482.598H140V485.146H122.545V482.632H129.04V482.47C128.335 482.163 127.776 481.695 127.361 481.064C126.946 480.433 126.739 479.609 126.739 478.592C126.739 477.695 126.923 476.911 127.293 476.24C127.662 475.564 128.213 475.041 128.946 474.672C129.673 474.297 130.582 474.109 131.673 474.109H140V476.658H131.98C131.02 476.658 130.276 476.905 129.747 477.399C129.213 477.893 128.946 478.581 128.946 479.462C128.946 480.064 129.074 480.604 129.33 481.081C129.585 481.553 129.96 481.925 130.455 482.197C130.943 482.464 131.534 482.598 132.227 482.598ZM140.264 465.067C140.264 466.357 139.989 467.467 139.438 468.399C138.881 469.325 138.099 470.041 137.094 470.547C136.082 471.047 134.898 471.297 133.54 471.297C132.199 471.297 131.017 471.047 129.994 470.547C128.972 470.041 128.173 469.337 127.599 468.433C127.026 467.524 126.739 466.462 126.739 465.246C126.739 464.507 126.861 463.791 127.105 463.098C127.349 462.405 127.733 461.783 128.256 461.232C128.778 460.68 129.457 460.246 130.293 459.928C131.122 459.609 132.131 459.45 133.318 459.45H134.222V469.857H132.312V461.947C131.642 461.947 131.048 462.084 130.531 462.357C130.009 462.629 129.597 463.013 129.295 463.507C128.994 463.996 128.844 464.57 128.844 465.229C128.844 465.945 129.02 466.57 129.372 467.104C129.719 467.632 130.173 468.041 130.736 468.331C131.293 468.615 131.898 468.757 132.551 468.757H134.043C134.918 468.757 135.662 468.604 136.276 468.297C136.889 467.984 137.358 467.55 137.682 466.993C138 466.436 138.159 465.786 138.159 465.041C138.159 464.558 138.091 464.118 137.955 463.72C137.812 463.322 137.602 462.979 137.324 462.689C137.045 462.399 136.702 462.178 136.293 462.024L136.727 459.612C137.437 459.805 138.06 460.152 138.594 460.652C139.122 461.146 139.534 461.768 139.83 462.518C140.119 463.263 140.264 464.112 140.264 465.067ZM132.227 454.075H140V456.623H126.909V454.177H129.04V454.015C128.347 453.714 127.79 453.242 127.369 452.6C126.949 451.952 126.739 451.137 126.739 450.154C126.739 449.262 126.926 448.481 127.301 447.81C127.67 447.14 128.222 446.62 128.955 446.251C129.687 445.881 130.594 445.697 131.673 445.697H140V448.245H131.98C131.031 448.245 130.29 448.492 129.756 448.987C129.216 449.481 128.946 450.16 128.946 451.023C128.946 451.614 129.074 452.14 129.33 452.6C129.585 453.055 129.96 453.415 130.455 453.683C130.943 453.944 131.534 454.075 132.227 454.075Z" fill="black"/>
</g>
<g id="Room-boiler">
<g id="Boiler">
<path fill-rule="evenodd" clip-rule="evenodd" d="M393.5 114H198.5V42H217H393.5V114Z" fill="#0F52BA" fill-opacity="0.25"/>
<path fill-rule="evenodd" clip-rule="evenodd" d="M393.5 114H198.5V42H217H393.5V114Z" stroke="black" stroke-width="5"/>
<path fill-rule="evenodd" clip-rule="evenodd" d="M393.5 114H198.5V42H217H393.5V114Z" stroke="black" stroke-width="5"/>
</g>
<path id="Boiler_2" d="M266.918 86V68.5455H273.31C274.548 68.5455 275.574 68.75 276.386 69.1591C277.199 69.5625 277.807 70.1108 278.21 70.804C278.614 71.4915 278.815 72.267 278.815 73.1307C278.815 73.858 278.682 74.4716 278.415 74.9716C278.148 75.4659 277.79 75.8636 277.341 76.1648C276.898 76.4602 276.409 76.6761 275.875 76.8125V76.983C276.455 77.0114 277.02 77.1989 277.571 77.5455C278.128 77.8864 278.588 78.3722 278.952 79.0028C279.315 79.6335 279.497 80.4006 279.497 81.304C279.497 82.196 279.287 82.9972 278.866 83.7074C278.452 84.4119 277.81 84.9716 276.94 85.3864C276.071 85.7955 274.96 86 273.608 86H266.918ZM269.551 83.7415H273.352C274.614 83.7415 275.517 83.4972 276.062 83.0085C276.608 82.5199 276.881 81.9091 276.881 81.1761C276.881 80.625 276.741 80.1193 276.463 79.6591C276.185 79.1989 275.787 78.8324 275.27 78.5597C274.759 78.2869 274.151 78.1506 273.446 78.1506H269.551V83.7415ZM269.551 76.0966H273.08C273.67 76.0966 274.202 75.983 274.673 75.7557C275.151 75.5284 275.528 75.2102 275.807 74.8011C276.091 74.3864 276.233 73.8977 276.233 73.3352C276.233 72.6136 275.98 72.0085 275.474 71.5199C274.969 71.0312 274.193 70.7869 273.148 70.7869H269.551V76.0966ZM287.93 86.2642C286.703 86.2642 285.632 85.983 284.717 85.4205C283.803 84.858 283.092 84.071 282.587 83.0597C282.081 82.0483 281.828 80.8665 281.828 79.5142C281.828 78.1562 282.081 76.9687 282.587 75.9517C283.092 74.9347 283.803 74.1449 284.717 73.5824C285.632 73.0199 286.703 72.7386 287.93 72.7386C289.158 72.7386 290.229 73.0199 291.143 73.5824C292.058 74.1449 292.768 74.9347 293.274 75.9517C293.78 76.9687 294.033 78.1562 294.033 79.5142C294.033 80.8665 293.78 82.0483 293.274 83.0597C292.768 84.071 292.058 84.858 291.143 85.4205C290.229 85.983 289.158 86.2642 287.93 86.2642ZM287.939 84.125C288.734 84.125 289.393 83.9148 289.916 83.4943C290.439 83.0739 290.825 82.5142 291.075 81.8153C291.331 81.1165 291.459 80.3466 291.459 79.5057C291.459 78.6705 291.331 77.9034 291.075 77.2045C290.825 76.5 290.439 75.9347 289.916 75.5085C289.393 75.0824 288.734 74.8693 287.939 74.8693C287.138 74.8693 286.473 75.0824 285.945 75.5085C285.422 75.9347 285.033 76.5 284.777 77.2045C284.527 77.9034 284.402 78.6705 284.402 79.5057C284.402 80.3466 284.527 81.1165 284.777 81.8153C285.033 82.5142 285.422 83.0739 285.945 83.4943C286.473 83.9148 287.138 84.125 287.939 84.125ZM296.877 86V72.9091H299.425V86H296.877ZM298.164 70.8892C297.721 70.8892 297.34 70.7415 297.022 70.446C296.71 70.1449 296.553 69.7869 296.553 69.3722C296.553 68.9517 296.71 68.5937 297.022 68.2983C297.34 67.9972 297.721 67.8466 298.164 67.8466C298.607 67.8466 298.985 67.9972 299.298 68.2983C299.616 68.5937 299.775 68.9517 299.775 69.3722C299.775 69.7869 299.616 70.1449 299.298 70.446C298.985 70.7415 298.607 70.8892 298.164 70.8892ZM305.402 68.5455V86H302.854V68.5455H305.402ZM314.472 86.2642C313.183 86.2642 312.072 85.9886 311.14 85.4375C310.214 84.8807 309.498 84.0994 308.992 83.0938C308.492 82.0824 308.242 80.8977 308.242 79.5398C308.242 78.1989 308.492 77.017 308.992 75.9943C309.498 74.9716 310.202 74.1733 311.106 73.5994C312.015 73.0256 313.077 72.7386 314.293 72.7386C315.032 72.7386 315.748 72.8608 316.441 73.1051C317.134 73.3494 317.756 73.733 318.308 74.2557C318.859 74.7784 319.293 75.4574 319.612 76.2926C319.93 77.1222 320.089 78.1307 320.089 79.3182V80.2216H309.683V78.3125H317.592C317.592 77.642 317.455 77.0483 317.183 76.5312C316.91 76.0085 316.526 75.5966 316.032 75.2955C315.543 74.9943 314.969 74.8438 314.31 74.8438C313.594 74.8438 312.969 75.0199 312.435 75.3722C311.907 75.7187 311.498 76.1733 311.208 76.7358C310.924 77.2926 310.782 77.8977 310.782 78.5511V80.0426C310.782 80.9176 310.935 81.6619 311.242 82.2756C311.555 82.8892 311.989 83.358 312.546 83.6818C313.103 84 313.754 84.1591 314.498 84.1591C314.981 84.1591 315.421 84.0909 315.819 83.9545C316.217 83.8125 316.56 83.6023 316.85 83.3239C317.14 83.0455 317.362 82.7017 317.515 82.2926L319.927 82.7273C319.734 83.4375 319.387 84.0597 318.887 84.5938C318.393 85.1222 317.771 85.5341 317.021 85.8295C316.276 86.1193 315.427 86.2642 314.472 86.2642ZM322.916 86V72.9091H325.379V74.9886H325.516C325.754 74.2841 326.175 73.7301 326.777 73.3267C327.385 72.9176 328.072 72.7131 328.839 72.7131C328.999 72.7131 329.186 72.7187 329.402 72.7301C329.624 72.7415 329.797 72.7557 329.922 72.7727V75.2102C329.82 75.1818 329.638 75.1506 329.376 75.1165C329.115 75.0767 328.854 75.0568 328.592 75.0568C327.99 75.0568 327.453 75.1847 326.982 75.4403C326.516 75.6903 326.146 76.0398 325.874 76.4886C325.601 76.9318 325.464 77.4375 325.464 78.0057V86H322.916Z" fill="black"/>
</g>
<g id="Room-snack">
<g id="Snack">
<path fill-rule="evenodd" clip-rule="evenodd" d="M198.5 186V114H393.5V158V186V230H244.5V186H198.5Z" fill="#0F52BA" fill-opacity="0.25"/>
<path fill-rule="evenodd" clip-rule="evenodd" d="M198.5 186V114H393.5V158V186V230H244.5V186H198.5Z" stroke="black" stroke-width="5"/>
<path fill-rule="evenodd" clip-rule="evenodd" d="M198.5 186V114H393.5V158V186V230H244.5V186H198.5Z" stroke="black" stroke-width="5"/>
</g>
<path id="Snack_2" d="M276.438 165.131C276.347 164.324 275.972 163.699 275.312 163.256C274.653 162.807 273.824 162.582 272.824 162.582C272.108 162.582 271.489 162.696 270.966 162.923C270.443 163.145 270.037 163.452 269.747 163.844C269.463 164.23 269.321 164.67 269.321 165.165C269.321 165.58 269.418 165.937 269.611 166.239C269.81 166.54 270.068 166.793 270.386 166.997C270.71 167.196 271.057 167.364 271.426 167.5C271.795 167.631 272.151 167.739 272.491 167.824L274.196 168.267C274.753 168.403 275.324 168.588 275.909 168.821C276.494 169.054 277.037 169.361 277.537 169.741C278.037 170.122 278.44 170.594 278.747 171.156C279.06 171.719 279.216 172.392 279.216 173.176C279.216 174.165 278.96 175.043 278.449 175.81C277.943 176.577 277.207 177.182 276.241 177.625C275.281 178.068 274.119 178.29 272.756 178.29C271.449 178.29 270.318 178.082 269.364 177.668C268.409 177.253 267.662 176.665 267.122 175.903C266.582 175.136 266.284 174.227 266.227 173.176H268.869C268.92 173.807 269.125 174.332 269.483 174.753C269.847 175.168 270.31 175.477 270.872 175.682C271.44 175.881 272.062 175.98 272.739 175.98C273.483 175.98 274.145 175.864 274.724 175.631C275.31 175.392 275.77 175.062 276.105 174.642C276.44 174.216 276.608 173.719 276.608 173.151C276.608 172.634 276.46 172.21 276.165 171.881C275.875 171.551 275.48 171.278 274.98 171.062C274.486 170.847 273.926 170.656 273.301 170.491L271.239 169.929C269.841 169.548 268.733 168.989 267.915 168.25C267.102 167.511 266.696 166.534 266.696 165.318C266.696 164.312 266.969 163.435 267.514 162.685C268.06 161.935 268.798 161.352 269.73 160.938C270.662 160.517 271.713 160.307 272.884 160.307C274.065 160.307 275.108 160.514 276.011 160.929C276.92 161.344 277.636 161.915 278.159 162.642C278.682 163.364 278.955 164.193 278.977 165.131H276.438ZM284.707 170.227V178H282.158V164.909H284.604V167.04H284.766C285.067 166.347 285.539 165.79 286.181 165.369C286.829 164.949 287.644 164.739 288.627 164.739C289.519 164.739 290.3 164.926 290.971 165.301C291.641 165.67 292.161 166.222 292.531 166.955C292.9 167.687 293.085 168.594 293.085 169.673V178H290.536V169.98C290.536 169.031 290.289 168.29 289.795 167.756C289.3 167.216 288.621 166.946 287.758 166.946C287.167 166.946 286.641 167.074 286.181 167.33C285.727 167.585 285.366 167.96 285.099 168.455C284.837 168.943 284.707 169.534 284.707 170.227ZM300.312 178.29C299.482 178.29 298.732 178.136 298.062 177.83C297.391 177.517 296.86 177.065 296.468 176.474C296.082 175.884 295.888 175.159 295.888 174.301C295.888 173.562 296.031 172.955 296.315 172.477C296.599 172 296.982 171.622 297.465 171.344C297.948 171.065 298.488 170.855 299.085 170.713C299.681 170.571 300.289 170.463 300.908 170.389C301.692 170.298 302.329 170.224 302.817 170.168C303.306 170.105 303.661 170.006 303.883 169.869C304.104 169.733 304.215 169.511 304.215 169.205V169.145C304.215 168.401 304.005 167.824 303.585 167.415C303.17 167.006 302.55 166.801 301.727 166.801C300.869 166.801 300.192 166.991 299.698 167.372C299.21 167.747 298.871 168.165 298.684 168.625L296.289 168.08C296.573 167.284 296.988 166.642 297.533 166.153C298.085 165.659 298.718 165.301 299.434 165.08C300.15 164.852 300.903 164.739 301.692 164.739C302.215 164.739 302.769 164.801 303.354 164.926C303.945 165.045 304.496 165.267 305.008 165.591C305.525 165.915 305.948 166.378 306.278 166.98C306.607 167.577 306.772 168.352 306.772 169.307V178H304.283V176.21H304.181C304.016 176.54 303.769 176.864 303.44 177.182C303.11 177.5 302.687 177.764 302.17 177.974C301.653 178.185 301.033 178.29 300.312 178.29ZM300.866 176.244C301.57 176.244 302.173 176.105 302.673 175.827C303.178 175.548 303.562 175.185 303.823 174.736C304.09 174.281 304.224 173.795 304.224 173.278V171.591C304.133 171.682 303.957 171.767 303.695 171.847C303.44 171.92 303.147 171.986 302.817 172.043C302.488 172.094 302.167 172.142 301.854 172.188C301.542 172.227 301.281 172.261 301.07 172.29C300.576 172.352 300.124 172.457 299.715 172.605C299.312 172.753 298.988 172.966 298.744 173.244C298.505 173.517 298.386 173.881 298.386 174.335C298.386 174.966 298.619 175.443 299.085 175.767C299.55 176.085 300.144 176.244 300.866 176.244ZM315.68 178.264C314.413 178.264 313.322 177.977 312.408 177.403C311.499 176.824 310.8 176.026 310.311 175.009C309.822 173.991 309.578 172.827 309.578 171.514C309.578 170.185 309.828 169.011 310.328 167.994C310.828 166.972 311.533 166.173 312.442 165.599C313.351 165.026 314.422 164.739 315.655 164.739C316.649 164.739 317.536 164.923 318.314 165.293C319.092 165.656 319.72 166.168 320.197 166.827C320.68 167.486 320.967 168.256 321.058 169.136H318.578C318.442 168.523 318.129 167.994 317.641 167.551C317.158 167.108 316.51 166.886 315.697 166.886C314.987 166.886 314.365 167.074 313.831 167.449C313.303 167.818 312.891 168.347 312.595 169.034C312.3 169.716 312.152 170.523 312.152 171.455C312.152 172.409 312.297 173.233 312.587 173.926C312.876 174.619 313.286 175.156 313.814 175.537C314.348 175.918 314.976 176.108 315.697 176.108C316.18 176.108 316.618 176.02 317.01 175.844C317.408 175.662 317.74 175.403 318.007 175.068C318.28 174.733 318.47 174.33 318.578 173.858H321.058C320.967 174.705 320.692 175.46 320.232 176.125C319.771 176.79 319.155 177.312 318.382 177.693C317.615 178.074 316.714 178.264 315.68 178.264ZM326.127 173.56L326.11 170.449H326.553L331.769 164.909H334.82L328.871 171.216H328.471L326.127 173.56ZM323.783 178V160.545H326.332V178H323.783ZM332.05 178L327.363 171.778L329.119 169.997L335.178 178H332.05Z" fill="black"/>
</g>
<g id="Room-gym">
<g id="Gym">
<path fill-rule="evenodd" clip-rule="evenodd" d="M73 158V42H198.5V114V186V274H73V186V158Z" fill="#0F52BA" fill-opacity="0.25"/>
<path fill-rule="evenodd" clip-rule="evenodd" d="M73 158V42H198.5V114V186V274H73V186V158Z" stroke="black" stroke-width="5"/>
<path fill-rule="evenodd" clip-rule="evenodd" d="M73 158V42H198.5V114V186V274H73V186V158Z" stroke="black" stroke-width="5"/>
</g>
<path id="Gym_2" d="M122.73 149.06C122.565 148.543 122.344 148.08 122.065 147.67C121.793 147.256 121.466 146.903 121.085 146.614C120.705 146.318 120.27 146.094 119.781 145.94C119.298 145.787 118.767 145.71 118.188 145.71C117.205 145.71 116.318 145.963 115.528 146.469C114.739 146.974 114.114 147.716 113.653 148.693C113.199 149.665 112.972 150.855 112.972 152.264C112.972 153.679 113.202 154.875 113.662 155.852C114.122 156.83 114.753 157.571 115.554 158.077C116.355 158.582 117.267 158.835 118.29 158.835C119.239 158.835 120.065 158.642 120.77 158.256C121.48 157.869 122.028 157.324 122.415 156.619C122.807 155.909 123.003 155.074 123.003 154.114L123.685 154.241H118.69V152.068H125.551V154.054C125.551 155.52 125.239 156.793 124.614 157.872C123.994 158.946 123.136 159.776 122.04 160.361C120.949 160.946 119.699 161.239 118.29 161.239C116.71 161.239 115.324 160.875 114.131 160.148C112.943 159.42 112.017 158.389 111.352 157.054C110.688 155.713 110.355 154.122 110.355 152.281C110.355 150.889 110.548 149.639 110.935 148.531C111.321 147.423 111.864 146.483 112.562 145.71C113.267 144.932 114.094 144.338 115.043 143.929C115.997 143.514 117.04 143.307 118.17 143.307C119.114 143.307 119.991 143.446 120.804 143.724C121.622 144.003 122.349 144.398 122.986 144.909C123.628 145.42 124.159 146.028 124.58 146.733C125 147.432 125.284 148.207 125.432 149.06H122.73ZM130.3 165.909C129.92 165.909 129.573 165.878 129.261 165.815C128.948 165.759 128.715 165.696 128.562 165.628L129.175 163.54C129.641 163.665 130.056 163.719 130.42 163.702C130.783 163.685 131.104 163.548 131.383 163.293C131.667 163.037 131.917 162.619 132.133 162.04L132.448 161.17L127.658 147.909H130.386L133.701 158.068H133.837L137.153 147.909H139.888L134.494 162.747C134.244 163.429 133.925 164.006 133.539 164.477C133.153 164.955 132.692 165.313 132.158 165.551C131.624 165.79 131.005 165.909 130.3 165.909ZM142.283 161V147.909H144.729V150.04H144.891C145.164 149.318 145.61 148.756 146.229 148.352C146.849 147.943 147.59 147.739 148.454 147.739C149.329 147.739 150.062 147.943 150.653 148.352C151.249 148.761 151.69 149.324 151.974 150.04H152.11C152.423 149.341 152.92 148.784 153.602 148.369C154.283 147.949 155.096 147.739 156.039 147.739C157.227 147.739 158.195 148.111 158.945 148.855C159.701 149.599 160.079 150.722 160.079 152.222V161H157.531V152.46C157.531 151.574 157.289 150.932 156.806 150.534C156.323 150.136 155.746 149.938 155.076 149.938C154.246 149.938 153.602 150.193 153.141 150.705C152.681 151.21 152.451 151.861 152.451 152.656V161H149.911V152.298C149.911 151.588 149.69 151.017 149.246 150.585C148.803 150.153 148.227 149.938 147.516 149.938C147.033 149.938 146.587 150.065 146.178 150.321C145.775 150.571 145.448 150.92 145.198 151.369C144.954 151.818 144.832 152.338 144.832 152.929V161H142.283Z" fill="black"/>
</g>
</g>
</svg>
