<svg width="979" height="653" viewBox="0 0 979 653" fill="none" xmlns="http://www.w3.org/2000/svg">
<g id="FirstFloor">
<rect width="979" height="653" fill="white"/>
<g id="AllWalls">
<path d="M73 484.5V612H217H369H527M73 484.5H198.5M73 484.5V360M198.5 484.5H527M198.5 484.5V360H73M527 484.5V612M527 484.5H571M527 612H615.5M615.5 310H732.5H760.5H905.5V461V612H732.5H615.5M615.5 310V612M615.5 310H457.5M457.5 310V436.5H314.5H244.5V400.5V310V230M457.5 310H393.5V230M244.5 230H393.5M244.5 230V186H198.5V274M393.5 230V186V158V42H217H73V158V186V274M73 360V274M198.5 274H73M198.5 274V320.5" stroke="black" stroke-width="5"/>
<path d="M73 484.5V612H217H369H527M73 484.5H198.5M73 484.5V360M198.5 484.5H527M198.5 484.5V360H73M527 484.5V612M527 484.5H571M527 612H615.5M615.5 310H732.5H760.5H905.5V461V612H732.5H615.5M615.5 310V612M615.5 310H457.5M457.5 310V436.5H314.5H244.5V400.5V310V230M457.5 310H393.5V230M244.5 230H393.5M244.5 230V186H198.5V274M393.5 230V186V158V42H217H73V158V186V274M73 360V274M198.5 274H73M198.5 274V320.5" stroke="black" stroke-width="5"/>
</g>
<g id="Room-Hallway-1">
<path fill-rule="evenodd" clip-rule="evenodd" d="M527 484.5H198.5V360H73V274H198.5V186H244.5V230V310V400.5V436.5H314.5H457.5V310H615.5V612H527V484.5Z" fill="#0F52BA" fill-opacity="0.25"/>
<path fill-rule="evenodd" clip-rule="evenodd" d="M527 484.5H198.5V360H73V274H198.5V186H244.5V230V310V400.5V436.5H314.5H457.5V310H615.5V612H527V484.5Z" stroke="black" stroke-width="5"/>
<path fill-rule="evenodd" clip-rule="evenodd" d="M527 484.5H198.5V360H73V274H198.5V186H244.5V230V310V400.5V436.5H314.5H457.5V310H615.5V612H527V484.5Z" stroke="black" stroke-width="5"/>
</g>
<g id="Room-composite">
<g id="Composite">
<path fill-rule="evenodd" clip-rule="evenodd" d="M393.5 230H244.5V186H198.5V274H73V186V158V42H217H393.5V158V186V230Z" fill="#0F52BA" fill-opacity="0.25"/>
<path fill-rule="evenodd" clip-rule="evenodd" d="M393.5 230H244.5V186H198.5V274H73V186V158V42H217H393.5V158V186V230Z" stroke="black" stroke-width="5"/>
<path fill-rule="evenodd" clip-rule="evenodd" d="M393.5 230H244.5V186H198.5V274H73V186V158V42H217H393.5V158V186V230Z" stroke="black" stroke-width="5"/>
</g>
<path id="Composite_2" d="M173.415 116.222H170.756C170.653 115.653 170.463 115.153 170.185 114.722C169.906 114.29 169.565 113.923 169.162 113.622C168.759 113.321 168.307 113.094 167.807 112.94C167.313 112.787 166.787 112.71 166.23 112.71C165.224 112.71 164.324 112.963 163.528 113.469C162.739 113.974 162.114 114.716 161.653 115.693C161.199 116.67 160.972 117.864 160.972 119.273C160.972 120.693 161.199 121.892 161.653 122.869C162.114 123.847 162.741 124.585 163.537 125.085C164.332 125.585 165.227 125.835 166.222 125.835C166.773 125.835 167.295 125.761 167.79 125.614C168.29 125.46 168.741 125.236 169.145 124.94C169.548 124.645 169.889 124.284 170.168 123.858C170.452 123.426 170.648 122.932 170.756 122.375L173.415 122.384C173.273 123.241 172.997 124.031 172.588 124.753C172.185 125.469 171.665 126.088 171.028 126.611C170.398 127.128 169.676 127.528 168.864 127.812C168.051 128.097 167.165 128.239 166.205 128.239C164.693 128.239 163.347 127.881 162.165 127.165C160.983 126.443 160.051 125.412 159.369 124.071C158.693 122.73 158.355 121.131 158.355 119.273C158.355 117.409 158.696 115.81 159.378 114.474C160.06 113.134 160.991 112.105 162.173 111.389C163.355 110.668 164.699 110.307 166.205 110.307C167.131 110.307 167.994 110.44 168.795 110.707C169.602 110.969 170.327 111.355 170.969 111.866C171.611 112.372 172.142 112.991 172.562 113.724C172.983 114.452 173.267 115.284 173.415 116.222ZM181.876 128.264C180.648 128.264 179.577 127.983 178.663 127.42C177.748 126.858 177.038 126.071 176.532 125.06C176.026 124.048 175.773 122.866 175.773 121.514C175.773 120.156 176.026 118.969 176.532 117.952C177.038 116.935 177.748 116.145 178.663 115.582C179.577 115.02 180.648 114.739 181.876 114.739C183.103 114.739 184.174 115.02 185.089 115.582C186.004 116.145 186.714 116.935 187.219 117.952C187.725 118.969 187.978 120.156 187.978 121.514C187.978 122.866 187.725 124.048 187.219 125.06C186.714 126.071 186.004 126.858 185.089 127.42C184.174 127.983 183.103 128.264 181.876 128.264ZM181.884 126.125C182.68 126.125 183.339 125.915 183.862 125.494C184.384 125.074 184.771 124.514 185.021 123.815C185.276 123.116 185.404 122.347 185.404 121.506C185.404 120.67 185.276 119.903 185.021 119.205C184.771 118.5 184.384 117.935 183.862 117.509C183.339 117.082 182.68 116.869 181.884 116.869C181.083 116.869 180.418 117.082 179.89 117.509C179.367 117.935 178.978 118.5 178.722 119.205C178.472 119.903 178.347 120.67 178.347 121.506C178.347 122.347 178.472 123.116 178.722 123.815C178.978 124.514 179.367 125.074 179.89 125.494C180.418 125.915 181.083 126.125 181.884 126.125ZM190.822 128V114.909H193.268V117.04H193.43C193.703 116.318 194.149 115.756 194.768 115.352C195.388 114.943 196.129 114.739 196.993 114.739C197.868 114.739 198.601 114.943 199.192 115.352C199.788 115.761 200.229 116.324 200.513 117.04H200.649C200.962 116.341 201.459 115.784 202.141 115.369C202.822 114.949 203.635 114.739 204.578 114.739C205.766 114.739 206.734 115.111 207.484 115.855C208.24 116.599 208.618 117.722 208.618 119.222V128H206.07V119.46C206.07 118.574 205.828 117.932 205.345 117.534C204.862 117.136 204.286 116.938 203.615 116.938C202.786 116.938 202.141 117.193 201.68 117.705C201.22 118.21 200.99 118.861 200.99 119.656V128H198.45V119.298C198.45 118.588 198.229 118.017 197.786 117.585C197.342 117.153 196.766 116.938 196.055 116.938C195.572 116.938 195.126 117.065 194.717 117.321C194.314 117.571 193.987 117.92 193.737 118.369C193.493 118.818 193.371 119.338 193.371 119.929V128H190.822ZM212.033 132.909V114.909H214.522V117.031H214.735C214.883 116.759 215.096 116.443 215.374 116.085C215.653 115.727 216.039 115.415 216.533 115.148C217.028 114.875 217.681 114.739 218.494 114.739C219.55 114.739 220.494 115.006 221.323 115.54C222.153 116.074 222.803 116.844 223.275 117.849C223.752 118.855 223.991 120.065 223.991 121.48C223.991 122.895 223.755 124.108 223.283 125.119C222.812 126.125 222.164 126.901 221.34 127.446C220.516 127.986 219.576 128.256 218.519 128.256C217.724 128.256 217.073 128.122 216.567 127.855C216.067 127.588 215.675 127.276 215.391 126.918C215.107 126.56 214.888 126.241 214.735 125.963H214.582V132.909H212.033ZM214.531 121.455C214.531 122.375 214.664 123.182 214.931 123.875C215.198 124.568 215.585 125.111 216.09 125.503C216.596 125.889 217.215 126.082 217.948 126.082C218.71 126.082 219.346 125.881 219.857 125.477C220.369 125.068 220.755 124.514 221.016 123.815C221.283 123.116 221.417 122.33 221.417 121.455C221.417 120.591 221.286 119.815 221.025 119.128C220.769 118.44 220.383 117.898 219.866 117.5C219.354 117.102 218.715 116.903 217.948 116.903C217.21 116.903 216.585 117.094 216.073 117.474C215.567 117.855 215.184 118.386 214.923 119.068C214.661 119.75 214.531 120.545 214.531 121.455ZM232.36 128.264C231.133 128.264 230.062 127.983 229.147 127.42C228.232 126.858 227.522 126.071 227.016 125.06C226.511 124.048 226.258 122.866 226.258 121.514C226.258 120.156 226.511 118.969 227.016 117.952C227.522 116.935 228.232 116.145 229.147 115.582C230.062 115.02 231.133 114.739 232.36 114.739C233.587 114.739 234.658 115.02 235.573 115.582C236.488 116.145 237.198 116.935 237.704 117.952C238.21 118.969 238.462 120.156 238.462 121.514C238.462 122.866 238.21 124.048 237.704 125.06C237.198 126.071 236.488 126.858 235.573 127.42C234.658 127.983 233.587 128.264 232.36 128.264ZM232.369 126.125C233.164 126.125 233.823 125.915 234.346 125.494C234.869 125.074 235.255 124.514 235.505 123.815C235.761 123.116 235.888 122.347 235.888 121.506C235.888 120.67 235.761 119.903 235.505 119.205C235.255 118.5 234.869 117.935 234.346 117.509C233.823 117.082 233.164 116.869 232.369 116.869C231.567 116.869 230.903 117.082 230.374 117.509C229.852 117.935 229.462 118.5 229.207 119.205C228.957 119.903 228.832 120.67 228.832 121.506C228.832 122.347 228.957 123.116 229.207 123.815C229.462 124.514 229.852 125.074 230.374 125.494C230.903 125.915 231.567 126.125 232.369 126.125ZM251.116 118.105L248.807 118.514C248.71 118.219 248.557 117.937 248.347 117.67C248.142 117.403 247.864 117.185 247.511 117.014C247.159 116.844 246.719 116.759 246.19 116.759C245.469 116.759 244.866 116.92 244.384 117.244C243.901 117.562 243.659 117.974 243.659 118.48C243.659 118.918 243.821 119.27 244.145 119.537C244.469 119.804 244.991 120.023 245.713 120.193L247.793 120.67C248.997 120.949 249.895 121.378 250.486 121.957C251.077 122.537 251.372 123.29 251.372 124.216C251.372 125 251.145 125.699 250.69 126.312C250.241 126.92 249.614 127.398 248.807 127.744C248.006 128.091 247.077 128.264 246.02 128.264C244.554 128.264 243.358 127.952 242.432 127.327C241.506 126.696 240.938 125.801 240.727 124.642L243.19 124.267C243.344 124.909 243.659 125.395 244.136 125.724C244.614 126.048 245.236 126.21 246.003 126.21C246.838 126.21 247.506 126.037 248.006 125.69C248.506 125.338 248.756 124.909 248.756 124.403C248.756 123.994 248.602 123.651 248.295 123.372C247.994 123.094 247.531 122.884 246.906 122.741L244.69 122.256C243.469 121.977 242.565 121.534 241.98 120.926C241.401 120.318 241.111 119.548 241.111 118.616C241.111 117.844 241.327 117.168 241.759 116.588C242.19 116.009 242.787 115.557 243.548 115.233C244.31 114.903 245.182 114.739 246.165 114.739C247.58 114.739 248.693 115.045 249.506 115.659C250.318 116.267 250.855 117.082 251.116 118.105ZM254.174 128V114.909H256.722V128H254.174ZM255.461 112.889C255.018 112.889 254.637 112.741 254.319 112.446C254.006 112.145 253.85 111.787 253.85 111.372C253.85 110.952 254.006 110.594 254.319 110.298C254.637 109.997 255.018 109.847 255.461 109.847C255.904 109.847 256.282 109.997 256.594 110.298C256.913 110.594 257.072 110.952 257.072 111.372C257.072 111.787 256.913 112.145 256.594 112.446C256.282 112.741 255.904 112.889 255.461 112.889ZM266.261 114.909V116.955H259.111V114.909H266.261ZM261.028 111.773H263.577V124.156C263.577 124.651 263.651 125.023 263.798 125.273C263.946 125.517 264.136 125.685 264.369 125.776C264.608 125.861 264.866 125.903 265.145 125.903C265.349 125.903 265.528 125.889 265.682 125.861C265.835 125.832 265.955 125.81 266.04 125.793L266.5 127.898C266.352 127.955 266.142 128.011 265.869 128.068C265.597 128.131 265.256 128.165 264.847 128.17C264.176 128.182 263.551 128.062 262.972 127.812C262.392 127.562 261.923 127.176 261.565 126.653C261.207 126.131 261.028 125.474 261.028 124.685V111.773ZM274.582 128.264C273.292 128.264 272.181 127.989 271.249 127.438C270.323 126.881 269.607 126.099 269.102 125.094C268.602 124.082 268.352 122.898 268.352 121.54C268.352 120.199 268.602 119.017 269.102 117.994C269.607 116.972 270.312 116.173 271.215 115.599C272.124 115.026 273.187 114.739 274.403 114.739C275.141 114.739 275.857 114.861 276.55 115.105C277.244 115.349 277.866 115.733 278.417 116.256C278.968 116.778 279.403 117.457 279.721 118.293C280.039 119.122 280.198 120.131 280.198 121.318V122.222H269.792V120.312H277.701C277.701 119.642 277.565 119.048 277.292 118.531C277.019 118.009 276.636 117.597 276.141 117.295C275.653 116.994 275.079 116.844 274.42 116.844C273.704 116.844 273.079 117.02 272.545 117.372C272.016 117.719 271.607 118.173 271.317 118.736C271.033 119.293 270.891 119.898 270.891 120.551V122.043C270.891 122.918 271.045 123.662 271.352 124.276C271.664 124.889 272.099 125.358 272.656 125.682C273.212 126 273.863 126.159 274.607 126.159C275.09 126.159 275.531 126.091 275.928 125.955C276.326 125.812 276.67 125.602 276.96 125.324C277.249 125.045 277.471 124.702 277.624 124.293L280.036 124.727C279.843 125.437 279.496 126.06 278.996 126.594C278.502 127.122 277.88 127.534 277.13 127.83C276.386 128.119 275.536 128.264 274.582 128.264Z" fill="black"/>
</g>
<g id="Room-laundry">
<g id="Laundry">
<path fill-rule="evenodd" clip-rule="evenodd" d="M198.5 484.5H73V360H198.5V484.5Z" fill="#0F52BA" fill-opacity="0.25"/>
<path fill-rule="evenodd" clip-rule="evenodd" d="M198.5 484.5H73V360H198.5V484.5Z" stroke="black" stroke-width="5"/>
<path fill-rule="evenodd" clip-rule="evenodd" d="M198.5 484.5H73V360H198.5V484.5Z" stroke="black" stroke-width="5"/>
</g>
<path id="Laundry_2" d="M87.9176 425V407.545H90.5511V422.733H98.4602V425H87.9176ZM105.07 425.29C104.24 425.29 103.49 425.136 102.82 424.83C102.149 424.517 101.618 424.065 101.226 423.474C100.839 422.884 100.646 422.159 100.646 421.301C100.646 420.562 100.788 419.955 101.072 419.477C101.357 419 101.74 418.622 102.223 418.344C102.706 418.065 103.246 417.855 103.842 417.713C104.439 417.571 105.047 417.463 105.666 417.389C106.45 417.298 107.087 417.224 107.575 417.168C108.064 417.105 108.419 417.006 108.641 416.869C108.862 416.733 108.973 416.511 108.973 416.205V416.145C108.973 415.401 108.763 414.824 108.342 414.415C107.928 414.006 107.308 413.801 106.484 413.801C105.626 413.801 104.95 413.991 104.456 414.372C103.967 414.747 103.629 415.165 103.442 415.625L101.047 415.08C101.331 414.284 101.746 413.642 102.291 413.153C102.842 412.659 103.476 412.301 104.192 412.08C104.908 411.852 105.661 411.739 106.45 411.739C106.973 411.739 107.527 411.801 108.112 411.926C108.703 412.045 109.254 412.267 109.766 412.591C110.283 412.915 110.706 413.378 111.036 413.98C111.365 414.577 111.53 415.352 111.53 416.307V425H109.041V423.21H108.939C108.774 423.54 108.527 423.864 108.197 424.182C107.868 424.5 107.445 424.764 106.928 424.974C106.411 425.185 105.791 425.29 105.07 425.29ZM105.624 423.244C106.328 423.244 106.93 423.105 107.43 422.827C107.936 422.548 108.32 422.185 108.581 421.736C108.848 421.281 108.982 420.795 108.982 420.278V418.591C108.891 418.682 108.714 418.767 108.453 418.847C108.197 418.92 107.905 418.986 107.575 419.043C107.246 419.094 106.925 419.142 106.612 419.188C106.3 419.227 106.038 419.261 105.828 419.29C105.334 419.352 104.882 419.457 104.473 419.605C104.07 419.753 103.746 419.966 103.501 420.244C103.263 420.517 103.143 420.881 103.143 421.335C103.143 421.966 103.376 422.443 103.842 422.767C104.308 423.085 104.902 423.244 105.624 423.244ZM123.217 419.571V411.909H125.773V425H123.268V422.733H123.131C122.83 423.432 122.347 424.014 121.683 424.48C121.023 424.94 120.202 425.17 119.219 425.17C118.379 425.17 117.634 424.986 116.987 424.616C116.344 424.241 115.839 423.688 115.469 422.955C115.106 422.222 114.924 421.315 114.924 420.236V411.909H117.472V419.929C117.472 420.821 117.719 421.531 118.214 422.06C118.708 422.588 119.35 422.852 120.14 422.852C120.617 422.852 121.092 422.733 121.563 422.494C122.04 422.256 122.435 421.895 122.748 421.412C123.066 420.929 123.222 420.315 123.217 419.571ZM131.746 417.227V425H129.197V411.909H131.643V414.04H131.805C132.107 413.347 132.578 412.79 133.22 412.369C133.868 411.949 134.683 411.739 135.666 411.739C136.558 411.739 137.339 411.926 138.01 412.301C138.68 412.67 139.2 413.222 139.57 413.955C139.939 414.687 140.124 415.594 140.124 416.673V425H137.575V416.98C137.575 416.031 137.328 415.29 136.834 414.756C136.339 414.216 135.661 413.946 134.797 413.946C134.206 413.946 133.68 414.074 133.22 414.33C132.766 414.585 132.405 414.96 132.138 415.455C131.876 415.943 131.746 416.534 131.746 417.227ZM148.442 425.256C147.385 425.256 146.442 424.986 145.612 424.446C144.788 423.901 144.141 423.125 143.669 422.119C143.203 421.108 142.97 419.895 142.97 418.48C142.97 417.065 143.206 415.855 143.678 414.849C144.155 413.844 144.808 413.074 145.638 412.54C146.467 412.006 147.408 411.739 148.459 411.739C149.271 411.739 149.925 411.875 150.419 412.148C150.919 412.415 151.305 412.727 151.578 413.085C151.857 413.443 152.072 413.759 152.226 414.031H152.379V407.545H154.928V425H152.439V422.963H152.226C152.072 423.241 151.851 423.56 151.561 423.918C151.277 424.276 150.885 424.588 150.385 424.855C149.885 425.122 149.237 425.256 148.442 425.256ZM149.004 423.082C149.737 423.082 150.357 422.889 150.862 422.503C151.374 422.111 151.76 421.568 152.021 420.875C152.288 420.182 152.422 419.375 152.422 418.455C152.422 417.545 152.291 416.75 152.03 416.068C151.768 415.386 151.385 414.855 150.879 414.474C150.374 414.094 149.749 413.903 149.004 413.903C148.237 413.903 147.598 414.102 147.087 414.5C146.575 414.898 146.189 415.44 145.928 416.128C145.672 416.815 145.544 417.591 145.544 418.455C145.544 419.33 145.675 420.116 145.936 420.815C146.197 421.514 146.584 422.068 147.095 422.477C147.612 422.881 148.249 423.082 149.004 423.082ZM158.565 425V411.909H161.028V413.989H161.164C161.403 413.284 161.823 412.73 162.425 412.327C163.033 411.918 163.721 411.713 164.488 411.713C164.647 411.713 164.835 411.719 165.05 411.73C165.272 411.741 165.445 411.756 165.57 411.773V414.21C165.468 414.182 165.286 414.151 165.025 414.116C164.763 414.077 164.502 414.057 164.241 414.057C163.638 414.057 163.102 414.185 162.63 414.44C162.164 414.69 161.795 415.04 161.522 415.489C161.249 415.932 161.113 416.437 161.113 417.006V425H158.565ZM169.785 429.909C169.404 429.909 169.058 429.878 168.745 429.815C168.433 429.759 168.2 429.696 168.046 429.628L168.66 427.54C169.126 427.665 169.54 427.719 169.904 427.702C170.268 427.685 170.589 427.548 170.867 427.293C171.151 427.037 171.401 426.619 171.617 426.04L171.933 425.17L167.143 411.909H169.87L173.185 422.068H173.322L176.637 411.909H179.373L173.978 426.747C173.728 427.429 173.41 428.006 173.023 428.477C172.637 428.955 172.177 429.313 171.643 429.551C171.109 429.79 170.489 429.909 169.785 429.909Z" fill="black"/>
</g>
<g id="Room-bathroom-1">
<g id="Bathroom-1">
<path fill-rule="evenodd" clip-rule="evenodd" d="M457.5 310V436.5H314.5H244.5V400.5V310V230H393.5V310H457.5Z" fill="#0F52BA" fill-opacity="0.25"/>
<path fill-rule="evenodd" clip-rule="evenodd" d="M457.5 310V436.5H314.5H244.5V400.5V310V230H393.5V310H457.5Z" stroke="black" stroke-width="5"/>
<path fill-rule="evenodd" clip-rule="evenodd" d="M457.5 310V436.5H314.5H244.5V400.5V310V230H393.5V310H457.5Z" stroke="black" stroke-width="5"/>
</g>
<path id="Bathroom-1_2" d="M292.918 356V338.545H299.31C300.548 338.545 301.574 338.75 302.386 339.159C303.199 339.562 303.807 340.111 304.21 340.804C304.614 341.491 304.815 342.267 304.815 343.131C304.815 343.858 304.682 344.472 304.415 344.972C304.148 345.466 303.79 345.864 303.341 346.165C302.898 346.46 302.409 346.676 301.875 346.812V346.983C302.455 347.011 303.02 347.199 303.571 347.545C304.128 347.886 304.588 348.372 304.952 349.003C305.315 349.634 305.497 350.401 305.497 351.304C305.497 352.196 305.287 352.997 304.866 353.707C304.452 354.412 303.81 354.972 302.94 355.386C302.071 355.795 300.96 356 299.608 356H292.918ZM295.551 353.741H299.352C300.614 353.741 301.517 353.497 302.062 353.009C302.608 352.52 302.881 351.909 302.881 351.176C302.881 350.625 302.741 350.119 302.463 349.659C302.185 349.199 301.787 348.832 301.27 348.56C300.759 348.287 300.151 348.151 299.446 348.151H295.551V353.741ZM295.551 346.097H299.08C299.67 346.097 300.202 345.983 300.673 345.756C301.151 345.528 301.528 345.21 301.807 344.801C302.091 344.386 302.233 343.898 302.233 343.335C302.233 342.614 301.98 342.009 301.474 341.52C300.969 341.031 300.193 340.787 299.148 340.787H295.551V346.097ZM312.226 356.29C311.396 356.29 310.646 356.136 309.976 355.83C309.305 355.517 308.774 355.065 308.382 354.474C307.996 353.884 307.803 353.159 307.803 352.301C307.803 351.562 307.945 350.955 308.229 350.477C308.513 350 308.896 349.622 309.379 349.344C309.862 349.065 310.402 348.855 310.999 348.713C311.595 348.571 312.203 348.463 312.822 348.389C313.607 348.298 314.243 348.224 314.732 348.168C315.22 348.105 315.575 348.006 315.797 347.869C316.018 347.733 316.129 347.511 316.129 347.205V347.145C316.129 346.401 315.919 345.824 315.499 345.415C315.084 345.006 314.464 344.801 313.641 344.801C312.783 344.801 312.107 344.991 311.612 345.372C311.124 345.747 310.786 346.165 310.598 346.625L308.203 346.08C308.487 345.284 308.902 344.642 309.447 344.153C309.999 343.659 310.632 343.301 311.348 343.08C312.064 342.852 312.817 342.739 313.607 342.739C314.129 342.739 314.683 342.801 315.268 342.926C315.859 343.045 316.411 343.267 316.922 343.591C317.439 343.915 317.862 344.378 318.192 344.98C318.521 345.577 318.686 346.352 318.686 347.307V356H316.197V354.21H316.095C315.93 354.54 315.683 354.864 315.354 355.182C315.024 355.5 314.601 355.764 314.084 355.974C313.567 356.185 312.947 356.29 312.226 356.29ZM312.78 354.244C313.484 354.244 314.087 354.105 314.587 353.827C315.092 353.548 315.476 353.185 315.737 352.736C316.004 352.281 316.138 351.795 316.138 351.278V349.591C316.047 349.682 315.871 349.767 315.609 349.847C315.354 349.92 315.061 349.986 314.732 350.043C314.402 350.094 314.081 350.142 313.768 350.188C313.456 350.227 313.195 350.261 312.984 350.29C312.49 350.352 312.038 350.457 311.629 350.605C311.226 350.753 310.902 350.966 310.658 351.244C310.419 351.517 310.3 351.881 310.3 352.335C310.3 352.966 310.533 353.443 310.999 353.767C311.464 354.085 312.058 354.244 312.78 354.244ZM328.191 342.909V344.955H321.04V342.909H328.191ZM322.958 339.773H325.506V352.156C325.506 352.651 325.58 353.023 325.728 353.273C325.876 353.517 326.066 353.685 326.299 353.776C326.538 353.861 326.796 353.903 327.075 353.903C327.279 353.903 327.458 353.889 327.612 353.861C327.765 353.832 327.884 353.81 327.969 353.793L328.43 355.898C328.282 355.955 328.072 356.011 327.799 356.068C327.526 356.131 327.185 356.165 326.776 356.17C326.106 356.182 325.481 356.062 324.901 355.812C324.322 355.562 323.853 355.176 323.495 354.653C323.137 354.131 322.958 353.474 322.958 352.685V339.773ZM333.839 348.227V356H331.291V338.545H333.805V345.04H333.967C334.274 344.335 334.743 343.776 335.374 343.361C336.004 342.946 336.828 342.739 337.845 342.739C338.743 342.739 339.527 342.923 340.197 343.293C340.874 343.662 341.396 344.213 341.766 344.946C342.141 345.673 342.328 346.582 342.328 347.673V356H339.78V347.98C339.78 347.02 339.533 346.276 339.038 345.747C338.544 345.213 337.857 344.946 336.976 344.946C336.374 344.946 335.834 345.074 335.357 345.33C334.885 345.585 334.513 345.96 334.24 346.455C333.973 346.943 333.839 347.534 333.839 348.227ZM345.729 356V342.909H348.192V344.989H348.328C348.567 344.284 348.987 343.73 349.589 343.327C350.197 342.918 350.885 342.713 351.652 342.713C351.811 342.713 351.999 342.719 352.214 342.73C352.436 342.741 352.609 342.756 352.734 342.773V345.21C352.632 345.182 352.45 345.151 352.189 345.116C351.928 345.077 351.666 345.057 351.405 345.057C350.803 345.057 350.266 345.185 349.794 345.44C349.328 345.69 348.959 346.04 348.686 346.489C348.413 346.932 348.277 347.437 348.277 348.006V356H345.729ZM359.985 356.264C358.758 356.264 357.687 355.983 356.772 355.42C355.857 354.858 355.147 354.071 354.641 353.06C354.136 352.048 353.883 350.866 353.883 349.514C353.883 348.156 354.136 346.969 354.641 345.952C355.147 344.935 355.857 344.145 356.772 343.582C357.687 343.02 358.758 342.739 359.985 342.739C361.212 342.739 362.283 343.02 363.198 343.582C364.113 344.145 364.823 344.935 365.329 345.952C365.835 346.969 366.087 348.156 366.087 349.514C366.087 350.866 365.835 352.048 365.329 353.06C364.823 354.071 364.113 354.858 363.198 355.42C362.283 355.983 361.212 356.264 359.985 356.264ZM359.994 354.125C360.789 354.125 361.448 353.915 361.971 353.494C362.494 353.074 362.88 352.514 363.13 351.815C363.386 351.116 363.513 350.347 363.513 349.506C363.513 348.67 363.386 347.903 363.13 347.205C362.88 346.5 362.494 345.935 361.971 345.509C361.448 345.082 360.789 344.869 359.994 344.869C359.192 344.869 358.528 345.082 357.999 345.509C357.477 345.935 357.087 346.5 356.832 347.205C356.582 347.903 356.457 348.67 356.457 349.506C356.457 350.347 356.582 351.116 356.832 351.815C357.087 352.514 357.477 353.074 357.999 353.494C358.528 353.915 359.192 354.125 359.994 354.125ZM374.446 356.264C373.219 356.264 372.148 355.983 371.233 355.42C370.318 354.858 369.608 354.071 369.102 353.06C368.597 352.048 368.344 350.866 368.344 349.514C368.344 348.156 368.597 346.969 369.102 345.952C369.608 344.935 370.318 344.145 371.233 343.582C372.148 343.02 373.219 342.739 374.446 342.739C375.673 342.739 376.744 343.02 377.659 343.582C378.574 344.145 379.284 344.935 379.79 345.952C380.295 346.969 380.548 348.156 380.548 349.514C380.548 350.866 380.295 352.048 379.79 353.06C379.284 354.071 378.574 354.858 377.659 355.42C376.744 355.983 375.673 356.264 374.446 356.264ZM374.455 354.125C375.25 354.125 375.909 353.915 376.432 353.494C376.955 353.074 377.341 352.514 377.591 351.815C377.847 351.116 377.974 350.347 377.974 349.506C377.974 348.67 377.847 347.903 377.591 347.205C377.341 346.5 376.955 345.935 376.432 345.509C375.909 345.082 375.25 344.869 374.455 344.869C373.653 344.869 372.989 345.082 372.46 345.509C371.938 345.935 371.548 346.5 371.293 347.205C371.043 347.903 370.918 348.67 370.918 349.506C370.918 350.347 371.043 351.116 371.293 351.815C371.548 352.514 371.938 353.074 372.46 353.494C372.989 353.915 373.653 354.125 374.455 354.125ZM383.393 356V342.909H385.839V345.04H386.001C386.273 344.318 386.719 343.756 387.339 343.352C387.958 342.943 388.7 342.739 389.563 342.739C390.438 342.739 391.171 342.943 391.762 343.352C392.359 343.761 392.799 344.324 393.083 345.04H393.219C393.532 344.341 394.029 343.784 394.711 343.369C395.393 342.949 396.205 342.739 397.148 342.739C398.336 342.739 399.305 343.111 400.055 343.855C400.81 344.599 401.188 345.722 401.188 347.222V356H398.64V347.46C398.64 346.574 398.398 345.932 397.915 345.534C397.433 345.136 396.856 344.938 396.185 344.938C395.356 344.938 394.711 345.193 394.251 345.705C393.79 346.21 393.56 346.861 393.56 347.656V356H391.021V347.298C391.021 346.588 390.799 346.017 390.356 345.585C389.913 345.153 389.336 344.938 388.626 344.938C388.143 344.938 387.697 345.065 387.288 345.321C386.884 345.571 386.558 345.92 386.308 346.369C386.063 346.818 385.941 347.338 385.941 347.929V356H383.393Z" fill="black"/>
</g>
<g id="Room-poker">
<g id="Poker">
<path fill-rule="evenodd" clip-rule="evenodd" d="M217 612H73V484.5H198.5H527V612H369H217Z" fill="#0F52BA" fill-opacity="0.25"/>
<path fill-rule="evenodd" clip-rule="evenodd" d="M217 612H73V484.5H198.5H527V612H369H217Z" stroke="black" stroke-width="5"/>
<path fill-rule="evenodd" clip-rule="evenodd" d="M217 612H73V484.5H198.5H527V612H369H217Z" stroke="black" stroke-width="5"/>
</g>
<path id="Poker_2" d="M269.918 555V537.545H276.139C277.497 537.545 278.622 537.793 279.514 538.287C280.406 538.781 281.074 539.457 281.517 540.315C281.96 541.168 282.182 542.128 282.182 543.196C282.182 544.27 281.957 545.236 281.509 546.094C281.065 546.946 280.395 547.622 279.497 548.122C278.605 548.616 277.483 548.864 276.131 548.864H271.852V546.631H275.892C276.75 546.631 277.446 546.483 277.98 546.188C278.514 545.886 278.906 545.477 279.156 544.96C279.406 544.443 279.531 543.855 279.531 543.196C279.531 542.537 279.406 541.952 279.156 541.44C278.906 540.929 278.511 540.528 277.972 540.239C277.438 539.949 276.733 539.804 275.858 539.804H272.551V555H269.918ZM290.415 555.264C289.188 555.264 288.116 554.983 287.202 554.42C286.287 553.858 285.577 553.071 285.071 552.06C284.565 551.048 284.312 549.866 284.312 548.514C284.312 547.156 284.565 545.969 285.071 544.952C285.577 543.935 286.287 543.145 287.202 542.582C288.116 542.02 289.188 541.739 290.415 541.739C291.642 541.739 292.713 542.02 293.628 542.582C294.543 543.145 295.253 543.935 295.759 544.952C296.264 545.969 296.517 547.156 296.517 548.514C296.517 549.866 296.264 551.048 295.759 552.06C295.253 553.071 294.543 553.858 293.628 554.42C292.713 554.983 291.642 555.264 290.415 555.264ZM290.423 553.125C291.219 553.125 291.878 552.915 292.401 552.494C292.923 552.074 293.31 551.514 293.56 550.815C293.815 550.116 293.943 549.347 293.943 548.506C293.943 547.67 293.815 546.903 293.56 546.205C293.31 545.5 292.923 544.935 292.401 544.509C291.878 544.082 291.219 543.869 290.423 543.869C289.622 543.869 288.957 544.082 288.429 544.509C287.906 544.935 287.517 545.5 287.261 546.205C287.011 546.903 286.886 547.67 286.886 548.506C286.886 549.347 287.011 550.116 287.261 550.815C287.517 551.514 287.906 552.074 288.429 552.494C288.957 552.915 289.622 553.125 290.423 553.125ZM301.705 550.56L301.688 547.449H302.131L307.347 541.909H310.398L304.45 548.216H304.049L301.705 550.56ZM299.362 555V537.545H301.91V555H299.362ZM307.629 555L302.941 548.778L304.697 546.997L310.756 555H307.629ZM317.824 555.264C316.534 555.264 315.423 554.989 314.491 554.438C313.565 553.881 312.849 553.099 312.344 552.094C311.844 551.082 311.594 549.898 311.594 548.54C311.594 547.199 311.844 546.017 312.344 544.994C312.849 543.972 313.554 543.173 314.457 542.599C315.366 542.026 316.429 541.739 317.645 541.739C318.384 541.739 319.099 541.861 319.793 542.105C320.486 542.349 321.108 542.733 321.659 543.256C322.21 543.778 322.645 544.457 322.963 545.293C323.281 546.122 323.44 547.131 323.44 548.318V549.222H313.034V547.312H320.943C320.943 546.642 320.807 546.048 320.534 545.531C320.261 545.009 319.878 544.597 319.384 544.295C318.895 543.994 318.321 543.844 317.662 543.844C316.946 543.844 316.321 544.02 315.787 544.372C315.259 544.719 314.849 545.173 314.56 545.736C314.276 546.293 314.134 546.898 314.134 547.551V549.043C314.134 549.918 314.287 550.662 314.594 551.276C314.906 551.889 315.341 552.358 315.898 552.682C316.455 553 317.105 553.159 317.849 553.159C318.332 553.159 318.773 553.091 319.17 552.955C319.568 552.812 319.912 552.602 320.202 552.324C320.491 552.045 320.713 551.702 320.866 551.293L323.278 551.727C323.085 552.437 322.739 553.06 322.239 553.594C321.744 554.122 321.122 554.534 320.372 554.83C319.628 555.119 318.778 555.264 317.824 555.264ZM326.268 555V541.909H328.731V543.989H328.867C329.106 543.284 329.526 542.73 330.129 542.327C330.737 541.918 331.424 541.713 332.191 541.713C332.35 541.713 332.538 541.719 332.754 541.73C332.975 541.741 333.148 541.756 333.273 541.773V544.21C333.171 544.182 332.989 544.151 332.728 544.116C332.467 544.077 332.205 544.057 331.944 544.057C331.342 544.057 330.805 544.185 330.333 544.44C329.867 544.69 329.498 545.04 329.225 545.489C328.952 545.932 328.816 546.437 328.816 547.006V555H326.268Z" fill="black"/>
</g>
<g id="Room-chapter">
<g id="Chapter">
<path fill-rule="evenodd" clip-rule="evenodd" d="M615.5 310H732.5H760.5H905.5V461V612H732.5H615.5V310Z" fill="#0F52BA" fill-opacity="0.25"/>
<path fill-rule="evenodd" clip-rule="evenodd" d="M615.5 310H732.5H760.5H905.5V461V612H732.5H615.5V310Z" stroke="black" stroke-width="5"/>
<path fill-rule="evenodd" clip-rule="evenodd" d="M615.5 310H732.5H760.5H905.5V461V612H732.5H615.5V310Z" stroke="black" stroke-width="5"/>
</g>
<path id="Chapter_2" d="M725.415 458.222H722.756C722.653 457.653 722.463 457.153 722.185 456.722C721.906 456.29 721.565 455.923 721.162 455.622C720.759 455.321 720.307 455.094 719.807 454.94C719.313 454.787 718.787 454.71 718.23 454.71C717.224 454.71 716.324 454.963 715.528 455.469C714.739 455.974 714.114 456.716 713.653 457.693C713.199 458.67 712.972 459.864 712.972 461.273C712.972 462.693 713.199 463.892 713.653 464.869C714.114 465.847 714.741 466.585 715.537 467.085C716.332 467.585 717.227 467.835 718.222 467.835C718.773 467.835 719.295 467.761 719.79 467.614C720.29 467.46 720.741 467.236 721.145 466.94C721.548 466.645 721.889 466.284 722.168 465.858C722.452 465.426 722.648 464.932 722.756 464.375L725.415 464.384C725.273 465.241 724.997 466.031 724.588 466.753C724.185 467.469 723.665 468.088 723.028 468.611C722.398 469.128 721.676 469.528 720.864 469.812C720.051 470.097 719.165 470.239 718.205 470.239C716.693 470.239 715.347 469.881 714.165 469.165C712.983 468.443 712.051 467.412 711.369 466.071C710.693 464.73 710.355 463.131 710.355 461.273C710.355 459.409 710.696 457.81 711.378 456.474C712.06 455.134 712.991 454.105 714.173 453.389C715.355 452.668 716.699 452.307 718.205 452.307C719.131 452.307 719.994 452.44 720.795 452.707C721.602 452.969 722.327 453.355 722.969 453.866C723.611 454.372 724.142 454.991 724.562 455.724C724.983 456.452 725.267 457.284 725.415 458.222ZM730.91 462.227V470H728.362V452.545H730.876V459.04H731.038C731.344 458.335 731.813 457.776 732.444 457.361C733.075 456.946 733.898 456.739 734.915 456.739C735.813 456.739 736.597 456.923 737.268 457.293C737.944 457.662 738.467 458.213 738.836 458.946C739.211 459.673 739.398 460.582 739.398 461.673V470H736.85V461.98C736.85 461.02 736.603 460.276 736.109 459.747C735.614 459.213 734.927 458.946 734.046 458.946C733.444 458.946 732.904 459.074 732.427 459.33C731.955 459.585 731.583 459.96 731.31 460.455C731.043 460.943 730.91 461.534 730.91 462.227ZM746.609 470.29C745.779 470.29 745.029 470.136 744.359 469.83C743.688 469.517 743.157 469.065 742.765 468.474C742.379 467.884 742.185 467.159 742.185 466.301C742.185 465.562 742.327 464.955 742.612 464.477C742.896 464 743.279 463.622 743.762 463.344C744.245 463.065 744.785 462.855 745.381 462.713C745.978 462.571 746.586 462.463 747.205 462.389C747.989 462.298 748.626 462.224 749.114 462.168C749.603 462.105 749.958 462.006 750.18 461.869C750.401 461.733 750.512 461.511 750.512 461.205V461.145C750.512 460.401 750.302 459.824 749.881 459.415C749.467 459.006 748.847 458.801 748.023 458.801C747.165 458.801 746.489 458.991 745.995 459.372C745.506 459.747 745.168 460.165 744.981 460.625L742.586 460.08C742.87 459.284 743.285 458.642 743.83 458.153C744.381 457.659 745.015 457.301 745.731 457.08C746.447 456.852 747.2 456.739 747.989 456.739C748.512 456.739 749.066 456.801 749.651 456.926C750.242 457.045 750.793 457.267 751.305 457.591C751.822 457.915 752.245 458.378 752.575 458.98C752.904 459.577 753.069 460.352 753.069 461.307V470H750.58V468.21H750.478C750.313 468.54 750.066 468.864 749.737 469.182C749.407 469.5 748.984 469.764 748.467 469.974C747.95 470.185 747.33 470.29 746.609 470.29ZM747.163 468.244C747.867 468.244 748.469 468.105 748.969 467.827C749.475 467.548 749.859 467.185 750.12 466.736C750.387 466.281 750.521 465.795 750.521 465.278V463.591C750.43 463.682 750.254 463.767 749.992 463.847C749.737 463.92 749.444 463.986 749.114 464.043C748.785 464.094 748.464 464.142 748.151 464.188C747.839 464.227 747.577 464.261 747.367 464.29C746.873 464.352 746.421 464.457 746.012 464.605C745.609 464.753 745.285 464.966 745.04 465.244C744.802 465.517 744.683 465.881 744.683 466.335C744.683 466.966 744.915 467.443 745.381 467.767C745.847 468.085 746.441 468.244 747.163 468.244ZM756.463 474.909V456.909H758.952V459.031H759.165C759.313 458.759 759.526 458.443 759.804 458.085C760.082 457.727 760.469 457.415 760.963 457.148C761.457 456.875 762.111 456.739 762.923 456.739C763.98 456.739 764.923 457.006 765.753 457.54C766.582 458.074 767.233 458.844 767.705 459.849C768.182 460.855 768.42 462.065 768.42 463.48C768.42 464.895 768.185 466.108 767.713 467.119C767.241 468.125 766.594 468.901 765.77 469.446C764.946 469.986 764.006 470.256 762.949 470.256C762.153 470.256 761.503 470.122 760.997 469.855C760.497 469.588 760.105 469.276 759.821 468.918C759.537 468.56 759.318 468.241 759.165 467.963H759.011V474.909H756.463ZM758.96 463.455C758.96 464.375 759.094 465.182 759.361 465.875C759.628 466.568 760.014 467.111 760.52 467.503C761.026 467.889 761.645 468.082 762.378 468.082C763.139 468.082 763.776 467.881 764.287 467.477C764.798 467.068 765.185 466.514 765.446 465.815C765.713 465.116 765.847 464.33 765.847 463.455C765.847 462.591 765.716 461.815 765.455 461.128C765.199 460.44 764.813 459.898 764.295 459.5C763.784 459.102 763.145 458.903 762.378 458.903C761.639 458.903 761.014 459.094 760.503 459.474C759.997 459.855 759.614 460.386 759.352 461.068C759.091 461.75 758.96 462.545 758.96 463.455ZM777.386 456.909V458.955H770.236V456.909H777.386ZM772.153 453.773H774.702V466.156C774.702 466.651 774.776 467.023 774.923 467.273C775.071 467.517 775.261 467.685 775.494 467.776C775.733 467.861 775.991 467.903 776.27 467.903C776.474 467.903 776.653 467.889 776.807 467.861C776.96 467.832 777.08 467.81 777.165 467.793L777.625 469.898C777.477 469.955 777.267 470.011 776.994 470.068C776.722 470.131 776.381 470.165 775.972 470.17C775.301 470.182 774.676 470.062 774.097 469.812C773.517 469.562 773.048 469.176 772.69 468.653C772.332 468.131 772.153 467.474 772.153 466.685V453.773ZM785.707 470.264C784.417 470.264 783.306 469.989 782.374 469.438C781.448 468.881 780.732 468.099 780.227 467.094C779.727 466.082 779.477 464.898 779.477 463.54C779.477 462.199 779.727 461.017 780.227 459.994C780.732 458.972 781.437 458.173 782.34 457.599C783.249 457.026 784.312 456.739 785.528 456.739C786.266 456.739 786.982 456.861 787.675 457.105C788.369 457.349 788.991 457.733 789.542 458.256C790.093 458.778 790.528 459.457 790.846 460.293C791.164 461.122 791.323 462.131 791.323 463.318V464.222H780.917V462.312H788.826C788.826 461.642 788.69 461.048 788.417 460.531C788.144 460.009 787.761 459.597 787.266 459.295C786.778 458.994 786.204 458.844 785.545 458.844C784.829 458.844 784.204 459.02 783.67 459.372C783.141 459.719 782.732 460.173 782.442 460.736C782.158 461.293 782.016 461.898 782.016 462.551V464.043C782.016 464.918 782.17 465.662 782.477 466.276C782.789 466.889 783.224 467.358 783.781 467.682C784.337 468 784.988 468.159 785.732 468.159C786.215 468.159 786.656 468.091 787.053 467.955C787.451 467.812 787.795 467.602 788.085 467.324C788.374 467.045 788.596 466.702 788.749 466.293L791.161 466.727C790.968 467.437 790.621 468.06 790.121 468.594C789.627 469.122 789.005 469.534 788.255 469.83C787.511 470.119 786.661 470.264 785.707 470.264ZM794.151 470V456.909H796.614V458.989H796.75C796.989 458.284 797.409 457.73 798.011 457.327C798.619 456.918 799.307 456.713 800.074 456.713C800.233 456.713 800.42 456.719 800.636 456.73C800.858 456.741 801.031 456.756 801.156 456.773V459.21C801.054 459.182 800.872 459.151 800.611 459.116C800.349 459.077 800.088 459.057 799.827 459.057C799.224 459.057 798.688 459.185 798.216 459.44C797.75 459.69 797.381 460.04 797.108 460.489C796.835 460.932 796.699 461.437 796.699 462.006V470H794.151Z" fill="black"/>
</g>
</g>
</svg>
