<svg width="979" height="653" viewBox="0 0 979 653" fill="none" xmlns="http://www.w3.org/2000/svg">
<g id="Frame 1">
<rect width="979" height="653" fill="white"/>
<g id="Room-Hallway-2">
<path fill-rule="evenodd" clip-rule="evenodd" d="M203.5 186V158V108H222H249.5V186V330V400.5V436.5H319.5H462.5H620.5H737.5H822.5V459V484.5H765.5H737.5H620.5V612H532V484.5H374H222H203.5V360H78V274H203.5V186Z" fill="#0F52BA" fill-opacity="0.25"/>
<path fill-rule="evenodd" clip-rule="evenodd" d="M203.5 186V158V108H222H249.5V186V330V400.5V436.5H319.5H462.5H620.5H737.5H822.5V459V484.5H765.5H737.5H620.5V612H532V484.5H374H222H203.5V360H78V274H203.5V186Z" stroke="black" stroke-width="5"/>
<path fill-rule="evenodd" clip-rule="evenodd" d="M203.5 186V158V108H222H249.5V186V330V400.5V436.5H319.5H462.5H620.5H737.5H822.5V459V484.5H765.5H737.5H620.5V612H532V484.5H374H222H203.5V360H78V274H203.5V186Z" stroke="black" stroke-width="5"/>
</g>
<g id="Room-Bathroom-2">
<g id="Bathroom-2">
<path fill-rule="evenodd" clip-rule="evenodd" d="M462.5 436.5H319.5V400.5H249.5V330H319.5V310H398.5H462.5V436.5Z" fill="#0F52BA" fill-opacity="0.25"/>
<path fill-rule="evenodd" clip-rule="evenodd" d="M462.5 436.5H319.5V400.5H249.5V330H319.5V310H398.5H462.5V436.5Z" stroke="black" stroke-width="5"/>
<path fill-rule="evenodd" clip-rule="evenodd" d="M462.5 436.5H319.5V400.5H249.5V330H319.5V310H398.5H462.5V436.5Z" stroke="black" stroke-width="5"/>
</g>
<path id="Bathroom-2_2" d="M325.918 383V365.545H332.31C333.548 365.545 334.574 365.75 335.386 366.159C336.199 366.562 336.807 367.111 337.21 367.804C337.614 368.491 337.815 369.267 337.815 370.131C337.815 370.858 337.682 371.472 337.415 371.972C337.148 372.466 336.79 372.864 336.341 373.165C335.898 373.46 335.409 373.676 334.875 373.812V373.983C335.455 374.011 336.02 374.199 336.571 374.545C337.128 374.886 337.588 375.372 337.952 376.003C338.315 376.634 338.497 377.401 338.497 378.304C338.497 379.196 338.287 379.997 337.866 380.707C337.452 381.412 336.81 381.972 335.94 382.386C335.071 382.795 333.96 383 332.608 383H325.918ZM328.551 380.741H332.352C333.614 380.741 334.517 380.497 335.062 380.009C335.608 379.52 335.881 378.909 335.881 378.176C335.881 377.625 335.741 377.119 335.463 376.659C335.185 376.199 334.787 375.832 334.27 375.56C333.759 375.287 333.151 375.151 332.446 375.151H328.551V380.741ZM328.551 373.097H332.08C332.67 373.097 333.202 372.983 333.673 372.756C334.151 372.528 334.528 372.21 334.807 371.801C335.091 371.386 335.233 370.898 335.233 370.335C335.233 369.614 334.98 369.009 334.474 368.52C333.969 368.031 333.193 367.787 332.148 367.787H328.551V373.097ZM345.226 383.29C344.396 383.29 343.646 383.136 342.976 382.83C342.305 382.517 341.774 382.065 341.382 381.474C340.996 380.884 340.803 380.159 340.803 379.301C340.803 378.562 340.945 377.955 341.229 377.477C341.513 377 341.896 376.622 342.379 376.344C342.862 376.065 343.402 375.855 343.999 375.713C344.595 375.571 345.203 375.463 345.822 375.389C346.607 375.298 347.243 375.224 347.732 375.168C348.22 375.105 348.575 375.006 348.797 374.869C349.018 374.733 349.129 374.511 349.129 374.205V374.145C349.129 373.401 348.919 372.824 348.499 372.415C348.084 372.006 347.464 371.801 346.641 371.801C345.783 371.801 345.107 371.991 344.612 372.372C344.124 372.747 343.786 373.165 343.598 373.625L341.203 373.08C341.487 372.284 341.902 371.642 342.447 371.153C342.999 370.659 343.632 370.301 344.348 370.08C345.064 369.852 345.817 369.739 346.607 369.739C347.129 369.739 347.683 369.801 348.268 369.926C348.859 370.045 349.411 370.267 349.922 370.591C350.439 370.915 350.862 371.378 351.192 371.98C351.521 372.577 351.686 373.352 351.686 374.307V383H349.197V381.21H349.095C348.93 381.54 348.683 381.864 348.354 382.182C348.024 382.5 347.601 382.764 347.084 382.974C346.567 383.185 345.947 383.29 345.226 383.29ZM345.78 381.244C346.484 381.244 347.087 381.105 347.587 380.827C348.092 380.548 348.476 380.185 348.737 379.736C349.004 379.281 349.138 378.795 349.138 378.278V376.591C349.047 376.682 348.871 376.767 348.609 376.847C348.354 376.92 348.061 376.986 347.732 377.043C347.402 377.094 347.081 377.142 346.768 377.188C346.456 377.227 346.195 377.261 345.984 377.29C345.49 377.352 345.038 377.457 344.629 377.605C344.226 377.753 343.902 377.966 343.658 378.244C343.419 378.517 343.3 378.881 343.3 379.335C343.3 379.966 343.533 380.443 343.999 380.767C344.464 381.085 345.058 381.244 345.78 381.244ZM361.191 369.909V371.955H354.04V369.909H361.191ZM355.958 366.773H358.506V379.156C358.506 379.651 358.58 380.023 358.728 380.273C358.876 380.517 359.066 380.685 359.299 380.776C359.538 380.861 359.796 380.903 360.075 380.903C360.279 380.903 360.458 380.889 360.612 380.861C360.765 380.832 360.884 380.81 360.969 380.793L361.43 382.898C361.282 382.955 361.072 383.011 360.799 383.068C360.526 383.131 360.185 383.165 359.776 383.17C359.106 383.182 358.481 383.062 357.901 382.812C357.322 382.562 356.853 382.176 356.495 381.653C356.137 381.131 355.958 380.474 355.958 379.685V366.773ZM366.839 375.227V383H364.291V365.545H366.805V372.04H366.967C367.274 371.335 367.743 370.776 368.374 370.361C369.004 369.946 369.828 369.739 370.845 369.739C371.743 369.739 372.527 369.923 373.197 370.293C373.874 370.662 374.396 371.213 374.766 371.946C375.141 372.673 375.328 373.582 375.328 374.673V383H372.78V374.98C372.78 374.02 372.533 373.276 372.038 372.747C371.544 372.213 370.857 371.946 369.976 371.946C369.374 371.946 368.834 372.074 368.357 372.33C367.885 372.585 367.513 372.96 367.24 373.455C366.973 373.943 366.839 374.534 366.839 375.227ZM378.729 383V369.909H381.192V371.989H381.328C381.567 371.284 381.987 370.73 382.589 370.327C383.197 369.918 383.885 369.713 384.652 369.713C384.811 369.713 384.999 369.719 385.214 369.73C385.436 369.741 385.609 369.756 385.734 369.773V372.21C385.632 372.182 385.45 372.151 385.189 372.116C384.928 372.077 384.666 372.057 384.405 372.057C383.803 372.057 383.266 372.185 382.794 372.44C382.328 372.69 381.959 373.04 381.686 373.489C381.413 373.932 381.277 374.437 381.277 375.006V383H378.729ZM392.985 383.264C391.758 383.264 390.687 382.983 389.772 382.42C388.857 381.858 388.147 381.071 387.641 380.06C387.136 379.048 386.883 377.866 386.883 376.514C386.883 375.156 387.136 373.969 387.641 372.952C388.147 371.935 388.857 371.145 389.772 370.582C390.687 370.02 391.758 369.739 392.985 369.739C394.212 369.739 395.283 370.02 396.198 370.582C397.113 371.145 397.823 371.935 398.329 372.952C398.835 373.969 399.087 375.156 399.087 376.514C399.087 377.866 398.835 379.048 398.329 380.06C397.823 381.071 397.113 381.858 396.198 382.42C395.283 382.983 394.212 383.264 392.985 383.264ZM392.994 381.125C393.789 381.125 394.448 380.915 394.971 380.494C395.494 380.074 395.88 379.514 396.13 378.815C396.386 378.116 396.513 377.347 396.513 376.506C396.513 375.67 396.386 374.903 396.13 374.205C395.88 373.5 395.494 372.935 394.971 372.509C394.448 372.082 393.789 371.869 392.994 371.869C392.192 371.869 391.528 372.082 390.999 372.509C390.477 372.935 390.087 373.5 389.832 374.205C389.582 374.903 389.457 375.67 389.457 376.506C389.457 377.347 389.582 378.116 389.832 378.815C390.087 379.514 390.477 380.074 390.999 380.494C391.528 380.915 392.192 381.125 392.994 381.125ZM407.446 383.264C406.219 383.264 405.148 382.983 404.233 382.42C403.318 381.858 402.608 381.071 402.102 380.06C401.597 379.048 401.344 377.866 401.344 376.514C401.344 375.156 401.597 373.969 402.102 372.952C402.608 371.935 403.318 371.145 404.233 370.582C405.148 370.02 406.219 369.739 407.446 369.739C408.673 369.739 409.744 370.02 410.659 370.582C411.574 371.145 412.284 371.935 412.79 372.952C413.295 373.969 413.548 375.156 413.548 376.514C413.548 377.866 413.295 379.048 412.79 380.06C412.284 381.071 411.574 381.858 410.659 382.42C409.744 382.983 408.673 383.264 407.446 383.264ZM407.455 381.125C408.25 381.125 408.909 380.915 409.432 380.494C409.955 380.074 410.341 379.514 410.591 378.815C410.847 378.116 410.974 377.347 410.974 376.506C410.974 375.67 410.847 374.903 410.591 374.205C410.341 373.5 409.955 372.935 409.432 372.509C408.909 372.082 408.25 371.869 407.455 371.869C406.653 371.869 405.989 372.082 405.46 372.509C404.938 372.935 404.548 373.5 404.293 374.205C404.043 374.903 403.918 375.67 403.918 376.506C403.918 377.347 404.043 378.116 404.293 378.815C404.548 379.514 404.938 380.074 405.46 380.494C405.989 380.915 406.653 381.125 407.455 381.125ZM416.393 383V369.909H418.839V372.04H419.001C419.273 371.318 419.719 370.756 420.339 370.352C420.958 369.943 421.7 369.739 422.563 369.739C423.438 369.739 424.171 369.943 424.762 370.352C425.359 370.761 425.799 371.324 426.083 372.04H426.219C426.532 371.341 427.029 370.784 427.711 370.369C428.393 369.949 429.205 369.739 430.148 369.739C431.336 369.739 432.305 370.111 433.055 370.855C433.81 371.599 434.188 372.722 434.188 374.222V383H431.64V374.46C431.64 373.574 431.398 372.932 430.915 372.534C430.433 372.136 429.856 371.938 429.185 371.938C428.356 371.938 427.711 372.193 427.251 372.705C426.79 373.21 426.56 373.861 426.56 374.656V383H424.021V374.298C424.021 373.588 423.799 373.017 423.356 372.585C422.913 372.153 422.336 371.938 421.626 371.938C421.143 371.938 420.697 372.065 420.288 372.321C419.884 372.571 419.558 372.92 419.308 373.369C419.063 373.818 418.941 374.338 418.941 374.929V383H416.393Z" fill="black"/>
</g>
<g id="Room-212">
<g id="212">
<path d="M398.5 42H222V108H249.5V186H398.5V158V42Z" fill="#0F52BA" fill-opacity="0.25"/>
<path d="M398.5 42H222V108H249.5V186H398.5V158V42Z" stroke="black" stroke-width="5"/>
<path d="M398.5 42H222V108H249.5V186H398.5V158V42Z" stroke="black" stroke-width="5"/>
</g>
<path id="212_2" d="M303.679 122V120.091L309.585 113.972C310.216 113.307 310.736 112.724 311.145 112.224C311.56 111.719 311.869 111.239 312.074 110.784C312.278 110.33 312.381 109.847 312.381 109.335C312.381 108.756 312.244 108.256 311.972 107.835C311.699 107.409 311.327 107.082 310.855 106.855C310.384 106.622 309.852 106.506 309.261 106.506C308.636 106.506 308.091 106.634 307.625 106.889C307.159 107.145 306.801 107.506 306.551 107.972C306.301 108.437 306.176 108.983 306.176 109.608H303.662C303.662 108.545 303.906 107.616 304.395 106.821C304.884 106.026 305.554 105.409 306.406 104.972C307.259 104.528 308.227 104.307 309.312 104.307C310.409 104.307 311.375 104.526 312.21 104.963C313.051 105.395 313.707 105.986 314.179 106.736C314.651 107.48 314.886 108.321 314.886 109.259C314.886 109.906 314.764 110.54 314.52 111.159C314.281 111.778 313.864 112.469 313.267 113.23C312.67 113.986 311.841 114.903 310.778 115.983L307.31 119.614V119.741H315.168V122H303.679ZM325.02 104.545V122H322.378V107.188H322.276L318.099 109.915V107.392L322.455 104.545H325.02ZM329.741 122V120.091L335.648 113.972C336.278 113.307 336.798 112.724 337.207 112.224C337.622 111.719 337.932 111.239 338.136 110.784C338.341 110.33 338.443 109.847 338.443 109.335C338.443 108.756 338.307 108.256 338.034 107.835C337.761 107.409 337.389 107.082 336.918 106.855C336.446 106.622 335.915 106.506 335.324 106.506C334.699 106.506 334.153 106.634 333.688 106.889C333.222 107.145 332.864 107.506 332.614 107.972C332.364 108.437 332.239 108.983 332.239 109.608H329.724C329.724 108.545 329.969 107.616 330.457 106.821C330.946 106.026 331.616 105.409 332.469 104.972C333.321 104.528 334.29 104.307 335.375 104.307C336.472 104.307 337.438 104.526 338.273 104.963C339.114 105.395 339.77 105.986 340.241 106.736C340.713 107.48 340.949 108.321 340.949 109.259C340.949 109.906 340.827 110.54 340.582 111.159C340.344 111.778 339.926 112.469 339.33 113.23C338.733 113.986 337.903 114.903 336.841 115.983L333.372 119.614V119.741H341.23V122H329.741Z" fill="black"/>
</g>
<g id="Room-211">
<g id="211">
<path fill-rule="evenodd" clip-rule="evenodd" d="M398.5 310H319.5V330H249.5V186H398.5V310Z" fill="#0F52BA" fill-opacity="0.25"/>
<path fill-rule="evenodd" clip-rule="evenodd" d="M398.5 310H319.5V330H249.5V186H398.5V310Z" stroke="black" stroke-width="5"/>
<path fill-rule="evenodd" clip-rule="evenodd" d="M398.5 310H319.5V330H249.5V186H398.5V310Z" stroke="black" stroke-width="5"/>
</g>
<path id="211_2" d="M306.679 262V260.091L312.585 253.972C313.216 253.307 313.736 252.724 314.145 252.224C314.56 251.719 314.869 251.239 315.074 250.784C315.278 250.33 315.381 249.847 315.381 249.335C315.381 248.756 315.244 248.256 314.972 247.835C314.699 247.409 314.327 247.082 313.855 246.855C313.384 246.622 312.852 246.506 312.261 246.506C311.636 246.506 311.091 246.634 310.625 246.889C310.159 247.145 309.801 247.506 309.551 247.972C309.301 248.437 309.176 248.983 309.176 249.608H306.662C306.662 248.545 306.906 247.616 307.395 246.821C307.884 246.026 308.554 245.409 309.406 244.972C310.259 244.528 311.227 244.307 312.312 244.307C313.409 244.307 314.375 244.526 315.21 244.963C316.051 245.395 316.707 245.986 317.179 246.736C317.651 247.48 317.886 248.321 317.886 249.259C317.886 249.906 317.764 250.54 317.52 251.159C317.281 251.778 316.864 252.469 316.267 253.23C315.67 253.986 314.841 254.903 313.778 255.983L310.31 259.614V259.741H318.168V262H306.679ZM328.02 244.545V262H325.378V247.188H325.276L321.099 249.915V247.392L325.455 244.545H328.02ZM339.364 244.545V262H336.722V247.188H336.619L332.443 249.915V247.392L336.798 244.545H339.364Z" fill="black"/>
</g>
<g id="Room-210">
<g id="210">
<path fill-rule="evenodd" clip-rule="evenodd" d="M621 437V310H553.778H463V437H553.778H621Z" fill="#0F52BA" fill-opacity="0.25"/>
<path fill-rule="evenodd" clip-rule="evenodd" d="M621 437V310H553.778H463V437H553.778H621Z" stroke="black" stroke-width="5"/>
<path fill-rule="evenodd" clip-rule="evenodd" d="M621 437V310H553.778H463V437H553.778H621Z" stroke="black" stroke-width="5"/>
</g>
<path id="210_2" d="M520.679 383V381.091L526.585 374.972C527.216 374.307 527.736 373.724 528.145 373.224C528.56 372.719 528.869 372.239 529.074 371.784C529.278 371.33 529.381 370.847 529.381 370.335C529.381 369.756 529.244 369.256 528.972 368.835C528.699 368.409 528.327 368.082 527.855 367.855C527.384 367.622 526.852 367.506 526.261 367.506C525.636 367.506 525.091 367.634 524.625 367.889C524.159 368.145 523.801 368.506 523.551 368.972C523.301 369.437 523.176 369.983 523.176 370.608H520.662C520.662 369.545 520.906 368.616 521.395 367.821C521.884 367.026 522.554 366.409 523.406 365.972C524.259 365.528 525.227 365.307 526.312 365.307C527.409 365.307 528.375 365.526 529.21 365.963C530.051 366.395 530.707 366.986 531.179 367.736C531.651 368.48 531.886 369.321 531.886 370.259C531.886 370.906 531.764 371.54 531.52 372.159C531.281 372.778 530.864 373.469 530.267 374.23C529.67 374.986 528.841 375.903 527.778 376.983L524.31 380.614V380.741H532.168V383H520.679ZM542.02 365.545V383H539.378V368.188H539.276L535.099 370.915V368.392L539.455 365.545H542.02ZM552.818 383.29C551.472 383.284 550.321 382.929 549.366 382.224C548.412 381.52 547.682 380.494 547.176 379.148C546.67 377.801 546.418 376.179 546.418 374.281C546.418 372.389 546.67 370.773 547.176 369.432C547.688 368.091 548.42 367.068 549.375 366.364C550.335 365.659 551.483 365.307 552.818 365.307C554.153 365.307 555.298 365.662 556.253 366.372C557.207 367.077 557.938 368.099 558.443 369.44C558.955 370.776 559.21 372.389 559.21 374.281C559.21 376.185 558.957 377.81 558.452 379.156C557.946 380.497 557.216 381.523 556.261 382.233C555.307 382.938 554.159 383.29 552.818 383.29ZM552.818 381.014C554 381.014 554.923 380.438 555.588 379.284C556.259 378.131 556.594 376.463 556.594 374.281C556.594 372.832 556.44 371.608 556.134 370.608C555.832 369.602 555.398 368.841 554.83 368.324C554.267 367.801 553.597 367.54 552.818 367.54C551.642 367.54 550.719 368.119 550.048 369.278C549.378 370.437 549.04 372.105 549.034 374.281C549.034 375.736 549.185 376.966 549.486 377.972C549.793 378.972 550.227 379.73 550.79 380.247C551.352 380.759 552.028 381.014 552.818 381.014Z" fill="black"/>
</g>
<g id="Room-209">
<g id="209">
<path fill-rule="evenodd" clip-rule="evenodd" d="M738 437V310H688.222H621V437H688.222H738Z" fill="#0F52BA" fill-opacity="0.25"/>
<path fill-rule="evenodd" clip-rule="evenodd" d="M738 437V310H688.222H621V437H688.222H738Z" stroke="black" stroke-width="5"/>
<path fill-rule="evenodd" clip-rule="evenodd" d="M738 437V310H688.222H621V437H688.222H738Z" stroke="black" stroke-width="5"/>
</g>
<path id="209_2" d="M657.679 383V381.091L663.585 374.972C664.216 374.307 664.736 373.724 665.145 373.224C665.56 372.719 665.869 372.239 666.074 371.784C666.278 371.33 666.381 370.847 666.381 370.335C666.381 369.756 666.244 369.256 665.972 368.835C665.699 368.409 665.327 368.082 664.855 367.855C664.384 367.622 663.852 367.506 663.261 367.506C662.636 367.506 662.091 367.634 661.625 367.889C661.159 368.145 660.801 368.506 660.551 368.972C660.301 369.437 660.176 369.983 660.176 370.608H657.662C657.662 369.545 657.906 368.616 658.395 367.821C658.884 367.026 659.554 366.409 660.406 365.972C661.259 365.528 662.227 365.307 663.312 365.307C664.409 365.307 665.375 365.526 666.21 365.963C667.051 366.395 667.707 366.986 668.179 367.736C668.651 368.48 668.886 369.321 668.886 370.259C668.886 370.906 668.764 371.54 668.52 372.159C668.281 372.778 667.864 373.469 667.267 374.23C666.67 374.986 665.841 375.903 664.778 376.983L661.31 380.614V380.741H669.168V383H657.679ZM678.474 383.29C677.128 383.284 675.977 382.929 675.023 382.224C674.068 381.52 673.338 380.494 672.832 379.148C672.327 377.801 672.074 376.179 672.074 374.281C672.074 372.389 672.327 370.773 672.832 369.432C673.344 368.091 674.077 367.068 675.031 366.364C675.991 365.659 677.139 365.307 678.474 365.307C679.81 365.307 680.955 365.662 681.909 366.372C682.864 367.077 683.594 368.099 684.099 369.44C684.611 370.776 684.866 372.389 684.866 374.281C684.866 376.185 684.614 377.81 684.108 379.156C683.602 380.497 682.872 381.523 681.918 382.233C680.963 382.938 679.815 383.29 678.474 383.29ZM678.474 381.014C679.656 381.014 680.58 380.438 681.244 379.284C681.915 378.131 682.25 376.463 682.25 374.281C682.25 372.832 682.097 371.608 681.79 370.608C681.489 369.602 681.054 368.841 680.486 368.324C679.923 367.801 679.253 367.54 678.474 367.54C677.298 367.54 676.375 368.119 675.705 369.278C675.034 370.437 674.696 372.105 674.69 374.281C674.69 375.736 674.841 376.966 675.142 377.972C675.449 378.972 675.884 379.73 676.446 380.247C677.009 380.759 677.685 381.014 678.474 381.014ZM693.694 365.307C694.472 365.312 695.239 365.455 695.995 365.733C696.751 366.011 697.433 366.466 698.04 367.097C698.654 367.727 699.143 368.58 699.506 369.653C699.876 370.722 700.063 372.051 700.069 373.642C700.069 375.17 699.915 376.531 699.609 377.724C699.302 378.912 698.862 379.915 698.288 380.733C697.719 381.551 697.029 382.173 696.217 382.599C695.404 383.026 694.489 383.239 693.472 383.239C692.433 383.239 691.509 383.034 690.702 382.625C689.896 382.216 689.239 381.651 688.734 380.929C688.228 380.202 687.913 379.366 687.788 378.423H690.387C690.558 379.173 690.904 379.781 691.427 380.247C691.955 380.707 692.637 380.938 693.472 380.938C694.751 380.938 695.748 380.381 696.464 379.267C697.18 378.148 697.54 376.585 697.546 374.58H697.41C697.114 375.068 696.745 375.489 696.302 375.841C695.864 376.193 695.373 376.466 694.827 376.659C694.282 376.852 693.7 376.949 693.08 376.949C692.075 376.949 691.16 376.702 690.336 376.207C689.512 375.713 688.856 375.034 688.367 374.17C687.879 373.307 687.634 372.321 687.634 371.213C687.634 370.111 687.884 369.111 688.384 368.213C688.89 367.315 689.594 366.605 690.498 366.082C691.407 365.554 692.472 365.295 693.694 365.307ZM693.702 367.523C693.038 367.523 692.438 367.687 691.904 368.017C691.376 368.341 690.958 368.781 690.651 369.338C690.344 369.889 690.191 370.503 690.191 371.179C690.191 371.855 690.339 372.469 690.634 373.02C690.935 373.565 691.344 374 691.862 374.324C692.384 374.642 692.981 374.801 693.651 374.801C694.151 374.801 694.617 374.705 695.049 374.511C695.481 374.318 695.859 374.051 696.183 373.71C696.506 373.364 696.759 372.972 696.941 372.534C697.123 372.097 697.214 371.636 697.214 371.153C697.214 370.511 697.06 369.915 696.754 369.364C696.452 368.812 696.038 368.369 695.509 368.034C694.981 367.693 694.379 367.523 693.702 367.523Z" fill="black"/>
</g>
<g id="Room-208">
<g id="208">
<path fill-rule="evenodd" clip-rule="evenodd" d="M737.5 310H765.5H910.5V461L822.5 459V436.5H737.5V310Z" fill="#0F52BA" fill-opacity="0.25"/>
<path fill-rule="evenodd" clip-rule="evenodd" d="M737.5 310H765.5H910.5V461L822.5 459V436.5H737.5V310Z" stroke="black" stroke-width="5"/>
<path fill-rule="evenodd" clip-rule="evenodd" d="M737.5 310H765.5H910.5V461L822.5 459V436.5H737.5V310Z" stroke="black" stroke-width="5"/>
</g>
<path id="208_2" d="M802.679 383V381.091L808.585 374.972C809.216 374.307 809.736 373.724 810.145 373.224C810.56 372.719 810.869 372.239 811.074 371.784C811.278 371.33 811.381 370.847 811.381 370.335C811.381 369.756 811.244 369.256 810.972 368.835C810.699 368.409 810.327 368.082 809.855 367.855C809.384 367.622 808.852 367.506 808.261 367.506C807.636 367.506 807.091 367.634 806.625 367.889C806.159 368.145 805.801 368.506 805.551 368.972C805.301 369.437 805.176 369.983 805.176 370.608H802.662C802.662 369.545 802.906 368.616 803.395 367.821C803.884 367.026 804.554 366.409 805.406 365.972C806.259 365.528 807.227 365.307 808.312 365.307C809.409 365.307 810.375 365.526 811.21 365.963C812.051 366.395 812.707 366.986 813.179 367.736C813.651 368.48 813.886 369.321 813.886 370.259C813.886 370.906 813.764 371.54 813.52 372.159C813.281 372.778 812.864 373.469 812.267 374.23C811.67 374.986 810.841 375.903 809.778 376.983L806.31 380.614V380.741H814.168V383H802.679ZM823.474 383.29C822.128 383.284 820.977 382.929 820.023 382.224C819.068 381.52 818.338 380.494 817.832 379.148C817.327 377.801 817.074 376.179 817.074 374.281C817.074 372.389 817.327 370.773 817.832 369.432C818.344 368.091 819.077 367.068 820.031 366.364C820.991 365.659 822.139 365.307 823.474 365.307C824.81 365.307 825.955 365.662 826.909 366.372C827.864 367.077 828.594 368.099 829.099 369.44C829.611 370.776 829.866 372.389 829.866 374.281C829.866 376.185 829.614 377.81 829.108 379.156C828.602 380.497 827.872 381.523 826.918 382.233C825.963 382.938 824.815 383.29 823.474 383.29ZM823.474 381.014C824.656 381.014 825.58 380.438 826.244 379.284C826.915 378.131 827.25 376.463 827.25 374.281C827.25 372.832 827.097 371.608 826.79 370.608C826.489 369.602 826.054 368.841 825.486 368.324C824.923 367.801 824.253 367.54 823.474 367.54C822.298 367.54 821.375 368.119 820.705 369.278C820.034 370.437 819.696 372.105 819.69 374.281C819.69 375.736 819.841 376.966 820.142 377.972C820.449 378.972 820.884 379.73 821.446 380.247C822.009 380.759 822.685 381.014 823.474 381.014ZM838.788 383.239C837.566 383.239 836.487 383.028 835.549 382.608C834.617 382.187 833.887 381.608 833.359 380.869C832.83 380.131 832.569 379.29 832.575 378.347C832.569 377.608 832.719 376.929 833.026 376.31C833.339 375.685 833.762 375.165 834.296 374.75C834.83 374.33 835.427 374.062 836.086 373.949V373.847C835.217 373.636 834.521 373.17 833.998 372.449C833.475 371.727 833.217 370.898 833.222 369.96C833.217 369.068 833.452 368.273 833.93 367.574C834.413 366.869 835.075 366.315 835.915 365.912C836.756 365.509 837.714 365.307 838.788 365.307C839.85 365.307 840.799 365.511 841.634 365.92C842.475 366.324 843.137 366.878 843.62 367.582C844.103 368.281 844.347 369.074 844.353 369.96C844.347 370.898 844.08 371.727 843.552 372.449C843.023 373.17 842.336 373.636 841.489 373.847V373.949C842.143 374.062 842.731 374.33 843.254 374.75C843.782 375.165 844.202 375.685 844.515 376.31C844.833 376.929 844.995 377.608 845.001 378.347C844.995 379.29 844.728 380.131 844.2 380.869C843.671 381.608 842.938 382.187 842.001 382.608C841.069 383.028 839.998 383.239 838.788 383.239ZM838.788 381.082C839.509 381.082 840.134 380.963 840.663 380.724C841.191 380.48 841.6 380.142 841.89 379.71C842.18 379.273 842.327 378.761 842.333 378.176C842.327 377.568 842.168 377.031 841.856 376.565C841.549 376.099 841.131 375.733 840.603 375.466C840.075 375.199 839.469 375.065 838.788 375.065C838.1 375.065 837.489 375.199 836.955 375.466C836.421 375.733 836.001 376.099 835.694 376.565C835.387 377.031 835.237 377.568 835.242 378.176C835.237 378.761 835.376 379.273 835.66 379.71C835.95 380.142 836.362 380.48 836.896 380.724C837.43 380.963 838.06 381.082 838.788 381.082ZM838.788 372.96C839.367 372.96 839.881 372.844 840.33 372.611C840.779 372.378 841.131 372.054 841.387 371.639C841.648 371.224 841.782 370.739 841.788 370.182C841.782 369.636 841.651 369.159 841.396 368.75C841.146 368.341 840.796 368.026 840.347 367.804C839.898 367.577 839.379 367.463 838.788 367.463C838.185 367.463 837.657 367.577 837.202 367.804C836.754 368.026 836.404 368.341 836.154 368.75C835.904 369.159 835.782 369.636 835.788 370.182C835.782 370.739 835.907 371.224 836.163 371.639C836.418 372.054 836.771 372.378 837.219 372.611C837.674 372.844 838.197 372.96 838.788 372.96Z" fill="black"/>
</g>
<g id="Room-207">
<g id="207">
<path fill-rule="evenodd" clip-rule="evenodd" d="M737.5 612V484.5H765.5H822.5V459L910.5 461V612H737.5Z" fill="#0F52BA" fill-opacity="0.25"/>
<path fill-rule="evenodd" clip-rule="evenodd" d="M737.5 612V484.5H765.5H822.5V459L910.5 461V612H737.5Z" stroke="black" stroke-width="5"/>
<path fill-rule="evenodd" clip-rule="evenodd" d="M737.5 612V484.5H765.5H822.5V459L910.5 461V612H737.5Z" stroke="black" stroke-width="5"/>
</g>
<path id="207_2" d="M802.679 559V557.091L808.585 550.972C809.216 550.307 809.736 549.724 810.145 549.224C810.56 548.719 810.869 548.239 811.074 547.784C811.278 547.33 811.381 546.847 811.381 546.335C811.381 545.756 811.244 545.256 810.972 544.835C810.699 544.409 810.327 544.082 809.855 543.855C809.384 543.622 808.852 543.506 808.261 543.506C807.636 543.506 807.091 543.634 806.625 543.889C806.159 544.145 805.801 544.506 805.551 544.972C805.301 545.437 805.176 545.983 805.176 546.608H802.662C802.662 545.545 802.906 544.616 803.395 543.821C803.884 543.026 804.554 542.409 805.406 541.972C806.259 541.528 807.227 541.307 808.312 541.307C809.409 541.307 810.375 541.526 811.21 541.963C812.051 542.395 812.707 542.986 813.179 543.736C813.651 544.48 813.886 545.321 813.886 546.259C813.886 546.906 813.764 547.54 813.52 548.159C813.281 548.778 812.864 549.469 812.267 550.23C811.67 550.986 810.841 551.903 809.778 552.983L806.31 556.614V556.741H814.168V559H802.679ZM823.474 559.29C822.128 559.284 820.977 558.929 820.023 558.224C819.068 557.52 818.338 556.494 817.832 555.148C817.327 553.801 817.074 552.179 817.074 550.281C817.074 548.389 817.327 546.773 817.832 545.432C818.344 544.091 819.077 543.068 820.031 542.364C820.991 541.659 822.139 541.307 823.474 541.307C824.81 541.307 825.955 541.662 826.909 542.372C827.864 543.077 828.594 544.099 829.099 545.44C829.611 546.776 829.866 548.389 829.866 550.281C829.866 552.185 829.614 553.81 829.108 555.156C828.602 556.497 827.872 557.523 826.918 558.233C825.963 558.938 824.815 559.29 823.474 559.29ZM823.474 557.014C824.656 557.014 825.58 556.438 826.244 555.284C826.915 554.131 827.25 552.463 827.25 550.281C827.25 548.832 827.097 547.608 826.79 546.608C826.489 545.602 826.054 544.841 825.486 544.324C824.923 543.801 824.253 543.54 823.474 543.54C822.298 543.54 821.375 544.119 820.705 545.278C820.034 546.437 819.696 548.105 819.69 550.281C819.69 551.736 819.841 552.966 820.142 553.972C820.449 554.972 820.884 555.73 821.446 556.247C822.009 556.759 822.685 557.014 823.474 557.014ZM833.009 559L840.629 543.932V543.804H831.816V541.545H843.356V543.881L835.762 559H833.009Z" fill="black"/>
</g>
<g id="Room-206">
<g id="206">
<path fill-rule="evenodd" clip-rule="evenodd" d="M620.5 612V484.5H737.5V612H620.5Z" fill="#0F52BA" fill-opacity="0.25"/>
<path fill-rule="evenodd" clip-rule="evenodd" d="M620.5 612V484.5H737.5V612H620.5Z" stroke="black" stroke-width="5"/>
<path fill-rule="evenodd" clip-rule="evenodd" d="M620.5 612V484.5H737.5V612H620.5Z" stroke="black" stroke-width="5"/>
</g>
<path id="206_2" d="M658.679 559V557.091L664.585 550.972C665.216 550.307 665.736 549.724 666.145 549.224C666.56 548.719 666.869 548.239 667.074 547.784C667.278 547.33 667.381 546.847 667.381 546.335C667.381 545.756 667.244 545.256 666.972 544.835C666.699 544.409 666.327 544.082 665.855 543.855C665.384 543.622 664.852 543.506 664.261 543.506C663.636 543.506 663.091 543.634 662.625 543.889C662.159 544.145 661.801 544.506 661.551 544.972C661.301 545.437 661.176 545.983 661.176 546.608H658.662C658.662 545.545 658.906 544.616 659.395 543.821C659.884 543.026 660.554 542.409 661.406 541.972C662.259 541.528 663.227 541.307 664.312 541.307C665.409 541.307 666.375 541.526 667.21 541.963C668.051 542.395 668.707 542.986 669.179 543.736C669.651 544.48 669.886 545.321 669.886 546.259C669.886 546.906 669.764 547.54 669.52 548.159C669.281 548.778 668.864 549.469 668.267 550.23C667.67 550.986 666.841 551.903 665.778 552.983L662.31 556.614V556.741H670.168V559H658.679ZM679.474 559.29C678.128 559.284 676.977 558.929 676.023 558.224C675.068 557.52 674.338 556.494 673.832 555.148C673.327 553.801 673.074 552.179 673.074 550.281C673.074 548.389 673.327 546.773 673.832 545.432C674.344 544.091 675.077 543.068 676.031 542.364C676.991 541.659 678.139 541.307 679.474 541.307C680.81 541.307 681.955 541.662 682.909 542.372C683.864 543.077 684.594 544.099 685.099 545.44C685.611 546.776 685.866 548.389 685.866 550.281C685.866 552.185 685.614 553.81 685.108 555.156C684.602 556.497 683.872 557.523 682.918 558.233C681.963 558.938 680.815 559.29 679.474 559.29ZM679.474 557.014C680.656 557.014 681.58 556.438 682.244 555.284C682.915 554.131 683.25 552.463 683.25 550.281C683.25 548.832 683.097 547.608 682.79 546.608C682.489 545.602 682.054 544.841 681.486 544.324C680.923 543.801 680.253 543.54 679.474 543.54C678.298 543.54 677.375 544.119 676.705 545.278C676.034 546.437 675.696 548.105 675.69 550.281C675.69 551.736 675.841 552.966 676.142 553.972C676.449 554.972 676.884 555.73 677.446 556.247C678.009 556.759 678.685 557.014 679.474 557.014ZM694.984 559.239C694.205 559.227 693.438 559.085 692.683 558.812C691.933 558.54 691.251 558.085 690.637 557.449C690.023 556.812 689.532 555.957 689.163 554.884C688.799 553.81 688.617 552.469 688.617 550.861C688.617 549.338 688.768 547.986 689.069 546.804C689.376 545.622 689.816 544.625 690.39 543.812C690.964 542.994 691.657 542.372 692.469 541.946C693.282 541.52 694.194 541.307 695.205 541.307C696.245 541.307 697.168 541.511 697.975 541.92C698.782 542.33 699.435 542.895 699.935 543.616C700.441 544.338 700.762 545.159 700.898 546.08H698.299C698.123 545.352 697.773 544.759 697.251 544.298C696.728 543.838 696.046 543.608 695.205 543.608C693.927 543.608 692.93 544.165 692.214 545.278C691.504 546.392 691.146 547.94 691.14 549.923H691.268C691.569 549.429 691.938 549.009 692.376 548.662C692.819 548.31 693.313 548.04 693.859 547.852C694.41 547.659 694.989 547.562 695.597 547.562C696.609 547.562 697.523 547.81 698.342 548.304C699.165 548.793 699.822 549.469 700.31 550.332C700.799 551.196 701.043 552.185 701.043 553.298C701.043 554.412 700.79 555.42 700.285 556.324C699.785 557.227 699.08 557.943 698.171 558.472C697.262 558.994 696.2 559.25 694.984 559.239ZM694.975 557.023C695.646 557.023 696.245 556.858 696.773 556.528C697.302 556.199 697.719 555.756 698.026 555.199C698.333 554.642 698.487 554.02 698.487 553.332C698.487 552.662 698.336 552.051 698.035 551.5C697.739 550.949 697.33 550.511 696.808 550.188C696.29 549.864 695.7 549.702 695.035 549.702C694.529 549.702 694.06 549.798 693.629 549.991C693.202 550.185 692.827 550.452 692.504 550.793C692.18 551.134 691.924 551.526 691.737 551.969C691.555 552.406 691.464 552.869 691.464 553.358C691.464 554.011 691.614 554.616 691.915 555.173C692.222 555.73 692.64 556.179 693.168 556.52C693.702 556.855 694.305 557.023 694.975 557.023Z" fill="black"/>
</g>
<g id="Room-205">
<g id="205">
<path fill-rule="evenodd" clip-rule="evenodd" d="M532 484.5V612H374V484.5H532Z" fill="#0F52BA" fill-opacity="0.25"/>
<path fill-rule="evenodd" clip-rule="evenodd" d="M532 484.5V612H374V484.5H532Z" stroke="black" stroke-width="5"/>
<path fill-rule="evenodd" clip-rule="evenodd" d="M532 484.5V612H374V484.5H532Z" stroke="black" stroke-width="5"/>
</g>
<path id="205_2" d="M431.679 559V557.091L437.585 550.972C438.216 550.307 438.736 549.724 439.145 549.224C439.56 548.719 439.869 548.239 440.074 547.784C440.278 547.33 440.381 546.847 440.381 546.335C440.381 545.756 440.244 545.256 439.972 544.835C439.699 544.409 439.327 544.082 438.855 543.855C438.384 543.622 437.852 543.506 437.261 543.506C436.636 543.506 436.091 543.634 435.625 543.889C435.159 544.145 434.801 544.506 434.551 544.972C434.301 545.437 434.176 545.983 434.176 546.608H431.662C431.662 545.545 431.906 544.616 432.395 543.821C432.884 543.026 433.554 542.409 434.406 541.972C435.259 541.528 436.227 541.307 437.312 541.307C438.409 541.307 439.375 541.526 440.21 541.963C441.051 542.395 441.707 542.986 442.179 543.736C442.651 544.48 442.886 545.321 442.886 546.259C442.886 546.906 442.764 547.54 442.52 548.159C442.281 548.778 441.864 549.469 441.267 550.23C440.67 550.986 439.841 551.903 438.778 552.983L435.31 556.614V556.741H443.168V559H431.679ZM452.474 559.29C451.128 559.284 449.977 558.929 449.023 558.224C448.068 557.52 447.338 556.494 446.832 555.148C446.327 553.801 446.074 552.179 446.074 550.281C446.074 548.389 446.327 546.773 446.832 545.432C447.344 544.091 448.077 543.068 449.031 542.364C449.991 541.659 451.139 541.307 452.474 541.307C453.81 541.307 454.955 541.662 455.909 542.372C456.864 543.077 457.594 544.099 458.099 545.44C458.611 546.776 458.866 548.389 458.866 550.281C458.866 552.185 458.614 553.81 458.108 555.156C457.602 556.497 456.872 557.523 455.918 558.233C454.963 558.938 453.815 559.29 452.474 559.29ZM452.474 557.014C453.656 557.014 454.58 556.438 455.244 555.284C455.915 554.131 456.25 552.463 456.25 550.281C456.25 548.832 456.097 547.608 455.79 546.608C455.489 545.602 455.054 544.841 454.486 544.324C453.923 543.801 453.253 543.54 452.474 543.54C451.298 543.54 450.375 544.119 449.705 545.278C449.034 546.437 448.696 548.105 448.69 550.281C448.69 551.736 448.841 552.966 449.142 553.972C449.449 554.972 449.884 555.73 450.446 556.247C451.009 556.759 451.685 557.014 452.474 557.014ZM467.651 559.239C466.583 559.239 465.623 559.034 464.771 558.625C463.924 558.21 463.248 557.642 462.742 556.92C462.237 556.199 461.967 555.375 461.933 554.449H464.489C464.552 555.199 464.884 555.815 465.487 556.298C466.089 556.781 466.81 557.023 467.651 557.023C468.322 557.023 468.915 556.869 469.433 556.562C469.955 556.25 470.364 555.821 470.66 555.276C470.961 554.73 471.112 554.108 471.112 553.409C471.112 552.699 470.958 552.065 470.651 551.509C470.344 550.952 469.921 550.514 469.381 550.196C468.847 549.878 468.234 549.716 467.54 549.71C467.012 549.71 466.481 549.801 465.947 549.983C465.413 550.165 464.981 550.403 464.651 550.699L462.239 550.341L463.219 541.545H472.816V543.804H465.41L464.856 548.688H464.958C465.299 548.358 465.751 548.082 466.313 547.861C466.881 547.639 467.489 547.528 468.137 547.528C469.2 547.528 470.146 547.781 470.975 548.287C471.81 548.793 472.467 549.483 472.944 550.358C473.427 551.227 473.665 552.227 473.66 553.358C473.665 554.489 473.41 555.497 472.893 556.384C472.381 557.27 471.671 557.969 470.762 558.48C469.859 558.986 468.822 559.239 467.651 559.239Z" fill="black"/>
</g>
<g id="Room-204">
<g id="204">
<path fill-rule="evenodd" clip-rule="evenodd" d="M374 612H222V484.5H374V612Z" fill="#0F52BA" fill-opacity="0.25"/>
<path fill-rule="evenodd" clip-rule="evenodd" d="M374 612H222V484.5H374V612Z" stroke="black" stroke-width="5"/>
<path fill-rule="evenodd" clip-rule="evenodd" d="M374 612H222V484.5H374V612Z" stroke="black" stroke-width="5"/>
</g>
<path id="204_2" d="M276.679 559V557.091L282.585 550.972C283.216 550.307 283.736 549.724 284.145 549.224C284.56 548.719 284.869 548.239 285.074 547.784C285.278 547.33 285.381 546.847 285.381 546.335C285.381 545.756 285.244 545.256 284.972 544.835C284.699 544.409 284.327 544.082 283.855 543.855C283.384 543.622 282.852 543.506 282.261 543.506C281.636 543.506 281.091 543.634 280.625 543.889C280.159 544.145 279.801 544.506 279.551 544.972C279.301 545.437 279.176 545.983 279.176 546.608H276.662C276.662 545.545 276.906 544.616 277.395 543.821C277.884 543.026 278.554 542.409 279.406 541.972C280.259 541.528 281.227 541.307 282.312 541.307C283.409 541.307 284.375 541.526 285.21 541.963C286.051 542.395 286.707 542.986 287.179 543.736C287.651 544.48 287.886 545.321 287.886 546.259C287.886 546.906 287.764 547.54 287.52 548.159C287.281 548.778 286.864 549.469 286.267 550.23C285.67 550.986 284.841 551.903 283.778 552.983L280.31 556.614V556.741H288.168V559H276.679ZM297.474 559.29C296.128 559.284 294.977 558.929 294.023 558.224C293.068 557.52 292.338 556.494 291.832 555.148C291.327 553.801 291.074 552.179 291.074 550.281C291.074 548.389 291.327 546.773 291.832 545.432C292.344 544.091 293.077 543.068 294.031 542.364C294.991 541.659 296.139 541.307 297.474 541.307C298.81 541.307 299.955 541.662 300.909 542.372C301.864 543.077 302.594 544.099 303.099 545.44C303.611 546.776 303.866 548.389 303.866 550.281C303.866 552.185 303.614 553.81 303.108 555.156C302.602 556.497 301.872 557.523 300.918 558.233C299.963 558.938 298.815 559.29 297.474 559.29ZM297.474 557.014C298.656 557.014 299.58 556.438 300.244 555.284C300.915 554.131 301.25 552.463 301.25 550.281C301.25 548.832 301.097 547.608 300.79 546.608C300.489 545.602 300.054 544.841 299.486 544.324C298.923 543.801 298.253 543.54 297.474 543.54C296.298 543.54 295.375 544.119 294.705 545.278C294.034 546.437 293.696 548.105 293.69 550.281C293.69 551.736 293.841 552.966 294.142 553.972C294.449 554.972 294.884 555.73 295.446 556.247C296.009 556.759 296.685 557.014 297.474 557.014ZM306.523 555.591V553.46L314.066 541.545H315.745V544.682H314.68L309.285 553.222V553.358H319.623V555.591H306.523ZM314.799 559V554.943L314.816 553.972V541.545H317.313V559H314.799Z" fill="black"/>
</g>
<g id="Room-203">
<g id="203">
<path fill-rule="evenodd" clip-rule="evenodd" d="M222 484.5V612H78V360H203.5V484.5H222Z" fill="#0F52BA" fill-opacity="0.25"/>
<path fill-rule="evenodd" clip-rule="evenodd" d="M222 484.5V612H78V360H203.5V484.5H222Z" stroke="black" stroke-width="5"/>
<path fill-rule="evenodd" clip-rule="evenodd" d="M222 484.5V612H78V360H203.5V484.5H222Z" stroke="black" stroke-width="5"/>
</g>
<path id="203_2" d="M119.679 467V465.091L125.585 458.972C126.216 458.307 126.736 457.724 127.145 457.224C127.56 456.719 127.869 456.239 128.074 455.784C128.278 455.33 128.381 454.847 128.381 454.335C128.381 453.756 128.244 453.256 127.972 452.835C127.699 452.409 127.327 452.082 126.855 451.855C126.384 451.622 125.852 451.506 125.261 451.506C124.636 451.506 124.091 451.634 123.625 451.889C123.159 452.145 122.801 452.506 122.551 452.972C122.301 453.437 122.176 453.983 122.176 454.608H119.662C119.662 453.545 119.906 452.616 120.395 451.821C120.884 451.026 121.554 450.409 122.406 449.972C123.259 449.528 124.227 449.307 125.312 449.307C126.409 449.307 127.375 449.526 128.21 449.963C129.051 450.395 129.707 450.986 130.179 451.736C130.651 452.48 130.886 453.321 130.886 454.259C130.886 454.906 130.764 455.54 130.52 456.159C130.281 456.778 129.864 457.469 129.267 458.23C128.67 458.986 127.841 459.903 126.778 460.983L123.31 464.614V464.741H131.168V467H119.679ZM140.474 467.29C139.128 467.284 137.977 466.929 137.023 466.224C136.068 465.52 135.338 464.494 134.832 463.148C134.327 461.801 134.074 460.179 134.074 458.281C134.074 456.389 134.327 454.773 134.832 453.432C135.344 452.091 136.077 451.068 137.031 450.364C137.991 449.659 139.139 449.307 140.474 449.307C141.81 449.307 142.955 449.662 143.909 450.372C144.864 451.077 145.594 452.099 146.099 453.44C146.611 454.776 146.866 456.389 146.866 458.281C146.866 460.185 146.614 461.81 146.108 463.156C145.602 464.497 144.872 465.523 143.918 466.233C142.963 466.938 141.815 467.29 140.474 467.29ZM140.474 465.014C141.656 465.014 142.58 464.438 143.244 463.284C143.915 462.131 144.25 460.463 144.25 458.281C144.25 456.832 144.097 455.608 143.79 454.608C143.489 453.602 143.054 452.841 142.486 452.324C141.923 451.801 141.253 451.54 140.474 451.54C139.298 451.54 138.375 452.119 137.705 453.278C137.034 454.437 136.696 456.105 136.69 458.281C136.69 459.736 136.841 460.966 137.142 461.972C137.449 462.972 137.884 463.73 138.446 464.247C139.009 464.759 139.685 465.014 140.474 465.014ZM155.967 467.239C154.796 467.239 153.751 467.037 152.83 466.634C151.915 466.23 151.191 465.67 150.657 464.955C150.129 464.233 149.844 463.398 149.805 462.449H152.481C152.515 462.966 152.688 463.415 153.001 463.795C153.319 464.17 153.734 464.46 154.245 464.665C154.756 464.869 155.325 464.972 155.95 464.972C156.637 464.972 157.245 464.852 157.773 464.614C158.308 464.375 158.725 464.043 159.026 463.616C159.327 463.185 159.478 462.688 159.478 462.125C159.478 461.54 159.327 461.026 159.026 460.582C158.731 460.134 158.296 459.781 157.722 459.526C157.154 459.27 156.467 459.142 155.66 459.142H154.185V456.994H155.66C156.308 456.994 156.876 456.878 157.364 456.645C157.859 456.412 158.245 456.088 158.523 455.673C158.802 455.253 158.941 454.761 158.941 454.199C158.941 453.659 158.819 453.19 158.575 452.793C158.336 452.389 157.995 452.074 157.552 451.847C157.114 451.619 156.597 451.506 156.001 451.506C155.433 451.506 154.901 451.611 154.407 451.821C153.918 452.026 153.521 452.321 153.214 452.707C152.907 453.088 152.742 453.545 152.719 454.08H150.171C150.2 453.136 150.478 452.307 151.006 451.591C151.54 450.875 152.245 450.315 153.12 449.912C153.995 449.509 154.967 449.307 156.035 449.307C157.154 449.307 158.12 449.526 158.933 449.963C159.751 450.395 160.381 450.972 160.825 451.693C161.273 452.415 161.495 453.205 161.489 454.062C161.495 455.04 161.222 455.869 160.671 456.551C160.126 457.233 159.398 457.69 158.489 457.923V458.06C159.648 458.236 160.546 458.696 161.183 459.44C161.825 460.185 162.143 461.108 162.137 462.21C162.143 463.17 161.876 464.031 161.336 464.793C160.802 465.554 160.072 466.153 159.146 466.591C158.219 467.023 157.16 467.239 155.967 467.239Z" fill="black"/>
</g>
<g id="Room-202">
<g id="202">
<path fill-rule="evenodd" clip-rule="evenodd" d="M78 186H203.5V274H78V186Z" fill="#0F52BA" fill-opacity="0.25"/>
<path fill-rule="evenodd" clip-rule="evenodd" d="M78 186H203.5V274H78V186Z" stroke="black" stroke-width="5"/>
<path fill-rule="evenodd" clip-rule="evenodd" d="M78 186H203.5V274H78V186Z" stroke="black" stroke-width="5"/>
</g>
<path id="202_2" d="M119.679 239V237.091L125.585 230.972C126.216 230.307 126.736 229.724 127.145 229.224C127.56 228.719 127.869 228.239 128.074 227.784C128.278 227.33 128.381 226.847 128.381 226.335C128.381 225.756 128.244 225.256 127.972 224.835C127.699 224.409 127.327 224.082 126.855 223.855C126.384 223.622 125.852 223.506 125.261 223.506C124.636 223.506 124.091 223.634 123.625 223.889C123.159 224.145 122.801 224.506 122.551 224.972C122.301 225.437 122.176 225.983 122.176 226.608H119.662C119.662 225.545 119.906 224.616 120.395 223.821C120.884 223.026 121.554 222.409 122.406 221.972C123.259 221.528 124.227 221.307 125.312 221.307C126.409 221.307 127.375 221.526 128.21 221.963C129.051 222.395 129.707 222.986 130.179 223.736C130.651 224.48 130.886 225.321 130.886 226.259C130.886 226.906 130.764 227.54 130.52 228.159C130.281 228.778 129.864 229.469 129.267 230.23C128.67 230.986 127.841 231.903 126.778 232.983L123.31 236.614V236.741H131.168V239H119.679ZM140.474 239.29C139.128 239.284 137.977 238.929 137.023 238.224C136.068 237.52 135.338 236.494 134.832 235.148C134.327 233.801 134.074 232.179 134.074 230.281C134.074 228.389 134.327 226.773 134.832 225.432C135.344 224.091 136.077 223.068 137.031 222.364C137.991 221.659 139.139 221.307 140.474 221.307C141.81 221.307 142.955 221.662 143.909 222.372C144.864 223.077 145.594 224.099 146.099 225.44C146.611 226.776 146.866 228.389 146.866 230.281C146.866 232.185 146.614 233.81 146.108 235.156C145.602 236.497 144.872 237.523 143.918 238.233C142.963 238.938 141.815 239.29 140.474 239.29ZM140.474 237.014C141.656 237.014 142.58 236.438 143.244 235.284C143.915 234.131 144.25 232.463 144.25 230.281C144.25 228.832 144.097 227.608 143.79 226.608C143.489 225.602 143.054 224.841 142.486 224.324C141.923 223.801 141.253 223.54 140.474 223.54C139.298 223.54 138.375 224.119 137.705 225.278C137.034 226.437 136.696 228.105 136.69 230.281C136.69 231.736 136.841 232.966 137.142 233.972C137.449 234.972 137.884 235.73 138.446 236.247C139.009 236.759 139.685 237.014 140.474 237.014ZM149.89 239V237.091L155.796 230.972C156.427 230.307 156.947 229.724 157.356 229.224C157.771 228.719 158.08 228.239 158.285 227.784C158.489 227.33 158.592 226.847 158.592 226.335C158.592 225.756 158.455 225.256 158.183 224.835C157.91 224.409 157.538 224.082 157.066 223.855C156.594 223.622 156.063 223.506 155.472 223.506C154.847 223.506 154.302 223.634 153.836 223.889C153.37 224.145 153.012 224.506 152.762 224.972C152.512 225.437 152.387 225.983 152.387 226.608H149.873C149.873 225.545 150.117 224.616 150.606 223.821C151.094 223.026 151.765 222.409 152.617 221.972C153.469 221.528 154.438 221.307 155.523 221.307C156.62 221.307 157.586 221.526 158.421 221.963C159.262 222.395 159.918 222.986 160.39 223.736C160.862 224.48 161.097 225.321 161.097 226.259C161.097 226.906 160.975 227.54 160.731 228.159C160.492 228.778 160.075 229.469 159.478 230.23C158.881 230.986 158.052 231.903 156.989 232.983L153.521 236.614V236.741H161.379V239H149.89Z" fill="black"/>
</g>
<g id="Room-201">
<g id="201">
<path d="M78 42V158V186H203.5V158V108H222V42H78Z" fill="#0F52BA" fill-opacity="0.25"/>
<path d="M78 42V158V186H203.5V158V108H222V42H78Z" stroke="black" stroke-width="5"/>
<path d="M78 42V158V186H203.5V158V108H222V42H78Z" stroke="black" stroke-width="5"/>
</g>
<path id="201_2" d="M121.679 122V120.091L127.585 113.972C128.216 113.307 128.736 112.724 129.145 112.224C129.56 111.719 129.869 111.239 130.074 110.784C130.278 110.33 130.381 109.847 130.381 109.335C130.381 108.756 130.244 108.256 129.972 107.835C129.699 107.409 129.327 107.082 128.855 106.855C128.384 106.622 127.852 106.506 127.261 106.506C126.636 106.506 126.091 106.634 125.625 106.889C125.159 107.145 124.801 107.506 124.551 107.972C124.301 108.437 124.176 108.983 124.176 109.608H121.662C121.662 108.545 121.906 107.616 122.395 106.821C122.884 106.026 123.554 105.409 124.406 104.972C125.259 104.528 126.227 104.307 127.312 104.307C128.409 104.307 129.375 104.526 130.21 104.963C131.051 105.395 131.707 105.986 132.179 106.736C132.651 107.48 132.886 108.321 132.886 109.259C132.886 109.906 132.764 110.54 132.52 111.159C132.281 111.778 131.864 112.469 131.267 113.23C130.67 113.986 129.841 114.903 128.778 115.983L125.31 119.614V119.741H133.168V122H121.679ZM142.474 122.29C141.128 122.284 139.977 121.929 139.023 121.224C138.068 120.52 137.338 119.494 136.832 118.148C136.327 116.801 136.074 115.179 136.074 113.281C136.074 111.389 136.327 109.773 136.832 108.432C137.344 107.091 138.077 106.068 139.031 105.364C139.991 104.659 141.139 104.307 142.474 104.307C143.81 104.307 144.955 104.662 145.909 105.372C146.864 106.077 147.594 107.099 148.099 108.44C148.611 109.776 148.866 111.389 148.866 113.281C148.866 115.185 148.614 116.81 148.108 118.156C147.602 119.497 146.872 120.523 145.918 121.233C144.963 121.938 143.815 122.29 142.474 122.29ZM142.474 120.014C143.656 120.014 144.58 119.438 145.244 118.284C145.915 117.131 146.25 115.463 146.25 113.281C146.25 111.832 146.097 110.608 145.79 109.608C145.489 108.602 145.054 107.841 144.486 107.324C143.923 106.801 143.253 106.54 142.474 106.54C141.298 106.54 140.375 107.119 139.705 108.278C139.034 109.437 138.696 111.105 138.69 113.281C138.69 114.736 138.841 115.966 139.142 116.972C139.449 117.972 139.884 118.73 140.446 119.247C141.009 119.759 141.685 120.014 142.474 120.014ZM158.512 104.545V122H155.87V107.188H155.768L151.592 109.915V107.392L155.947 104.545H158.512Z" fill="black"/>
</g>
</g>
</svg>
