<svg width="979" height="653" viewBox="0 0 979 653" fill="none" xmlns="http://www.w3.org/2000/svg">
<g id="Frame 1">
<rect width="979" height="653" fill="white"/>
<g id="Room-Hallway-3">
<path fill-rule="evenodd" clip-rule="evenodd" d="M203.5 186V158V108H222H249.5V186V330V400.5V436.5H319.5H462.5H620.5H737.5H822.5V459V484.5H765.5H737.5H620.5V612H532V484.5H374H222H203.5V360H78V274H203.5V186Z" fill="#0F52BA" fill-opacity="0.25"/>
<path fill-rule="evenodd" clip-rule="evenodd" d="M203.5 186V158V108H222H249.5V186V330V400.5V436.5H319.5H462.5H620.5H737.5H822.5V459V484.5H765.5H737.5H620.5V612H532V484.5H374H222H203.5V360H78V274H203.5V186Z" stroke="black" stroke-width="5"/>
<path fill-rule="evenodd" clip-rule="evenodd" d="M203.5 186V158V108H222H249.5V186V330V400.5V436.5H319.5H462.5H620.5H737.5H822.5V459V484.5H765.5H737.5H620.5V612H532V484.5H374H222H203.5V360H78V274H203.5V186Z" stroke="black" stroke-width="5"/>
</g>
<g id="Room-Bathroom-3">
<g id="Bathroom-3">
<path fill-rule="evenodd" clip-rule="evenodd" d="M462.5 436.5H319.5V400.5H249.5V330H319.5V310H398.5H462.5V436.5Z" fill="#0F52BA" fill-opacity="0.25"/>
<path fill-rule="evenodd" clip-rule="evenodd" d="M462.5 436.5H319.5V400.5H249.5V330H319.5V310H398.5H462.5V436.5Z" stroke="black" stroke-width="5"/>
<path fill-rule="evenodd" clip-rule="evenodd" d="M462.5 436.5H319.5V400.5H249.5V330H319.5V310H398.5H462.5V436.5Z" stroke="black" stroke-width="5"/>
</g>
<path id="Bathroom-3_2" d="M325.918 383V365.545H332.31C333.548 365.545 334.574 365.75 335.386 366.159C336.199 366.562 336.807 367.111 337.21 367.804C337.614 368.491 337.815 369.267 337.815 370.131C337.815 370.858 337.682 371.472 337.415 371.972C337.148 372.466 336.79 372.864 336.341 373.165C335.898 373.46 335.409 373.676 334.875 373.812V373.983C335.455 374.011 336.02 374.199 336.571 374.545C337.128 374.886 337.588 375.372 337.952 376.003C338.315 376.634 338.497 377.401 338.497 378.304C338.497 379.196 338.287 379.997 337.866 380.707C337.452 381.412 336.81 381.972 335.94 382.386C335.071 382.795 333.96 383 332.608 383H325.918ZM328.551 380.741H332.352C333.614 380.741 334.517 380.497 335.062 380.009C335.608 379.52 335.881 378.909 335.881 378.176C335.881 377.625 335.741 377.119 335.463 376.659C335.185 376.199 334.787 375.832 334.27 375.56C333.759 375.287 333.151 375.151 332.446 375.151H328.551V380.741ZM328.551 373.097H332.08C332.67 373.097 333.202 372.983 333.673 372.756C334.151 372.528 334.528 372.21 334.807 371.801C335.091 371.386 335.233 370.898 335.233 370.335C335.233 369.614 334.98 369.009 334.474 368.52C333.969 368.031 333.193 367.787 332.148 367.787H328.551V373.097ZM345.226 383.29C344.396 383.29 343.646 383.136 342.976 382.83C342.305 382.517 341.774 382.065 341.382 381.474C340.996 380.884 340.803 380.159 340.803 379.301C340.803 378.562 340.945 377.955 341.229 377.477C341.513 377 341.896 376.622 342.379 376.344C342.862 376.065 343.402 375.855 343.999 375.713C344.595 375.571 345.203 375.463 345.822 375.389C346.607 375.298 347.243 375.224 347.732 375.168C348.22 375.105 348.575 375.006 348.797 374.869C349.018 374.733 349.129 374.511 349.129 374.205V374.145C349.129 373.401 348.919 372.824 348.499 372.415C348.084 372.006 347.464 371.801 346.641 371.801C345.783 371.801 345.107 371.991 344.612 372.372C344.124 372.747 343.786 373.165 343.598 373.625L341.203 373.08C341.487 372.284 341.902 371.642 342.447 371.153C342.999 370.659 343.632 370.301 344.348 370.08C345.064 369.852 345.817 369.739 346.607 369.739C347.129 369.739 347.683 369.801 348.268 369.926C348.859 370.045 349.411 370.267 349.922 370.591C350.439 370.915 350.862 371.378 351.192 371.98C351.521 372.577 351.686 373.352 351.686 374.307V383H349.197V381.21H349.095C348.93 381.54 348.683 381.864 348.354 382.182C348.024 382.5 347.601 382.764 347.084 382.974C346.567 383.185 345.947 383.29 345.226 383.29ZM345.78 381.244C346.484 381.244 347.087 381.105 347.587 380.827C348.092 380.548 348.476 380.185 348.737 379.736C349.004 379.281 349.138 378.795 349.138 378.278V376.591C349.047 376.682 348.871 376.767 348.609 376.847C348.354 376.92 348.061 376.986 347.732 377.043C347.402 377.094 347.081 377.142 346.768 377.188C346.456 377.227 346.195 377.261 345.984 377.29C345.49 377.352 345.038 377.457 344.629 377.605C344.226 377.753 343.902 377.966 343.658 378.244C343.419 378.517 343.3 378.881 343.3 379.335C343.3 379.966 343.533 380.443 343.999 380.767C344.464 381.085 345.058 381.244 345.78 381.244ZM361.191 369.909V371.955H354.04V369.909H361.191ZM355.958 366.773H358.506V379.156C358.506 379.651 358.58 380.023 358.728 380.273C358.876 380.517 359.066 380.685 359.299 380.776C359.538 380.861 359.796 380.903 360.075 380.903C360.279 380.903 360.458 380.889 360.612 380.861C360.765 380.832 360.884 380.81 360.969 380.793L361.43 382.898C361.282 382.955 361.072 383.011 360.799 383.068C360.526 383.131 360.185 383.165 359.776 383.17C359.106 383.182 358.481 383.062 357.901 382.812C357.322 382.562 356.853 382.176 356.495 381.653C356.137 381.131 355.958 380.474 355.958 379.685V366.773ZM366.839 375.227V383H364.291V365.545H366.805V372.04H366.967C367.274 371.335 367.743 370.776 368.374 370.361C369.004 369.946 369.828 369.739 370.845 369.739C371.743 369.739 372.527 369.923 373.197 370.293C373.874 370.662 374.396 371.213 374.766 371.946C375.141 372.673 375.328 373.582 375.328 374.673V383H372.78V374.98C372.78 374.02 372.533 373.276 372.038 372.747C371.544 372.213 370.857 371.946 369.976 371.946C369.374 371.946 368.834 372.074 368.357 372.33C367.885 372.585 367.513 372.96 367.24 373.455C366.973 373.943 366.839 374.534 366.839 375.227ZM378.729 383V369.909H381.192V371.989H381.328C381.567 371.284 381.987 370.73 382.589 370.327C383.197 369.918 383.885 369.713 384.652 369.713C384.811 369.713 384.999 369.719 385.214 369.73C385.436 369.741 385.609 369.756 385.734 369.773V372.21C385.632 372.182 385.45 372.151 385.189 372.116C384.928 372.077 384.666 372.057 384.405 372.057C383.803 372.057 383.266 372.185 382.794 372.44C382.328 372.69 381.959 373.04 381.686 373.489C381.413 373.932 381.277 374.437 381.277 375.006V383H378.729ZM392.985 383.264C391.758 383.264 390.687 382.983 389.772 382.42C388.857 381.858 388.147 381.071 387.641 380.06C387.136 379.048 386.883 377.866 386.883 376.514C386.883 375.156 387.136 373.969 387.641 372.952C388.147 371.935 388.857 371.145 389.772 370.582C390.687 370.02 391.758 369.739 392.985 369.739C394.212 369.739 395.283 370.02 396.198 370.582C397.113 371.145 397.823 371.935 398.329 372.952C398.835 373.969 399.087 375.156 399.087 376.514C399.087 377.866 398.835 379.048 398.329 380.06C397.823 381.071 397.113 381.858 396.198 382.42C395.283 382.983 394.212 383.264 392.985 383.264ZM392.994 381.125C393.789 381.125 394.448 380.915 394.971 380.494C395.494 380.074 395.88 379.514 396.13 378.815C396.386 378.116 396.513 377.347 396.513 376.506C396.513 375.67 396.386 374.903 396.13 374.205C395.88 373.5 395.494 372.935 394.971 372.509C394.448 372.082 393.789 371.869 392.994 371.869C392.192 371.869 391.528 372.082 390.999 372.509C390.477 372.935 390.087 373.5 389.832 374.205C389.582 374.903 389.457 375.67 389.457 376.506C389.457 377.347 389.582 378.116 389.832 378.815C390.087 379.514 390.477 380.074 390.999 380.494C391.528 380.915 392.192 381.125 392.994 381.125ZM407.446 383.264C406.219 383.264 405.148 382.983 404.233 382.42C403.318 381.858 402.608 381.071 402.102 380.06C401.597 379.048 401.344 377.866 401.344 376.514C401.344 375.156 401.597 373.969 402.102 372.952C402.608 371.935 403.318 371.145 404.233 370.582C405.148 370.02 406.219 369.739 407.446 369.739C408.673 369.739 409.744 370.02 410.659 370.582C411.574 371.145 412.284 371.935 412.79 372.952C413.295 373.969 413.548 375.156 413.548 376.514C413.548 377.866 413.295 379.048 412.79 380.06C412.284 381.071 411.574 381.858 410.659 382.42C409.744 382.983 408.673 383.264 407.446 383.264ZM407.455 381.125C408.25 381.125 408.909 380.915 409.432 380.494C409.955 380.074 410.341 379.514 410.591 378.815C410.847 378.116 410.974 377.347 410.974 376.506C410.974 375.67 410.847 374.903 410.591 374.205C410.341 373.5 409.955 372.935 409.432 372.509C408.909 372.082 408.25 371.869 407.455 371.869C406.653 371.869 405.989 372.082 405.46 372.509C404.938 372.935 404.548 373.5 404.293 374.205C404.043 374.903 403.918 375.67 403.918 376.506C403.918 377.347 404.043 378.116 404.293 378.815C404.548 379.514 404.938 380.074 405.46 380.494C405.989 380.915 406.653 381.125 407.455 381.125ZM416.393 383V369.909H418.839V372.04H419.001C419.273 371.318 419.719 370.756 420.339 370.352C420.958 369.943 421.7 369.739 422.563 369.739C423.438 369.739 424.171 369.943 424.762 370.352C425.359 370.761 425.799 371.324 426.083 372.04H426.219C426.532 371.341 427.029 370.784 427.711 370.369C428.393 369.949 429.205 369.739 430.148 369.739C431.336 369.739 432.305 370.111 433.055 370.855C433.81 371.599 434.188 372.722 434.188 374.222V383H431.64V374.46C431.64 373.574 431.398 372.932 430.915 372.534C430.433 372.136 429.856 371.938 429.185 371.938C428.356 371.938 427.711 372.193 427.251 372.705C426.79 373.21 426.56 373.861 426.56 374.656V383H424.021V374.298C424.021 373.588 423.799 373.017 423.356 372.585C422.913 372.153 422.336 371.938 421.626 371.938C421.143 371.938 420.697 372.065 420.288 372.321C419.884 372.571 419.558 372.92 419.308 373.369C419.063 373.818 418.941 374.338 418.941 374.929V383H416.393Z" fill="black"/>
</g>
<g id="Room-312">
<g id="312">
<path d="M398.5 42H222V108H249.5V186H398.5V158V42Z" fill="#0F52BA" fill-opacity="0.25"/>
<path d="M398.5 42H222V108H249.5V186H398.5V158V42Z" stroke="black" stroke-width="5"/>
<path d="M398.5 42H222V108H249.5V186H398.5V158V42Z" stroke="black" stroke-width="5"/>
</g>
<path id="312_2" d="M309.756 122.239C308.585 122.239 307.54 122.037 306.619 121.634C305.705 121.23 304.98 120.67 304.446 119.955C303.918 119.233 303.634 118.398 303.594 117.449H306.27C306.304 117.966 306.477 118.415 306.79 118.795C307.108 119.17 307.523 119.46 308.034 119.665C308.545 119.869 309.114 119.972 309.739 119.972C310.426 119.972 311.034 119.852 311.562 119.614C312.097 119.375 312.514 119.043 312.815 118.616C313.116 118.185 313.267 117.688 313.267 117.125C313.267 116.54 313.116 116.026 312.815 115.582C312.52 115.134 312.085 114.781 311.511 114.526C310.943 114.27 310.256 114.142 309.449 114.142H307.974V111.994H309.449C310.097 111.994 310.665 111.878 311.153 111.645C311.648 111.412 312.034 111.088 312.312 110.673C312.591 110.253 312.73 109.761 312.73 109.199C312.73 108.659 312.608 108.19 312.364 107.793C312.125 107.389 311.784 107.074 311.341 106.847C310.903 106.619 310.386 106.506 309.79 106.506C309.222 106.506 308.69 106.611 308.196 106.821C307.707 107.026 307.31 107.321 307.003 107.707C306.696 108.088 306.531 108.545 306.509 109.08H303.96C303.989 108.136 304.267 107.307 304.795 106.591C305.33 105.875 306.034 105.315 306.909 104.912C307.784 104.509 308.756 104.307 309.824 104.307C310.943 104.307 311.909 104.526 312.722 104.963C313.54 105.395 314.17 105.972 314.614 106.693C315.063 107.415 315.284 108.205 315.278 109.062C315.284 110.04 315.011 110.869 314.46 111.551C313.915 112.233 313.188 112.69 312.278 112.923V113.06C313.438 113.236 314.335 113.696 314.972 114.44C315.614 115.185 315.932 116.108 315.926 117.21C315.932 118.17 315.665 119.031 315.125 119.793C314.591 120.554 313.861 121.153 312.935 121.591C312.009 122.023 310.949 122.239 309.756 122.239ZM325.77 104.545V122H323.128V107.188H323.026L318.849 109.915V107.392L323.205 104.545H325.77ZM330.491 122V120.091L336.398 113.972C337.028 113.307 337.548 112.724 337.957 112.224C338.372 111.719 338.682 111.239 338.886 110.784C339.091 110.33 339.193 109.847 339.193 109.335C339.193 108.756 339.057 108.256 338.784 107.835C338.511 107.409 338.139 107.082 337.668 106.855C337.196 106.622 336.665 106.506 336.074 106.506C335.449 106.506 334.903 106.634 334.438 106.889C333.972 107.145 333.614 107.506 333.364 107.972C333.114 108.437 332.989 108.983 332.989 109.608H330.474C330.474 108.545 330.719 107.616 331.207 106.821C331.696 106.026 332.366 105.409 333.219 104.972C334.071 104.528 335.04 104.307 336.125 104.307C337.222 104.307 338.188 104.526 339.023 104.963C339.864 105.395 340.52 105.986 340.991 106.736C341.463 107.48 341.699 108.321 341.699 109.259C341.699 109.906 341.577 110.54 341.332 111.159C341.094 111.778 340.676 112.469 340.08 113.23C339.483 113.986 338.653 114.903 337.591 115.983L334.122 119.614V119.741H341.98V122H330.491Z" fill="black"/>
</g>
<g id="Room-311">
<g id="311">
<path fill-rule="evenodd" clip-rule="evenodd" d="M398.5 310H319.5V330H249.5V186H398.5V310Z" fill="#0F52BA" fill-opacity="0.25"/>
<path fill-rule="evenodd" clip-rule="evenodd" d="M398.5 310H319.5V330H249.5V186H398.5V310Z" stroke="black" stroke-width="5"/>
<path fill-rule="evenodd" clip-rule="evenodd" d="M398.5 310H319.5V330H249.5V186H398.5V310Z" stroke="black" stroke-width="5"/>
</g>
<path id="311_2" d="M312.756 262.239C311.585 262.239 310.54 262.037 309.619 261.634C308.705 261.23 307.98 260.67 307.446 259.955C306.918 259.233 306.634 258.398 306.594 257.449H309.27C309.304 257.966 309.477 258.415 309.79 258.795C310.108 259.17 310.523 259.46 311.034 259.665C311.545 259.869 312.114 259.972 312.739 259.972C313.426 259.972 314.034 259.852 314.562 259.614C315.097 259.375 315.514 259.043 315.815 258.616C316.116 258.185 316.267 257.688 316.267 257.125C316.267 256.54 316.116 256.026 315.815 255.582C315.52 255.134 315.085 254.781 314.511 254.526C313.943 254.27 313.256 254.142 312.449 254.142H310.974V251.994H312.449C313.097 251.994 313.665 251.878 314.153 251.645C314.648 251.412 315.034 251.088 315.312 250.673C315.591 250.253 315.73 249.761 315.73 249.199C315.73 248.659 315.608 248.19 315.364 247.793C315.125 247.389 314.784 247.074 314.341 246.847C313.903 246.619 313.386 246.506 312.79 246.506C312.222 246.506 311.69 246.611 311.196 246.821C310.707 247.026 310.31 247.321 310.003 247.707C309.696 248.088 309.531 248.545 309.509 249.08H306.96C306.989 248.136 307.267 247.307 307.795 246.591C308.33 245.875 309.034 245.315 309.909 244.912C310.784 244.509 311.756 244.307 312.824 244.307C313.943 244.307 314.909 244.526 315.722 244.963C316.54 245.395 317.17 245.972 317.614 246.693C318.063 247.415 318.284 248.205 318.278 249.062C318.284 250.04 318.011 250.869 317.46 251.551C316.915 252.233 316.188 252.69 315.278 252.923V253.06C316.438 253.236 317.335 253.696 317.972 254.44C318.614 255.185 318.932 256.108 318.926 257.21C318.932 258.17 318.665 259.031 318.125 259.793C317.591 260.554 316.861 261.153 315.935 261.591C315.009 262.023 313.949 262.239 312.756 262.239ZM328.77 244.545V262H326.128V247.188H326.026L321.849 249.915V247.392L326.205 244.545H328.77ZM340.114 244.545V262H337.472V247.188H337.369L333.193 249.915V247.392L337.548 244.545H340.114Z" fill="black"/>
</g>
<g id="Room-310">
<g id="310">
<path fill-rule="evenodd" clip-rule="evenodd" d="M621 437V310H553.778H463V437H553.778H621Z" fill="#0F52BA" fill-opacity="0.25"/>
<path fill-rule="evenodd" clip-rule="evenodd" d="M621 437V310H553.778H463V437H553.778H621Z" stroke="black" stroke-width="5"/>
<path fill-rule="evenodd" clip-rule="evenodd" d="M621 437V310H553.778H463V437H553.778H621Z" stroke="black" stroke-width="5"/>
</g>
<path id="310_2" d="M526.756 383.239C525.585 383.239 524.54 383.037 523.619 382.634C522.705 382.23 521.98 381.67 521.446 380.955C520.918 380.233 520.634 379.398 520.594 378.449H523.27C523.304 378.966 523.477 379.415 523.79 379.795C524.108 380.17 524.523 380.46 525.034 380.665C525.545 380.869 526.114 380.972 526.739 380.972C527.426 380.972 528.034 380.852 528.562 380.614C529.097 380.375 529.514 380.043 529.815 379.616C530.116 379.185 530.267 378.688 530.267 378.125C530.267 377.54 530.116 377.026 529.815 376.582C529.52 376.134 529.085 375.781 528.511 375.526C527.943 375.27 527.256 375.142 526.449 375.142H524.974V372.994H526.449C527.097 372.994 527.665 372.878 528.153 372.645C528.648 372.412 529.034 372.088 529.312 371.673C529.591 371.253 529.73 370.761 529.73 370.199C529.73 369.659 529.608 369.19 529.364 368.793C529.125 368.389 528.784 368.074 528.341 367.847C527.903 367.619 527.386 367.506 526.79 367.506C526.222 367.506 525.69 367.611 525.196 367.821C524.707 368.026 524.31 368.321 524.003 368.707C523.696 369.088 523.531 369.545 523.509 370.08H520.96C520.989 369.136 521.267 368.307 521.795 367.591C522.33 366.875 523.034 366.315 523.909 365.912C524.784 365.509 525.756 365.307 526.824 365.307C527.943 365.307 528.909 365.526 529.722 365.963C530.54 366.395 531.17 366.972 531.614 367.693C532.063 368.415 532.284 369.205 532.278 370.062C532.284 371.04 532.011 371.869 531.46 372.551C530.915 373.233 530.188 373.69 529.278 373.923V374.06C530.438 374.236 531.335 374.696 531.972 375.44C532.614 376.185 532.932 377.108 532.926 378.21C532.932 379.17 532.665 380.031 532.125 380.793C531.591 381.554 530.861 382.153 529.935 382.591C529.009 383.023 527.949 383.239 526.756 383.239ZM542.77 365.545V383H540.128V368.188H540.026L535.849 370.915V368.392L540.205 365.545H542.77ZM553.568 383.29C552.222 383.284 551.071 382.929 550.116 382.224C549.162 381.52 548.432 380.494 547.926 379.148C547.42 377.801 547.168 376.179 547.168 374.281C547.168 372.389 547.42 370.773 547.926 369.432C548.438 368.091 549.17 367.068 550.125 366.364C551.085 365.659 552.233 365.307 553.568 365.307C554.903 365.307 556.048 365.662 557.003 366.372C557.957 367.077 558.688 368.099 559.193 369.44C559.705 370.776 559.96 372.389 559.96 374.281C559.96 376.185 559.707 377.81 559.202 379.156C558.696 380.497 557.966 381.523 557.011 382.233C556.057 382.938 554.909 383.29 553.568 383.29ZM553.568 381.014C554.75 381.014 555.673 380.438 556.338 379.284C557.009 378.131 557.344 376.463 557.344 374.281C557.344 372.832 557.19 371.608 556.884 370.608C556.582 369.602 556.148 368.841 555.58 368.324C555.017 367.801 554.347 367.54 553.568 367.54C552.392 367.54 551.469 368.119 550.798 369.278C550.128 370.437 549.79 372.105 549.784 374.281C549.784 375.736 549.935 376.966 550.236 377.972C550.543 378.972 550.977 379.73 551.54 380.247C552.102 380.759 552.778 381.014 553.568 381.014Z" fill="black"/>
</g>
<g id="Room-309">
<g id="309">
<path fill-rule="evenodd" clip-rule="evenodd" d="M738 437V310H688.222H621V437H688.222H738Z" fill="#0F52BA" fill-opacity="0.25"/>
<path fill-rule="evenodd" clip-rule="evenodd" d="M738 437V310H688.222H621V437H688.222H738Z" stroke="black" stroke-width="5"/>
<path fill-rule="evenodd" clip-rule="evenodd" d="M738 437V310H688.222H621V437H688.222H738Z" stroke="black" stroke-width="5"/>
</g>
<path id="309_2" d="M663.756 383.239C662.585 383.239 661.54 383.037 660.619 382.634C659.705 382.23 658.98 381.67 658.446 380.955C657.918 380.233 657.634 379.398 657.594 378.449H660.27C660.304 378.966 660.477 379.415 660.79 379.795C661.108 380.17 661.523 380.46 662.034 380.665C662.545 380.869 663.114 380.972 663.739 380.972C664.426 380.972 665.034 380.852 665.562 380.614C666.097 380.375 666.514 380.043 666.815 379.616C667.116 379.185 667.267 378.688 667.267 378.125C667.267 377.54 667.116 377.026 666.815 376.582C666.52 376.134 666.085 375.781 665.511 375.526C664.943 375.27 664.256 375.142 663.449 375.142H661.974V372.994H663.449C664.097 372.994 664.665 372.878 665.153 372.645C665.648 372.412 666.034 372.088 666.312 371.673C666.591 371.253 666.73 370.761 666.73 370.199C666.73 369.659 666.608 369.19 666.364 368.793C666.125 368.389 665.784 368.074 665.341 367.847C664.903 367.619 664.386 367.506 663.79 367.506C663.222 367.506 662.69 367.611 662.196 367.821C661.707 368.026 661.31 368.321 661.003 368.707C660.696 369.088 660.531 369.545 660.509 370.08H657.96C657.989 369.136 658.267 368.307 658.795 367.591C659.33 366.875 660.034 366.315 660.909 365.912C661.784 365.509 662.756 365.307 663.824 365.307C664.943 365.307 665.909 365.526 666.722 365.963C667.54 366.395 668.17 366.972 668.614 367.693C669.063 368.415 669.284 369.205 669.278 370.062C669.284 371.04 669.011 371.869 668.46 372.551C667.915 373.233 667.188 373.69 666.278 373.923V374.06C667.438 374.236 668.335 374.696 668.972 375.44C669.614 376.185 669.932 377.108 669.926 378.21C669.932 379.17 669.665 380.031 669.125 380.793C668.591 381.554 667.861 382.153 666.935 382.591C666.009 383.023 664.949 383.239 663.756 383.239ZM679.224 383.29C677.878 383.284 676.727 382.929 675.773 382.224C674.818 381.52 674.088 380.494 673.582 379.148C673.077 377.801 672.824 376.179 672.824 374.281C672.824 372.389 673.077 370.773 673.582 369.432C674.094 368.091 674.827 367.068 675.781 366.364C676.741 365.659 677.889 365.307 679.224 365.307C680.56 365.307 681.705 365.662 682.659 366.372C683.614 367.077 684.344 368.099 684.849 369.44C685.361 370.776 685.616 372.389 685.616 374.281C685.616 376.185 685.364 377.81 684.858 379.156C684.352 380.497 683.622 381.523 682.668 382.233C681.713 382.938 680.565 383.29 679.224 383.29ZM679.224 381.014C680.406 381.014 681.33 380.438 681.994 379.284C682.665 378.131 683 376.463 683 374.281C683 372.832 682.847 371.608 682.54 370.608C682.239 369.602 681.804 368.841 681.236 368.324C680.673 367.801 680.003 367.54 679.224 367.54C678.048 367.54 677.125 368.119 676.455 369.278C675.784 370.437 675.446 372.105 675.44 374.281C675.44 375.736 675.591 376.966 675.892 377.972C676.199 378.972 676.634 379.73 677.196 380.247C677.759 380.759 678.435 381.014 679.224 381.014ZM694.444 365.307C695.222 365.312 695.989 365.455 696.745 365.733C697.501 366.011 698.183 366.466 698.79 367.097C699.404 367.727 699.893 368.58 700.256 369.653C700.626 370.722 700.813 372.051 700.819 373.642C700.819 375.17 700.665 376.531 700.359 377.724C700.052 378.912 699.612 379.915 699.038 380.733C698.469 381.551 697.779 382.173 696.967 382.599C696.154 383.026 695.239 383.239 694.222 383.239C693.183 383.239 692.259 383.034 691.452 382.625C690.646 382.216 689.989 381.651 689.484 380.929C688.978 380.202 688.663 379.366 688.538 378.423H691.137C691.308 379.173 691.654 379.781 692.177 380.247C692.705 380.707 693.387 380.938 694.222 380.938C695.501 380.938 696.498 380.381 697.214 379.267C697.93 378.148 698.29 376.585 698.296 374.58H698.16C697.864 375.068 697.495 375.489 697.052 375.841C696.614 376.193 696.123 376.466 695.577 376.659C695.032 376.852 694.45 376.949 693.83 376.949C692.825 376.949 691.91 376.702 691.086 376.207C690.262 375.713 689.606 375.034 689.117 374.17C688.629 373.307 688.384 372.321 688.384 371.213C688.384 370.111 688.634 369.111 689.134 368.213C689.64 367.315 690.344 366.605 691.248 366.082C692.157 365.554 693.222 365.295 694.444 365.307ZM694.452 367.523C693.788 367.523 693.188 367.687 692.654 368.017C692.126 368.341 691.708 368.781 691.401 369.338C691.094 369.889 690.941 370.503 690.941 371.179C690.941 371.855 691.089 372.469 691.384 373.02C691.685 373.565 692.094 374 692.612 374.324C693.134 374.642 693.731 374.801 694.401 374.801C694.901 374.801 695.367 374.705 695.799 374.511C696.231 374.318 696.609 374.051 696.933 373.71C697.256 373.364 697.509 372.972 697.691 372.534C697.873 372.097 697.964 371.636 697.964 371.153C697.964 370.511 697.81 369.915 697.504 369.364C697.202 368.812 696.788 368.369 696.259 368.034C695.731 367.693 695.129 367.523 694.452 367.523Z" fill="black"/>
</g>
<g id="Room-308">
<g id="308">
<path fill-rule="evenodd" clip-rule="evenodd" d="M737.5 310H765.5H910.5V461L822.5 459V436.5H737.5V310Z" fill="#0F52BA" fill-opacity="0.25"/>
<path fill-rule="evenodd" clip-rule="evenodd" d="M737.5 310H765.5H910.5V461L822.5 459V436.5H737.5V310Z" stroke="black" stroke-width="5"/>
<path fill-rule="evenodd" clip-rule="evenodd" d="M737.5 310H765.5H910.5V461L822.5 459V436.5H737.5V310Z" stroke="black" stroke-width="5"/>
</g>
<path id="308_2" d="M808.756 383.239C807.585 383.239 806.54 383.037 805.619 382.634C804.705 382.23 803.98 381.67 803.446 380.955C802.918 380.233 802.634 379.398 802.594 378.449H805.27C805.304 378.966 805.477 379.415 805.79 379.795C806.108 380.17 806.523 380.46 807.034 380.665C807.545 380.869 808.114 380.972 808.739 380.972C809.426 380.972 810.034 380.852 810.562 380.614C811.097 380.375 811.514 380.043 811.815 379.616C812.116 379.185 812.267 378.688 812.267 378.125C812.267 377.54 812.116 377.026 811.815 376.582C811.52 376.134 811.085 375.781 810.511 375.526C809.943 375.27 809.256 375.142 808.449 375.142H806.974V372.994H808.449C809.097 372.994 809.665 372.878 810.153 372.645C810.648 372.412 811.034 372.088 811.312 371.673C811.591 371.253 811.73 370.761 811.73 370.199C811.73 369.659 811.608 369.19 811.364 368.793C811.125 368.389 810.784 368.074 810.341 367.847C809.903 367.619 809.386 367.506 808.79 367.506C808.222 367.506 807.69 367.611 807.196 367.821C806.707 368.026 806.31 368.321 806.003 368.707C805.696 369.088 805.531 369.545 805.509 370.08H802.96C802.989 369.136 803.267 368.307 803.795 367.591C804.33 366.875 805.034 366.315 805.909 365.912C806.784 365.509 807.756 365.307 808.824 365.307C809.943 365.307 810.909 365.526 811.722 365.963C812.54 366.395 813.17 366.972 813.614 367.693C814.063 368.415 814.284 369.205 814.278 370.062C814.284 371.04 814.011 371.869 813.46 372.551C812.915 373.233 812.188 373.69 811.278 373.923V374.06C812.438 374.236 813.335 374.696 813.972 375.44C814.614 376.185 814.932 377.108 814.926 378.21C814.932 379.17 814.665 380.031 814.125 380.793C813.591 381.554 812.861 382.153 811.935 382.591C811.009 383.023 809.949 383.239 808.756 383.239ZM824.224 383.29C822.878 383.284 821.727 382.929 820.773 382.224C819.818 381.52 819.088 380.494 818.582 379.148C818.077 377.801 817.824 376.179 817.824 374.281C817.824 372.389 818.077 370.773 818.582 369.432C819.094 368.091 819.827 367.068 820.781 366.364C821.741 365.659 822.889 365.307 824.224 365.307C825.56 365.307 826.705 365.662 827.659 366.372C828.614 367.077 829.344 368.099 829.849 369.44C830.361 370.776 830.616 372.389 830.616 374.281C830.616 376.185 830.364 377.81 829.858 379.156C829.352 380.497 828.622 381.523 827.668 382.233C826.713 382.938 825.565 383.29 824.224 383.29ZM824.224 381.014C825.406 381.014 826.33 380.438 826.994 379.284C827.665 378.131 828 376.463 828 374.281C828 372.832 827.847 371.608 827.54 370.608C827.239 369.602 826.804 368.841 826.236 368.324C825.673 367.801 825.003 367.54 824.224 367.54C823.048 367.54 822.125 368.119 821.455 369.278C820.784 370.437 820.446 372.105 820.44 374.281C820.44 375.736 820.591 376.966 820.892 377.972C821.199 378.972 821.634 379.73 822.196 380.247C822.759 380.759 823.435 381.014 824.224 381.014ZM839.538 383.239C838.316 383.239 837.237 383.028 836.299 382.608C835.367 382.187 834.637 381.608 834.109 380.869C833.58 380.131 833.319 379.29 833.325 378.347C833.319 377.608 833.469 376.929 833.776 376.31C834.089 375.685 834.512 375.165 835.046 374.75C835.58 374.33 836.177 374.062 836.836 373.949V373.847C835.967 373.636 835.271 373.17 834.748 372.449C834.225 371.727 833.967 370.898 833.972 369.96C833.967 369.068 834.202 368.273 834.68 367.574C835.163 366.869 835.825 366.315 836.665 365.912C837.506 365.509 838.464 365.307 839.538 365.307C840.6 365.307 841.549 365.511 842.384 365.92C843.225 366.324 843.887 366.878 844.37 367.582C844.853 368.281 845.097 369.074 845.103 369.96C845.097 370.898 844.83 371.727 844.302 372.449C843.773 373.17 843.086 373.636 842.239 373.847V373.949C842.893 374.062 843.481 374.33 844.004 374.75C844.532 375.165 844.952 375.685 845.265 376.31C845.583 376.929 845.745 377.608 845.751 378.347C845.745 379.29 845.478 380.131 844.95 380.869C844.421 381.608 843.688 382.187 842.751 382.608C841.819 383.028 840.748 383.239 839.538 383.239ZM839.538 381.082C840.259 381.082 840.884 380.963 841.413 380.724C841.941 380.48 842.35 380.142 842.64 379.71C842.93 379.273 843.077 378.761 843.083 378.176C843.077 377.568 842.918 377.031 842.606 376.565C842.299 376.099 841.881 375.733 841.353 375.466C840.825 375.199 840.219 375.065 839.538 375.065C838.85 375.065 838.239 375.199 837.705 375.466C837.171 375.733 836.751 376.099 836.444 376.565C836.137 377.031 835.987 377.568 835.992 378.176C835.987 378.761 836.126 379.273 836.41 379.71C836.7 380.142 837.112 380.48 837.646 380.724C838.18 380.963 838.81 381.082 839.538 381.082ZM839.538 372.96C840.117 372.96 840.631 372.844 841.08 372.611C841.529 372.378 841.881 372.054 842.137 371.639C842.398 371.224 842.532 370.739 842.538 370.182C842.532 369.636 842.401 369.159 842.146 368.75C841.896 368.341 841.546 368.026 841.097 367.804C840.648 367.577 840.129 367.463 839.538 367.463C838.935 367.463 838.407 367.577 837.952 367.804C837.504 368.026 837.154 368.341 836.904 368.75C836.654 369.159 836.532 369.636 836.538 370.182C836.532 370.739 836.657 371.224 836.913 371.639C837.168 372.054 837.521 372.378 837.969 372.611C838.424 372.844 838.947 372.96 839.538 372.96Z" fill="black"/>
</g>
<g id="Room-307">
<g id="307">
<path fill-rule="evenodd" clip-rule="evenodd" d="M737.5 612V484.5H765.5H822.5V459L910.5 461V612H737.5Z" fill="#0F52BA" fill-opacity="0.25"/>
<path fill-rule="evenodd" clip-rule="evenodd" d="M737.5 612V484.5H765.5H822.5V459L910.5 461V612H737.5Z" stroke="black" stroke-width="5"/>
<path fill-rule="evenodd" clip-rule="evenodd" d="M737.5 612V484.5H765.5H822.5V459L910.5 461V612H737.5Z" stroke="black" stroke-width="5"/>
</g>
<path id="307_2" d="M808.756 559.239C807.585 559.239 806.54 559.037 805.619 558.634C804.705 558.23 803.98 557.67 803.446 556.955C802.918 556.233 802.634 555.398 802.594 554.449H805.27C805.304 554.966 805.477 555.415 805.79 555.795C806.108 556.17 806.523 556.46 807.034 556.665C807.545 556.869 808.114 556.972 808.739 556.972C809.426 556.972 810.034 556.852 810.562 556.614C811.097 556.375 811.514 556.043 811.815 555.616C812.116 555.185 812.267 554.688 812.267 554.125C812.267 553.54 812.116 553.026 811.815 552.582C811.52 552.134 811.085 551.781 810.511 551.526C809.943 551.27 809.256 551.142 808.449 551.142H806.974V548.994H808.449C809.097 548.994 809.665 548.878 810.153 548.645C810.648 548.412 811.034 548.088 811.312 547.673C811.591 547.253 811.73 546.761 811.73 546.199C811.73 545.659 811.608 545.19 811.364 544.793C811.125 544.389 810.784 544.074 810.341 543.847C809.903 543.619 809.386 543.506 808.79 543.506C808.222 543.506 807.69 543.611 807.196 543.821C806.707 544.026 806.31 544.321 806.003 544.707C805.696 545.088 805.531 545.545 805.509 546.08H802.96C802.989 545.136 803.267 544.307 803.795 543.591C804.33 542.875 805.034 542.315 805.909 541.912C806.784 541.509 807.756 541.307 808.824 541.307C809.943 541.307 810.909 541.526 811.722 541.963C812.54 542.395 813.17 542.972 813.614 543.693C814.063 544.415 814.284 545.205 814.278 546.062C814.284 547.04 814.011 547.869 813.46 548.551C812.915 549.233 812.188 549.69 811.278 549.923V550.06C812.438 550.236 813.335 550.696 813.972 551.44C814.614 552.185 814.932 553.108 814.926 554.21C814.932 555.17 814.665 556.031 814.125 556.793C813.591 557.554 812.861 558.153 811.935 558.591C811.009 559.023 809.949 559.239 808.756 559.239ZM824.224 559.29C822.878 559.284 821.727 558.929 820.773 558.224C819.818 557.52 819.088 556.494 818.582 555.148C818.077 553.801 817.824 552.179 817.824 550.281C817.824 548.389 818.077 546.773 818.582 545.432C819.094 544.091 819.827 543.068 820.781 542.364C821.741 541.659 822.889 541.307 824.224 541.307C825.56 541.307 826.705 541.662 827.659 542.372C828.614 543.077 829.344 544.099 829.849 545.44C830.361 546.776 830.616 548.389 830.616 550.281C830.616 552.185 830.364 553.81 829.858 555.156C829.352 556.497 828.622 557.523 827.668 558.233C826.713 558.938 825.565 559.29 824.224 559.29ZM824.224 557.014C825.406 557.014 826.33 556.438 826.994 555.284C827.665 554.131 828 552.463 828 550.281C828 548.832 827.847 547.608 827.54 546.608C827.239 545.602 826.804 544.841 826.236 544.324C825.673 543.801 825.003 543.54 824.224 543.54C823.048 543.54 822.125 544.119 821.455 545.278C820.784 546.437 820.446 548.105 820.44 550.281C820.44 551.736 820.591 552.966 820.892 553.972C821.199 554.972 821.634 555.73 822.196 556.247C822.759 556.759 823.435 557.014 824.224 557.014ZM833.759 559L841.379 543.932V543.804H832.566V541.545H844.106V543.881L836.512 559H833.759Z" fill="black"/>
</g>
<g id="Room-306">
<g id="306">
<path fill-rule="evenodd" clip-rule="evenodd" d="M620.5 612V484.5H737.5V612H620.5Z" fill="#0F52BA" fill-opacity="0.25"/>
<path fill-rule="evenodd" clip-rule="evenodd" d="M620.5 612V484.5H737.5V612H620.5Z" stroke="black" stroke-width="5"/>
<path fill-rule="evenodd" clip-rule="evenodd" d="M620.5 612V484.5H737.5V612H620.5Z" stroke="black" stroke-width="5"/>
</g>
<path id="306_2" d="M664.756 559.239C663.585 559.239 662.54 559.037 661.619 558.634C660.705 558.23 659.98 557.67 659.446 556.955C658.918 556.233 658.634 555.398 658.594 554.449H661.27C661.304 554.966 661.477 555.415 661.79 555.795C662.108 556.17 662.523 556.46 663.034 556.665C663.545 556.869 664.114 556.972 664.739 556.972C665.426 556.972 666.034 556.852 666.562 556.614C667.097 556.375 667.514 556.043 667.815 555.616C668.116 555.185 668.267 554.688 668.267 554.125C668.267 553.54 668.116 553.026 667.815 552.582C667.52 552.134 667.085 551.781 666.511 551.526C665.943 551.27 665.256 551.142 664.449 551.142H662.974V548.994H664.449C665.097 548.994 665.665 548.878 666.153 548.645C666.648 548.412 667.034 548.088 667.312 547.673C667.591 547.253 667.73 546.761 667.73 546.199C667.73 545.659 667.608 545.19 667.364 544.793C667.125 544.389 666.784 544.074 666.341 543.847C665.903 543.619 665.386 543.506 664.79 543.506C664.222 543.506 663.69 543.611 663.196 543.821C662.707 544.026 662.31 544.321 662.003 544.707C661.696 545.088 661.531 545.545 661.509 546.08H658.96C658.989 545.136 659.267 544.307 659.795 543.591C660.33 542.875 661.034 542.315 661.909 541.912C662.784 541.509 663.756 541.307 664.824 541.307C665.943 541.307 666.909 541.526 667.722 541.963C668.54 542.395 669.17 542.972 669.614 543.693C670.063 544.415 670.284 545.205 670.278 546.062C670.284 547.04 670.011 547.869 669.46 548.551C668.915 549.233 668.188 549.69 667.278 549.923V550.06C668.438 550.236 669.335 550.696 669.972 551.44C670.614 552.185 670.932 553.108 670.926 554.21C670.932 555.17 670.665 556.031 670.125 556.793C669.591 557.554 668.861 558.153 667.935 558.591C667.009 559.023 665.949 559.239 664.756 559.239ZM680.224 559.29C678.878 559.284 677.727 558.929 676.773 558.224C675.818 557.52 675.088 556.494 674.582 555.148C674.077 553.801 673.824 552.179 673.824 550.281C673.824 548.389 674.077 546.773 674.582 545.432C675.094 544.091 675.827 543.068 676.781 542.364C677.741 541.659 678.889 541.307 680.224 541.307C681.56 541.307 682.705 541.662 683.659 542.372C684.614 543.077 685.344 544.099 685.849 545.44C686.361 546.776 686.616 548.389 686.616 550.281C686.616 552.185 686.364 553.81 685.858 555.156C685.352 556.497 684.622 557.523 683.668 558.233C682.713 558.938 681.565 559.29 680.224 559.29ZM680.224 557.014C681.406 557.014 682.33 556.438 682.994 555.284C683.665 554.131 684 552.463 684 550.281C684 548.832 683.847 547.608 683.54 546.608C683.239 545.602 682.804 544.841 682.236 544.324C681.673 543.801 681.003 543.54 680.224 543.54C679.048 543.54 678.125 544.119 677.455 545.278C676.784 546.437 676.446 548.105 676.44 550.281C676.44 551.736 676.591 552.966 676.892 553.972C677.199 554.972 677.634 555.73 678.196 556.247C678.759 556.759 679.435 557.014 680.224 557.014ZM695.734 559.239C694.955 559.227 694.188 559.085 693.433 558.812C692.683 558.54 692.001 558.085 691.387 557.449C690.773 556.812 690.282 555.957 689.913 554.884C689.549 553.81 689.367 552.469 689.367 550.861C689.367 549.338 689.518 547.986 689.819 546.804C690.126 545.622 690.566 544.625 691.14 543.812C691.714 542.994 692.407 542.372 693.219 541.946C694.032 541.52 694.944 541.307 695.955 541.307C696.995 541.307 697.918 541.511 698.725 541.92C699.532 542.33 700.185 542.895 700.685 543.616C701.191 544.338 701.512 545.159 701.648 546.08H699.049C698.873 545.352 698.523 544.759 698.001 544.298C697.478 543.838 696.796 543.608 695.955 543.608C694.677 543.608 693.68 544.165 692.964 545.278C692.254 546.392 691.896 547.94 691.89 549.923H692.018C692.319 549.429 692.688 549.009 693.126 548.662C693.569 548.31 694.063 548.04 694.609 547.852C695.16 547.659 695.739 547.562 696.347 547.562C697.359 547.562 698.273 547.81 699.092 548.304C699.915 548.793 700.572 549.469 701.06 550.332C701.549 551.196 701.793 552.185 701.793 553.298C701.793 554.412 701.54 555.42 701.035 556.324C700.535 557.227 699.83 557.943 698.921 558.472C698.012 558.994 696.95 559.25 695.734 559.239ZM695.725 557.023C696.396 557.023 696.995 556.858 697.523 556.528C698.052 556.199 698.469 555.756 698.776 555.199C699.083 554.642 699.237 554.02 699.237 553.332C699.237 552.662 699.086 552.051 698.785 551.5C698.489 550.949 698.08 550.511 697.558 550.188C697.04 549.864 696.45 549.702 695.785 549.702C695.279 549.702 694.81 549.798 694.379 549.991C693.952 550.185 693.577 550.452 693.254 550.793C692.93 551.134 692.674 551.526 692.487 551.969C692.305 552.406 692.214 552.869 692.214 553.358C692.214 554.011 692.364 554.616 692.665 555.173C692.972 555.73 693.39 556.179 693.918 556.52C694.452 556.855 695.055 557.023 695.725 557.023Z" fill="black"/>
</g>
<g id="Room-305">
<g id="305">
<path fill-rule="evenodd" clip-rule="evenodd" d="M532 484.5V612H374V484.5H532Z" fill="#0F52BA" fill-opacity="0.25"/>
<path fill-rule="evenodd" clip-rule="evenodd" d="M532 484.5V612H374V484.5H532Z" stroke="black" stroke-width="5"/>
<path fill-rule="evenodd" clip-rule="evenodd" d="M532 484.5V612H374V484.5H532Z" stroke="black" stroke-width="5"/>
</g>
<path id="305_2" d="M437.756 559.239C436.585 559.239 435.54 559.037 434.619 558.634C433.705 558.23 432.98 557.67 432.446 556.955C431.918 556.233 431.634 555.398 431.594 554.449H434.27C434.304 554.966 434.477 555.415 434.79 555.795C435.108 556.17 435.523 556.46 436.034 556.665C436.545 556.869 437.114 556.972 437.739 556.972C438.426 556.972 439.034 556.852 439.562 556.614C440.097 556.375 440.514 556.043 440.815 555.616C441.116 555.185 441.267 554.688 441.267 554.125C441.267 553.54 441.116 553.026 440.815 552.582C440.52 552.134 440.085 551.781 439.511 551.526C438.943 551.27 438.256 551.142 437.449 551.142H435.974V548.994H437.449C438.097 548.994 438.665 548.878 439.153 548.645C439.648 548.412 440.034 548.088 440.312 547.673C440.591 547.253 440.73 546.761 440.73 546.199C440.73 545.659 440.608 545.19 440.364 544.793C440.125 544.389 439.784 544.074 439.341 543.847C438.903 543.619 438.386 543.506 437.79 543.506C437.222 543.506 436.69 543.611 436.196 543.821C435.707 544.026 435.31 544.321 435.003 544.707C434.696 545.088 434.531 545.545 434.509 546.08H431.96C431.989 545.136 432.267 544.307 432.795 543.591C433.33 542.875 434.034 542.315 434.909 541.912C435.784 541.509 436.756 541.307 437.824 541.307C438.943 541.307 439.909 541.526 440.722 541.963C441.54 542.395 442.17 542.972 442.614 543.693C443.063 544.415 443.284 545.205 443.278 546.062C443.284 547.04 443.011 547.869 442.46 548.551C441.915 549.233 441.188 549.69 440.278 549.923V550.06C441.438 550.236 442.335 550.696 442.972 551.44C443.614 552.185 443.932 553.108 443.926 554.21C443.932 555.17 443.665 556.031 443.125 556.793C442.591 557.554 441.861 558.153 440.935 558.591C440.009 559.023 438.949 559.239 437.756 559.239ZM453.224 559.29C451.878 559.284 450.727 558.929 449.773 558.224C448.818 557.52 448.088 556.494 447.582 555.148C447.077 553.801 446.824 552.179 446.824 550.281C446.824 548.389 447.077 546.773 447.582 545.432C448.094 544.091 448.827 543.068 449.781 542.364C450.741 541.659 451.889 541.307 453.224 541.307C454.56 541.307 455.705 541.662 456.659 542.372C457.614 543.077 458.344 544.099 458.849 545.44C459.361 546.776 459.616 548.389 459.616 550.281C459.616 552.185 459.364 553.81 458.858 555.156C458.352 556.497 457.622 557.523 456.668 558.233C455.713 558.938 454.565 559.29 453.224 559.29ZM453.224 557.014C454.406 557.014 455.33 556.438 455.994 555.284C456.665 554.131 457 552.463 457 550.281C457 548.832 456.847 547.608 456.54 546.608C456.239 545.602 455.804 544.841 455.236 544.324C454.673 543.801 454.003 543.54 453.224 543.54C452.048 543.54 451.125 544.119 450.455 545.278C449.784 546.437 449.446 548.105 449.44 550.281C449.44 551.736 449.591 552.966 449.892 553.972C450.199 554.972 450.634 555.73 451.196 556.247C451.759 556.759 452.435 557.014 453.224 557.014ZM468.401 559.239C467.333 559.239 466.373 559.034 465.521 558.625C464.674 558.21 463.998 557.642 463.492 556.92C462.987 556.199 462.717 555.375 462.683 554.449H465.239C465.302 555.199 465.634 555.815 466.237 556.298C466.839 556.781 467.56 557.023 468.401 557.023C469.072 557.023 469.665 556.869 470.183 556.562C470.705 556.25 471.114 555.821 471.41 555.276C471.711 554.73 471.862 554.108 471.862 553.409C471.862 552.699 471.708 552.065 471.401 551.509C471.094 550.952 470.671 550.514 470.131 550.196C469.597 549.878 468.984 549.716 468.29 549.71C467.762 549.71 467.231 549.801 466.697 549.983C466.163 550.165 465.731 550.403 465.401 550.699L462.989 550.341L463.969 541.545H473.566V543.804H466.16L465.606 548.688H465.708C466.049 548.358 466.501 548.082 467.063 547.861C467.631 547.639 468.239 547.528 468.887 547.528C469.95 547.528 470.896 547.781 471.725 548.287C472.56 548.793 473.217 549.483 473.694 550.358C474.177 551.227 474.415 552.227 474.41 553.358C474.415 554.489 474.16 555.497 473.643 556.384C473.131 557.27 472.421 557.969 471.512 558.48C470.609 558.986 469.572 559.239 468.401 559.239Z" fill="black"/>
</g>
<g id="Room-304">
<g id="304">
<path fill-rule="evenodd" clip-rule="evenodd" d="M374 612H222V484.5H374V612Z" fill="#0F52BA" fill-opacity="0.25"/>
<path fill-rule="evenodd" clip-rule="evenodd" d="M374 612H222V484.5H374V612Z" stroke="black" stroke-width="5"/>
<path fill-rule="evenodd" clip-rule="evenodd" d="M374 612H222V484.5H374V612Z" stroke="black" stroke-width="5"/>
</g>
<path id="304_2" d="M282.756 559.239C281.585 559.239 280.54 559.037 279.619 558.634C278.705 558.23 277.98 557.67 277.446 556.955C276.918 556.233 276.634 555.398 276.594 554.449H279.27C279.304 554.966 279.477 555.415 279.79 555.795C280.108 556.17 280.523 556.46 281.034 556.665C281.545 556.869 282.114 556.972 282.739 556.972C283.426 556.972 284.034 556.852 284.562 556.614C285.097 556.375 285.514 556.043 285.815 555.616C286.116 555.185 286.267 554.688 286.267 554.125C286.267 553.54 286.116 553.026 285.815 552.582C285.52 552.134 285.085 551.781 284.511 551.526C283.943 551.27 283.256 551.142 282.449 551.142H280.974V548.994H282.449C283.097 548.994 283.665 548.878 284.153 548.645C284.648 548.412 285.034 548.088 285.312 547.673C285.591 547.253 285.73 546.761 285.73 546.199C285.73 545.659 285.608 545.19 285.364 544.793C285.125 544.389 284.784 544.074 284.341 543.847C283.903 543.619 283.386 543.506 282.79 543.506C282.222 543.506 281.69 543.611 281.196 543.821C280.707 544.026 280.31 544.321 280.003 544.707C279.696 545.088 279.531 545.545 279.509 546.08H276.96C276.989 545.136 277.267 544.307 277.795 543.591C278.33 542.875 279.034 542.315 279.909 541.912C280.784 541.509 281.756 541.307 282.824 541.307C283.943 541.307 284.909 541.526 285.722 541.963C286.54 542.395 287.17 542.972 287.614 543.693C288.063 544.415 288.284 545.205 288.278 546.062C288.284 547.04 288.011 547.869 287.46 548.551C286.915 549.233 286.188 549.69 285.278 549.923V550.06C286.438 550.236 287.335 550.696 287.972 551.44C288.614 552.185 288.932 553.108 288.926 554.21C288.932 555.17 288.665 556.031 288.125 556.793C287.591 557.554 286.861 558.153 285.935 558.591C285.009 559.023 283.949 559.239 282.756 559.239ZM298.224 559.29C296.878 559.284 295.727 558.929 294.773 558.224C293.818 557.52 293.088 556.494 292.582 555.148C292.077 553.801 291.824 552.179 291.824 550.281C291.824 548.389 292.077 546.773 292.582 545.432C293.094 544.091 293.827 543.068 294.781 542.364C295.741 541.659 296.889 541.307 298.224 541.307C299.56 541.307 300.705 541.662 301.659 542.372C302.614 543.077 303.344 544.099 303.849 545.44C304.361 546.776 304.616 548.389 304.616 550.281C304.616 552.185 304.364 553.81 303.858 555.156C303.352 556.497 302.622 557.523 301.668 558.233C300.713 558.938 299.565 559.29 298.224 559.29ZM298.224 557.014C299.406 557.014 300.33 556.438 300.994 555.284C301.665 554.131 302 552.463 302 550.281C302 548.832 301.847 547.608 301.54 546.608C301.239 545.602 300.804 544.841 300.236 544.324C299.673 543.801 299.003 543.54 298.224 543.54C297.048 543.54 296.125 544.119 295.455 545.278C294.784 546.437 294.446 548.105 294.44 550.281C294.44 551.736 294.591 552.966 294.892 553.972C295.199 554.972 295.634 555.73 296.196 556.247C296.759 556.759 297.435 557.014 298.224 557.014ZM307.273 555.591V553.46L314.816 541.545H316.495V544.682H315.43L310.035 553.222V553.358H320.373V555.591H307.273ZM315.549 559V554.943L315.566 553.972V541.545H318.063V559H315.549Z" fill="black"/>
</g>
<g id="Room-303">
<g id="303">
<path fill-rule="evenodd" clip-rule="evenodd" d="M222 484.5V612H78V360H203.5V484.5H222Z" fill="#0F52BA" fill-opacity="0.25"/>
<path fill-rule="evenodd" clip-rule="evenodd" d="M222 484.5V612H78V360H203.5V484.5H222Z" stroke="black" stroke-width="5"/>
<path fill-rule="evenodd" clip-rule="evenodd" d="M222 484.5V612H78V360H203.5V484.5H222Z" stroke="black" stroke-width="5"/>
</g>
<path id="303_2" d="M125.756 467.239C124.585 467.239 123.54 467.037 122.619 466.634C121.705 466.23 120.98 465.67 120.446 464.955C119.918 464.233 119.634 463.398 119.594 462.449H122.27C122.304 462.966 122.477 463.415 122.79 463.795C123.108 464.17 123.523 464.46 124.034 464.665C124.545 464.869 125.114 464.972 125.739 464.972C126.426 464.972 127.034 464.852 127.562 464.614C128.097 464.375 128.514 464.043 128.815 463.616C129.116 463.185 129.267 462.688 129.267 462.125C129.267 461.54 129.116 461.026 128.815 460.582C128.52 460.134 128.085 459.781 127.511 459.526C126.943 459.27 126.256 459.142 125.449 459.142H123.974V456.994H125.449C126.097 456.994 126.665 456.878 127.153 456.645C127.648 456.412 128.034 456.088 128.312 455.673C128.591 455.253 128.73 454.761 128.73 454.199C128.73 453.659 128.608 453.19 128.364 452.793C128.125 452.389 127.784 452.074 127.341 451.847C126.903 451.619 126.386 451.506 125.79 451.506C125.222 451.506 124.69 451.611 124.196 451.821C123.707 452.026 123.31 452.321 123.003 452.707C122.696 453.088 122.531 453.545 122.509 454.08H119.96C119.989 453.136 120.267 452.307 120.795 451.591C121.33 450.875 122.034 450.315 122.909 449.912C123.784 449.509 124.756 449.307 125.824 449.307C126.943 449.307 127.909 449.526 128.722 449.963C129.54 450.395 130.17 450.972 130.614 451.693C131.063 452.415 131.284 453.205 131.278 454.062C131.284 455.04 131.011 455.869 130.46 456.551C129.915 457.233 129.188 457.69 128.278 457.923V458.06C129.438 458.236 130.335 458.696 130.972 459.44C131.614 460.185 131.932 461.108 131.926 462.21C131.932 463.17 131.665 464.031 131.125 464.793C130.591 465.554 129.861 466.153 128.935 466.591C128.009 467.023 126.949 467.239 125.756 467.239ZM141.224 467.29C139.878 467.284 138.727 466.929 137.773 466.224C136.818 465.52 136.088 464.494 135.582 463.148C135.077 461.801 134.824 460.179 134.824 458.281C134.824 456.389 135.077 454.773 135.582 453.432C136.094 452.091 136.827 451.068 137.781 450.364C138.741 449.659 139.889 449.307 141.224 449.307C142.56 449.307 143.705 449.662 144.659 450.372C145.614 451.077 146.344 452.099 146.849 453.44C147.361 454.776 147.616 456.389 147.616 458.281C147.616 460.185 147.364 461.81 146.858 463.156C146.352 464.497 145.622 465.523 144.668 466.233C143.713 466.938 142.565 467.29 141.224 467.29ZM141.224 465.014C142.406 465.014 143.33 464.438 143.994 463.284C144.665 462.131 145 460.463 145 458.281C145 456.832 144.847 455.608 144.54 454.608C144.239 453.602 143.804 452.841 143.236 452.324C142.673 451.801 142.003 451.54 141.224 451.54C140.048 451.54 139.125 452.119 138.455 453.278C137.784 454.437 137.446 456.105 137.44 458.281C137.44 459.736 137.591 460.966 137.892 461.972C138.199 462.972 138.634 463.73 139.196 464.247C139.759 464.759 140.435 465.014 141.224 465.014ZM156.717 467.239C155.546 467.239 154.501 467.037 153.58 466.634C152.665 466.23 151.941 465.67 151.407 464.955C150.879 464.233 150.594 463.398 150.555 462.449H153.231C153.265 462.966 153.438 463.415 153.751 463.795C154.069 464.17 154.484 464.46 154.995 464.665C155.506 464.869 156.075 464.972 156.7 464.972C157.387 464.972 157.995 464.852 158.523 464.614C159.058 464.375 159.475 464.043 159.776 463.616C160.077 463.185 160.228 462.688 160.228 462.125C160.228 461.54 160.077 461.026 159.776 460.582C159.481 460.134 159.046 459.781 158.472 459.526C157.904 459.27 157.217 459.142 156.41 459.142H154.935V456.994H156.41C157.058 456.994 157.626 456.878 158.114 456.645C158.609 456.412 158.995 456.088 159.273 455.673C159.552 455.253 159.691 454.761 159.691 454.199C159.691 453.659 159.569 453.19 159.325 452.793C159.086 452.389 158.745 452.074 158.302 451.847C157.864 451.619 157.347 451.506 156.751 451.506C156.183 451.506 155.651 451.611 155.157 451.821C154.668 452.026 154.271 452.321 153.964 452.707C153.657 453.088 153.492 453.545 153.469 454.08H150.921C150.95 453.136 151.228 452.307 151.756 451.591C152.29 450.875 152.995 450.315 153.87 449.912C154.745 449.509 155.717 449.307 156.785 449.307C157.904 449.307 158.87 449.526 159.683 449.963C160.501 450.395 161.131 450.972 161.575 451.693C162.023 452.415 162.245 453.205 162.239 454.062C162.245 455.04 161.972 455.869 161.421 456.551C160.876 457.233 160.148 457.69 159.239 457.923V458.06C160.398 458.236 161.296 458.696 161.933 459.44C162.575 460.185 162.893 461.108 162.887 462.21C162.893 463.17 162.626 464.031 162.086 464.793C161.552 465.554 160.822 466.153 159.896 466.591C158.969 467.023 157.91 467.239 156.717 467.239Z" fill="black"/>
</g>
<g id="Room-302">
<g id="302">
<path fill-rule="evenodd" clip-rule="evenodd" d="M78 186H203.5V274H78V186Z" fill="#0F52BA" fill-opacity="0.25"/>
<path fill-rule="evenodd" clip-rule="evenodd" d="M78 186H203.5V274H78V186Z" stroke="black" stroke-width="5"/>
<path fill-rule="evenodd" clip-rule="evenodd" d="M78 186H203.5V274H78V186Z" stroke="black" stroke-width="5"/>
</g>
<path id="302_2" d="M125.756 239.239C124.585 239.239 123.54 239.037 122.619 238.634C121.705 238.23 120.98 237.67 120.446 236.955C119.918 236.233 119.634 235.398 119.594 234.449H122.27C122.304 234.966 122.477 235.415 122.79 235.795C123.108 236.17 123.523 236.46 124.034 236.665C124.545 236.869 125.114 236.972 125.739 236.972C126.426 236.972 127.034 236.852 127.562 236.614C128.097 236.375 128.514 236.043 128.815 235.616C129.116 235.185 129.267 234.688 129.267 234.125C129.267 233.54 129.116 233.026 128.815 232.582C128.52 232.134 128.085 231.781 127.511 231.526C126.943 231.27 126.256 231.142 125.449 231.142H123.974V228.994H125.449C126.097 228.994 126.665 228.878 127.153 228.645C127.648 228.412 128.034 228.088 128.312 227.673C128.591 227.253 128.73 226.761 128.73 226.199C128.73 225.659 128.608 225.19 128.364 224.793C128.125 224.389 127.784 224.074 127.341 223.847C126.903 223.619 126.386 223.506 125.79 223.506C125.222 223.506 124.69 223.611 124.196 223.821C123.707 224.026 123.31 224.321 123.003 224.707C122.696 225.088 122.531 225.545 122.509 226.08H119.96C119.989 225.136 120.267 224.307 120.795 223.591C121.33 222.875 122.034 222.315 122.909 221.912C123.784 221.509 124.756 221.307 125.824 221.307C126.943 221.307 127.909 221.526 128.722 221.963C129.54 222.395 130.17 222.972 130.614 223.693C131.063 224.415 131.284 225.205 131.278 226.062C131.284 227.04 131.011 227.869 130.46 228.551C129.915 229.233 129.188 229.69 128.278 229.923V230.06C129.438 230.236 130.335 230.696 130.972 231.44C131.614 232.185 131.932 233.108 131.926 234.21C131.932 235.17 131.665 236.031 131.125 236.793C130.591 237.554 129.861 238.153 128.935 238.591C128.009 239.023 126.949 239.239 125.756 239.239ZM141.224 239.29C139.878 239.284 138.727 238.929 137.773 238.224C136.818 237.52 136.088 236.494 135.582 235.148C135.077 233.801 134.824 232.179 134.824 230.281C134.824 228.389 135.077 226.773 135.582 225.432C136.094 224.091 136.827 223.068 137.781 222.364C138.741 221.659 139.889 221.307 141.224 221.307C142.56 221.307 143.705 221.662 144.659 222.372C145.614 223.077 146.344 224.099 146.849 225.44C147.361 226.776 147.616 228.389 147.616 230.281C147.616 232.185 147.364 233.81 146.858 235.156C146.352 236.497 145.622 237.523 144.668 238.233C143.713 238.938 142.565 239.29 141.224 239.29ZM141.224 237.014C142.406 237.014 143.33 236.438 143.994 235.284C144.665 234.131 145 232.463 145 230.281C145 228.832 144.847 227.608 144.54 226.608C144.239 225.602 143.804 224.841 143.236 224.324C142.673 223.801 142.003 223.54 141.224 223.54C140.048 223.54 139.125 224.119 138.455 225.278C137.784 226.437 137.446 228.105 137.44 230.281C137.44 231.736 137.591 232.966 137.892 233.972C138.199 234.972 138.634 235.73 139.196 236.247C139.759 236.759 140.435 237.014 141.224 237.014ZM150.64 239V237.091L156.546 230.972C157.177 230.307 157.697 229.724 158.106 229.224C158.521 228.719 158.83 228.239 159.035 227.784C159.239 227.33 159.342 226.847 159.342 226.335C159.342 225.756 159.205 225.256 158.933 224.835C158.66 224.409 158.288 224.082 157.816 223.855C157.344 223.622 156.813 223.506 156.222 223.506C155.597 223.506 155.052 223.634 154.586 223.889C154.12 224.145 153.762 224.506 153.512 224.972C153.262 225.437 153.137 225.983 153.137 226.608H150.623C150.623 225.545 150.867 224.616 151.356 223.821C151.844 223.026 152.515 222.409 153.367 221.972C154.219 221.528 155.188 221.307 156.273 221.307C157.37 221.307 158.336 221.526 159.171 221.963C160.012 222.395 160.668 222.986 161.14 223.736C161.612 224.48 161.847 225.321 161.847 226.259C161.847 226.906 161.725 227.54 161.481 228.159C161.242 228.778 160.825 229.469 160.228 230.23C159.631 230.986 158.802 231.903 157.739 232.983L154.271 236.614V236.741H162.129V239H150.64Z" fill="black"/>
</g>
<g id="Room-301">
<g id="301">
<path d="M78 42V158V186H203.5V158V108H222V42H78Z" fill="#0F52BA" fill-opacity="0.25"/>
<path d="M78 42V158V186H203.5V158V108H222V42H78Z" stroke="black" stroke-width="5"/>
<path d="M78 42V158V186H203.5V158V108H222V42H78Z" stroke="black" stroke-width="5"/>
</g>
<path id="301_2" d="M127.756 122.239C126.585 122.239 125.54 122.037 124.619 121.634C123.705 121.23 122.98 120.67 122.446 119.955C121.918 119.233 121.634 118.398 121.594 117.449H124.27C124.304 117.966 124.477 118.415 124.79 118.795C125.108 119.17 125.523 119.46 126.034 119.665C126.545 119.869 127.114 119.972 127.739 119.972C128.426 119.972 129.034 119.852 129.562 119.614C130.097 119.375 130.514 119.043 130.815 118.616C131.116 118.185 131.267 117.688 131.267 117.125C131.267 116.54 131.116 116.026 130.815 115.582C130.52 115.134 130.085 114.781 129.511 114.526C128.943 114.27 128.256 114.142 127.449 114.142H125.974V111.994H127.449C128.097 111.994 128.665 111.878 129.153 111.645C129.648 111.412 130.034 111.088 130.312 110.673C130.591 110.253 130.73 109.761 130.73 109.199C130.73 108.659 130.608 108.19 130.364 107.793C130.125 107.389 129.784 107.074 129.341 106.847C128.903 106.619 128.386 106.506 127.79 106.506C127.222 106.506 126.69 106.611 126.196 106.821C125.707 107.026 125.31 107.321 125.003 107.707C124.696 108.088 124.531 108.545 124.509 109.08H121.96C121.989 108.136 122.267 107.307 122.795 106.591C123.33 105.875 124.034 105.315 124.909 104.912C125.784 104.509 126.756 104.307 127.824 104.307C128.943 104.307 129.909 104.526 130.722 104.963C131.54 105.395 132.17 105.972 132.614 106.693C133.063 107.415 133.284 108.205 133.278 109.062C133.284 110.04 133.011 110.869 132.46 111.551C131.915 112.233 131.188 112.69 130.278 112.923V113.06C131.438 113.236 132.335 113.696 132.972 114.44C133.614 115.185 133.932 116.108 133.926 117.21C133.932 118.17 133.665 119.031 133.125 119.793C132.591 120.554 131.861 121.153 130.935 121.591C130.009 122.023 128.949 122.239 127.756 122.239ZM143.224 122.29C141.878 122.284 140.727 121.929 139.773 121.224C138.818 120.52 138.088 119.494 137.582 118.148C137.077 116.801 136.824 115.179 136.824 113.281C136.824 111.389 137.077 109.773 137.582 108.432C138.094 107.091 138.827 106.068 139.781 105.364C140.741 104.659 141.889 104.307 143.224 104.307C144.56 104.307 145.705 104.662 146.659 105.372C147.614 106.077 148.344 107.099 148.849 108.44C149.361 109.776 149.616 111.389 149.616 113.281C149.616 115.185 149.364 116.81 148.858 118.156C148.352 119.497 147.622 120.523 146.668 121.233C145.713 121.938 144.565 122.29 143.224 122.29ZM143.224 120.014C144.406 120.014 145.33 119.438 145.994 118.284C146.665 117.131 147 115.463 147 113.281C147 111.832 146.847 110.608 146.54 109.608C146.239 108.602 145.804 107.841 145.236 107.324C144.673 106.801 144.003 106.54 143.224 106.54C142.048 106.54 141.125 107.119 140.455 108.278C139.784 109.437 139.446 111.105 139.44 113.281C139.44 114.736 139.591 115.966 139.892 116.972C140.199 117.972 140.634 118.73 141.196 119.247C141.759 119.759 142.435 120.014 143.224 120.014ZM159.262 104.545V122H156.62V107.188H156.518L152.342 109.915V107.392L156.697 104.545H159.262Z" fill="black"/>
</g>
</g>
</svg>
